<?plantuml 1.2026.1?><svg xmlns="http://www.w3.org/2000/svg" xmlns:xlink="http://www.w3.org/1999/xlink" contentStyleType="text/css" data-diagram-type="ACTIVITY" height="641px" preserveAspectRatio="none" style="width:834px;height:641px;background:#FFFFFF;" version="1.1" viewBox="0 0 834 641" width="834px" zoomAndPan="magnify"><title>UC01 - &#272;&#259;ng k&#253;</title><defs/><g><g class="title" data-source-line="2"><text fill="#000000" font-family="sans-serif" font-size="14" font-weight="bold" lengthAdjust="spacing" textLength="121.1602" x="354.9216" y="32.9951">UC01 - &#272;&#259;ng k&#253;</text></g><rect fill="none" height="20.9531" style="stroke:none;stroke-width:1;" width="801.0034" x="15" y="50.042"/><ellipse cx="261.9932" cy="85.9951" fill="#222222" rx="10" ry="10" style="stroke:#222222;stroke-width:1;"/><rect fill="#F1F1F1" height="33.9688" rx="12.5" ry="12.5" style="stroke:#181818;stroke-width:0.5;" width="125.5977" x="199.1943" y="115.9951"/><text fill="#000000" font-family="sans-serif" font-size="12" lengthAdjust="spacing" textLength="105.5977" x="209.1943" y="137.1338">M&#7903; trang &#273;&#259;ng k&#253;</text><rect fill="#F1F1F1" height="33.9688" rx="12.5" ry="12.5" style="stroke:#181818;stroke-width:0.5;" width="167.6211" x="178.1826" y="169.9639"/><text fill="#000000" font-family="sans-serif" font-size="12" lengthAdjust="spacing" textLength="147.6211" x="188.1826" y="191.1025">Nh&#7853;p email v&#224; m&#7853;t kh&#7849;u</text><rect fill="#F1F1F1" height="33.9688" rx="12.5" ry="12.5" style="stroke:#181818;stroke-width:0.5;" width="105.0957" x="209.4453" y="223.9326"/><text fill="#000000" font-family="sans-serif" font-size="12" lengthAdjust="spacing" textLength="85.0957" x="219.4453" y="245.0713">Nh&#7845;n &#272;&#259;ng k&#253;</text><rect fill="#F1F1F1" height="33.9688" rx="12.5" ry="12.5" style="stroke:#181818;stroke-width:0.5;" width="239.8965" x="21" y="537.7764"/><text fill="#000000" font-family="sans-serif" font-size="12" lengthAdjust="spacing" textLength="219.8965" x="31" y="558.915">Nh&#7853;n th&#244;ng b&#225;o &#273;&#259;ng k&#253; th&#224;nh c&#244;ng</text><ellipse cx="140.9482" cy="602.7451" fill="none" rx="11" ry="11" style="stroke:#222222;stroke-width:1;"/><ellipse cx="140.9482" cy="602.7451" fill="#222222" rx="6" ry="6" style="stroke:#222222;stroke-width:1;"/><rect fill="#F1F1F1" height="33.9688" rx="12.5" ry="12.5" style="stroke:#181818;stroke-width:0.5;" width="204.2832" x="280.8965" y="429.8389"/><text fill="#000000" font-family="sans-serif" font-size="12" lengthAdjust="spacing" textLength="184.2832" x="290.8965" y="450.9775">Nh&#7853;n th&#244;ng b&#225;o l&#7895;i v&#224; nh&#7853;p l&#7841;i</text><ellipse cx="383.0381" cy="494.8076" fill="none" rx="11" ry="11" style="stroke:#222222;stroke-width:1;"/><ellipse cx="383.0381" cy="494.8076" fill="#222222" rx="6" ry="6" style="stroke:#222222;stroke-width:1;"/><line style="stroke:#000000;stroke-width:1.5;" x1="15" x2="15" y1="50.042" y2="629.7451"/><rect fill="#F1F1F1" height="33.9688" rx="12.5" ry="12.5" style="stroke:#181818;stroke-width:0.5;" width="183.5645" x="626.5781" y="277.9014"/><text fill="#000000" font-family="sans-serif" font-size="12" lengthAdjust="spacing" textLength="163.5645" x="636.5781" y="299.04">Ki&#7875;m tra t&#237;nh h&#7907;p l&#7879; d&#7919; li&#7879;u</text><rect fill="#F1F1F1" height="33.9688" rx="12.5" ry="12.5" style="stroke:#181818;stroke-width:0.5;" width="169.4492" x="633.6357" y="331.8701"/><text fill="#000000" font-family="sans-serif" font-size="12" lengthAdjust="spacing" textLength="149.4492" x="643.6357" y="353.0088">Ki&#7875;m tra email &#273;&#227; t&#7891;n t&#7841;i</text><polygon fill="#F1F1F1" points="697.7891,385.8389,738.9316,385.8389,750.9316,397.8389,738.9316,409.8389,697.7891,409.8389,685.7891,397.8389,697.7891,385.8389" style="stroke:#181818;stroke-width:0.5;"/><text fill="#000000" font-family="sans-serif" font-size="11" lengthAdjust="spacing" textLength="41.1426" x="697.7891" y="401.647">H&#7907;p l&#7879;?</text><text fill="#000000" font-family="sans-serif" font-size="11" lengthAdjust="spacing" textLength="14.4106" x="671.3784" y="395.2446">C&#243;</text><text fill="#000000" font-family="sans-serif" font-size="11" lengthAdjust="spacing" textLength="34.8691" x="750.9316" y="395.2446">Kh&#244;ng</text><rect fill="#F1F1F1" height="33.9688" rx="12.5" ry="12.5" style="stroke:#181818;stroke-width:0.5;" width="128.082" x="533.2744" y="429.8389"/><text fill="#000000" font-family="sans-serif" font-size="12" lengthAdjust="spacing" textLength="108.082" x="543.2744" y="450.9775">T&#7841;o t&#224;i kho&#7843;n m&#7899;i</text><rect fill="#F1F1F1" height="33.9688" rx="12.5" ry="12.5" style="stroke:#181818;stroke-width:0.5;" width="204.2715" x="495.1797" y="483.8076"/><text fill="#000000" font-family="sans-serif" font-size="12" lengthAdjust="spacing" textLength="184.2715" x="505.1797" y="504.9463">G&#7917;i email x&#225;c minh/h&#432;&#7899;ng d&#7851;n</text><line style="stroke:#000000;stroke-width:1.5;" x1="489.1797" x2="489.1797" y1="50.042" y2="629.7451"/><line style="stroke:#000000;stroke-width:1.5;" x1="814.1426" x2="814.1426" y1="50.042" y2="629.7451"/><line style="stroke:#181818;stroke-width:1;" x1="261.9932" x2="261.9932" y1="95.9951" y2="115.9951"/><polygon fill="#181818" points="257.9932,105.9951,261.9932,115.9951,265.9932,105.9951,261.9932,109.9951" style="stroke:#181818;stroke-width:1;"/><line style="stroke:#181818;stroke-width:1;" x1="261.9932" x2="261.9932" y1="149.9639" y2="169.9639"/><polygon fill="#181818" points="257.9932,159.9639,261.9932,169.9639,265.9932,159.9639,261.9932,163.9639" style="stroke:#181818;stroke-width:1;"/><line style="stroke:#181818;stroke-width:1;" x1="261.9932" x2="261.9932" y1="203.9326" y2="223.9326"/><polygon fill="#181818" points="257.9932,213.9326,261.9932,223.9326,265.9932,213.9326,261.9932,217.9326" style="stroke:#181818;stroke-width:1;"/><line style="stroke:#181818;stroke-width:1;" x1="140.9482" x2="140.9482" y1="571.7451" y2="591.7451"/><polygon fill="#181818" points="136.9482,581.7451,140.9482,591.7451,144.9482,581.7451,140.9482,585.7451" style="stroke:#181818;stroke-width:1;"/><line style="stroke:#181818;stroke-width:1;" x1="383.0381" x2="383.0381" y1="463.8076" y2="483.8076"/><polygon fill="#181818" points="379.0381,473.8076,383.0381,483.8076,387.0381,473.8076,383.0381,477.8076" style="stroke:#181818;stroke-width:1;"/><line style="stroke:#181818;stroke-width:1;" x1="718.3604" x2="718.3604" y1="311.8701" y2="331.8701"/><polygon fill="#181818" points="714.3604,321.8701,718.3604,331.8701,722.3604,321.8701,718.3604,325.8701" style="stroke:#181818;stroke-width:1;"/><line style="stroke:#181818;stroke-width:1;" x1="597.3154" x2="597.3154" y1="463.8076" y2="483.8076"/><polygon fill="#181818" points="593.3154,473.8076,597.3154,483.8076,601.3154,473.8076,597.3154,477.8076" style="stroke:#181818;stroke-width:1;"/><line style="stroke:#181818;stroke-width:1;" x1="685.7891" x2="597.3154" y1="397.8389" y2="397.8389"/><line style="stroke:#181818;stroke-width:1;" x1="597.3154" x2="597.3154" y1="397.8389" y2="429.8389"/><polygon fill="#181818" points="593.3154,419.8389,597.3154,429.8389,601.3154,419.8389,597.3154,423.8389" style="stroke:#181818;stroke-width:1;"/><line style="stroke:#181818;stroke-width:1;" x1="718.3604" x2="718.3604" y1="365.8389" y2="385.8389"/><polygon fill="#181818" points="714.3604,375.8389,718.3604,385.8389,722.3604,375.8389,718.3604,379.8389" style="stroke:#181818;stroke-width:1;"/><line style="stroke:#181818;stroke-width:1;" x1="261.9932" x2="261.9932" y1="257.9014" y2="262.9014"/><line style="stroke:#181818;stroke-width:1;" x1="261.9932" x2="718.3604" y1="262.9014" y2="262.9014"/><line style="stroke:#181818;stroke-width:1;" x1="718.3604" x2="718.3604" y1="262.9014" y2="277.9014"/><polygon fill="#181818" points="714.3604,267.9014,718.3604,277.9014,722.3604,267.9014,718.3604,271.9014" style="stroke:#181818;stroke-width:1;"/><line style="stroke:#181818;stroke-width:1;" x1="597.3154" x2="597.3154" y1="517.7764" y2="522.7764"/><line style="stroke:#181818;stroke-width:1;" x1="597.3154" x2="140.9482" y1="522.7764" y2="522.7764"/><line style="stroke:#181818;stroke-width:1;" x1="140.9482" x2="140.9482" y1="522.7764" y2="537.7764"/><polygon fill="#181818" points="136.9482,527.7764,140.9482,537.7764,144.9482,527.7764,140.9482,531.7764" style="stroke:#181818;stroke-width:1;"/><line style="stroke:#181818;stroke-width:1;" x1="750.9316" x2="762.9316" y1="397.8389" y2="397.8389"/><line style="stroke:#181818;stroke-width:1;" x1="762.9316" x2="762.9316" y1="397.8389" y2="415.8389"/><line style="stroke:#181818;stroke-width:1;" x1="762.9316" x2="383.0381" y1="415.8389" y2="415.8389"/><line style="stroke:#181818;stroke-width:1;" x1="383.0381" x2="383.0381" y1="415.8389" y2="429.8389"/><polygon fill="#181818" points="379.0381,419.8389,383.0381,429.8389,387.0381,419.8389,383.0381,423.8389" style="stroke:#181818;stroke-width:1;"/><text fill="#000000" font-family="sans-serif" font-size="18" lengthAdjust="spacing" textLength="132.5391" x="185.8203" y="66.75">Kh&#225;ch v&#227;ng lai</text><text fill="#000000" font-family="sans-serif" font-size="18" lengthAdjust="spacing" textLength="82.6436" x="610.3394" y="66.75">H&#7879; th&#7889;ng</text><?plantuml-src bL6xJiD04EplAxPC2WIqJa6HWaWHLF01HspdLZcVBVju5EvIf2MYeA30aKM1K0GIL3vHdSL_t9-mbmUaeA6nT3EpCxlZOe8gupbFe10yJAzHZI7cieYOHYqZEEyV7C8UjBVjb9Y9_MJbKDZ5IC2LhGcH74jMQ9vh5fmuymWwvmItyws-nu9JuPfb1b72KT9O1GczDKm8VhxSy4zg9wF7oe4pCz32cRaQbomOeZFJn9k3jaibW9Ww0-bLeJEl84amysOxodLWExSrQ6Vk57sR1VOOnj0P_CmVTIadKj3fs_Sk0mZEI9LIJ8MqOkgQMj72ve46YJnsPeaRvnlg0H9KObzylP62bWzTywAyy8-MQ7hL1EqXx0UX5vPoVfloS4MdZJpfFGgTPYoYVm6TuMgY-nzZkkqULtMhTVzoVVtMLuKOVmC0?></g></svg>