<?plantuml 1.2026.1?><svg xmlns="http://www.w3.org/2000/svg" xmlns:xlink="http://www.w3.org/1999/xlink" contentStyleType="text/css" data-diagram-type="ACTIVITY" height="735px" preserveAspectRatio="none" style="width:1559px;height:735px;background:#FFFFFF;" version="1.1" viewBox="0 0 1559 735" width="1559px" zoomAndPan="magnify"><title>UC02 - &#272;&#259;ng nh&#7853;p</title><defs/><g><g class="title" data-source-line="2"><text fill="#000000" font-family="sans-serif" font-size="14" font-weight="bold" lengthAdjust="spacing" textLength="142.126" x="707.1011" y="32.9951">UC02 - &#272;&#259;ng nh&#7853;p</text></g><rect fill="none" height="20.9531" style="stroke:none;stroke-width:1;" width="1526.3281" x="15" y="50.042"/><ellipse cx="522.7216" cy="85.9951" fill="#222222" rx="10" ry="10" style="stroke:#222222;stroke-width:1;"/><rect fill="#F1F1F1" height="33.9688" rx="12.5" ry="12.5" style="stroke:#181818;stroke-width:0.5;" width="190.5898" x="427.4266" y="115.9951"/><text fill="#000000" font-family="sans-serif" font-size="12" lengthAdjust="spacing" textLength="170.5898" x="437.4266" y="137.1338">Nh&#7853;p t&#224;i kho&#7843;n v&#224; m&#7853;t kh&#7849;u</text><rect fill="#F1F1F1" height="33.9688" rx="12.5" ry="12.5" style="stroke:#181818;stroke-width:0.5;" width="121.2266" x="462.1083" y="169.9639"/><text fill="#000000" font-family="sans-serif" font-size="12" lengthAdjust="spacing" textLength="101.2266" x="472.1083" y="191.1025">Nh&#7845;n &#272;&#259;ng nh&#7853;p</text><rect fill="#F1F1F1" height="33.9688" rx="12.5" ry="12.5" style="stroke:#181818;stroke-width:0.5;" width="100.9707" x="117.5542" y="365.9014"/><text fill="#000000" font-family="sans-serif" font-size="12" lengthAdjust="spacing" textLength="80.9707" x="127.5542" y="387.04">Nh&#7853;p m&#227; 2FA</text><rect fill="#F1F1F1" height="33.9688" rx="12.5" ry="12.5" style="stroke:#181818;stroke-width:0.5;" width="100.3965" x="21" y="599.8076"/><text fill="#000000" font-family="sans-serif" font-size="12" lengthAdjust="spacing" textLength="80.3965" x="31" y="620.9463">V&#224;o h&#7879; th&#7889;ng</text><ellipse cx="71.1982" cy="664.7764" fill="none" rx="11" ry="11" style="stroke:#222222;stroke-width:1;"/><ellipse cx="71.1982" cy="664.7764" fill="#222222" rx="6" ry="6" style="stroke:#222222;stroke-width:1;"/><rect fill="#F1F1F1" height="33.9688" rx="12.5" ry="12.5" style="stroke:#181818;stroke-width:0.5;" width="186.5293" x="171.6162" y="545.8389"/><text fill="#000000" font-family="sans-serif" font-size="12" lengthAdjust="spacing" textLength="166.5293" x="181.6162" y="566.9775">Nh&#7853;n th&#244;ng b&#225;o sai m&#227; 2FA</text><ellipse cx="264.8809" cy="610.8076" fill="none" rx="11" ry="11" style="stroke:#222222;stroke-width:1;"/><ellipse cx="264.8809" cy="610.8076" fill="#222222" rx="6" ry="6" style="stroke:#222222;stroke-width:1;"/><rect fill="#F1F1F1" height="33.9688" rx="12.5" ry="12.5" style="stroke:#181818;stroke-width:0.5;" width="160.8359" x="368.1455" y="365.9014"/><text fill="#000000" font-family="sans-serif" font-size="12" lengthAdjust="spacing" textLength="140.8359" x="378.1455" y="387.04">T&#7841;o phi&#234;n v&#224; c&#7845;p token</text><rect fill="#F1F1F1" height="33.9688" rx="12.5" ry="12.5" style="stroke:#181818;stroke-width:0.5;" width="100.3965" x="398.3652" y="434.8701"/><text fill="#000000" font-family="sans-serif" font-size="12" lengthAdjust="spacing" textLength="80.3965" x="408.3652" y="456.0088">V&#224;o h&#7879; th&#7889;ng</text><ellipse cx="448.5635" cy="512.8389" fill="none" rx="11" ry="11" style="stroke:#222222;stroke-width:1;"/><ellipse cx="448.5635" cy="512.8389" fill="#222222" rx="6" ry="6" style="stroke:#222222;stroke-width:1;"/><rect fill="#F1F1F1" height="33.9688" rx="12.5" ry="12.5" style="stroke:#181818;stroke-width:0.5;" width="376.3203" x="558.9814" y="321.9014"/><text fill="#000000" font-family="sans-serif" font-size="12" lengthAdjust="spacing" textLength="356.3203" x="568.9814" y="343.04">C&#243; th&#7875; y&#234;u c&#7847;u CAPTCHA ho&#7863;c th&#244;ng b&#225;o t&#224;i kho&#7843;n b&#7883; kh&#243;a</text><rect fill="#F1F1F1" height="33.9688" rx="12.5" ry="12.5" style="stroke:#181818;stroke-width:0.5;" width="134.1816" x="680.0508" y="390.8701"/><text fill="#000000" font-family="sans-serif" font-size="12" lengthAdjust="spacing" textLength="114.1816" x="690.0508" y="412.0088">Nh&#7853;n th&#244;ng b&#225;o l&#7895;i</text><ellipse cx="747.1416" cy="470.8389" fill="none" rx="11" ry="11" style="stroke:#222222;stroke-width:1;"/><ellipse cx="747.1416" cy="470.8389" fill="#222222" rx="6" ry="6" style="stroke:#222222;stroke-width:1;"/><line style="stroke:#000000;stroke-width:1.5;" x1="15" x2="15" y1="50.042" y2="723.7764"/><rect fill="#F1F1F1" height="33.9688" rx="12.5" ry="12.5" style="stroke:#181818;stroke-width:0.5;" width="197.2344" x="1338.2329" y="223.9326"/><text fill="#000000" font-family="sans-serif" font-size="12" lengthAdjust="spacing" textLength="177.2344" x="1348.2329" y="245.0713">Ki&#7875;m tra th&#244;ng tin &#273;&#259;ng nh&#7853;p</text><polygon fill="#F1F1F1" points="1389.0742,277.9014,1484.626,277.9014,1496.626,289.9014,1484.626,301.9014,1389.0742,301.9014,1377.0742,289.9014,1389.0742,277.9014" style="stroke:#181818;stroke-width:0.5;"/><text fill="#000000" font-family="sans-serif" font-size="11" lengthAdjust="spacing" textLength="95.5518" x="1389.0742" y="293.7095">Th&#244;ng tin h&#7907;p l&#7879;?</text><text fill="#000000" font-family="sans-serif" font-size="11" lengthAdjust="spacing" textLength="14.4106" x="1362.6636" y="287.3071">C&#243;</text><text fill="#000000" font-family="sans-serif" font-size="11" lengthAdjust="spacing" textLength="34.8691" x="1496.626" y="287.3071">Kh&#244;ng</text><polygon fill="#F1F1F1" points="1232.5781,321.9014,1281.3638,321.9014,1293.3638,333.9014,1281.3638,345.9014,1232.5781,345.9014,1220.5781,333.9014,1232.5781,321.9014" style="stroke:#181818;stroke-width:0.5;"/><text fill="#000000" font-family="sans-serif" font-size="11" lengthAdjust="spacing" textLength="48.7856" x="1232.5781" y="337.7095">B&#7853;t 2FA?</text><text fill="#000000" font-family="sans-serif" font-size="11" lengthAdjust="spacing" textLength="14.4106" x="1206.1675" y="331.3071">C&#243;</text><text fill="#000000" font-family="sans-serif" font-size="11" lengthAdjust="spacing" textLength="34.8691" x="1293.3638" y="331.3071">Kh&#244;ng</text><rect fill="#F1F1F1" height="33.9688" rx="12.5" ry="12.5" style="stroke:#181818;stroke-width:0.5;" width="125.6387" x="1059.7417" y="434.8701"/><text fill="#000000" font-family="sans-serif" font-size="12" lengthAdjust="spacing" textLength="105.6387" x="1069.7417" y="456.0088">X&#225;c minh m&#227; 2FA</text><polygon fill="#F1F1F1" points="1095.8237,501.8389,1149.2983,501.8389,1161.2983,513.8389,1149.2983,525.8389,1095.8237,525.8389,1083.8237,513.8389,1095.8237,501.8389" style="stroke:#181818;stroke-width:0.5;"/><text fill="#000000" font-family="sans-serif" font-size="11" lengthAdjust="spacing" textLength="53.4746" x="1095.8237" y="517.647">M&#227; &#273;&#250;ng?</text><text fill="#000000" font-family="sans-serif" font-size="11" lengthAdjust="spacing" textLength="14.4106" x="1069.4131" y="511.2446">C&#243;</text><text fill="#000000" font-family="sans-serif" font-size="11" lengthAdjust="spacing" textLength="34.8691" x="1161.2983" y="511.2446">Kh&#244;ng</text><rect fill="#F1F1F1" height="33.9688" rx="12.5" ry="12.5" style="stroke:#181818;stroke-width:0.5;" width="160.8359" x="945.3018" y="545.8389"/><text fill="#000000" font-family="sans-serif" font-size="12" lengthAdjust="spacing" textLength="140.8359" x="955.3018" y="566.9775">T&#7841;o phi&#234;n v&#224; c&#7845;p token</text><line style="stroke:#000000;stroke-width:1.5;" x1="939.3018" x2="939.3018" y1="50.042" y2="723.7764"/><line style="stroke:#000000;stroke-width:1.5;" x1="1539.4673" x2="1539.4673" y1="50.042" y2="723.7764"/><line style="stroke:#181818;stroke-width:1;" x1="522.7216" x2="522.7216" y1="95.9951" y2="115.9951"/><polygon fill="#181818" points="518.7216,105.9951,522.7216,115.9951,526.7216,105.9951,522.7216,109.9951" style="stroke:#181818;stroke-width:1;"/><line style="stroke:#181818;stroke-width:1;" x1="522.7216" x2="522.7216" y1="149.9639" y2="169.9639"/><polygon fill="#181818" points="518.7216,159.9639,522.7216,169.9639,526.7216,159.9639,522.7216,163.9639" style="stroke:#181818;stroke-width:1;"/><line style="stroke:#181818;stroke-width:1;" x1="71.1982" x2="71.1982" y1="633.7764" y2="653.7764"/><polygon fill="#181818" points="67.1982,643.7764,71.1982,653.7764,75.1982,643.7764,71.1982,647.7764" style="stroke:#181818;stroke-width:1;"/><line style="stroke:#181818;stroke-width:1;" x1="264.8809" x2="264.8809" y1="579.8076" y2="599.8076"/><polygon fill="#181818" points="260.8809,589.8076,264.8809,599.8076,268.8809,589.8076,264.8809,593.8076" style="stroke:#181818;stroke-width:1;"/><line style="stroke:#181818;stroke-width:1;" x1="448.5635" x2="448.5635" y1="399.8701" y2="434.8701"/><polygon fill="#181818" points="444.5635,424.8701,448.5635,434.8701,452.5635,424.8701,448.5635,428.8701" style="stroke:#181818;stroke-width:1;"/><line style="stroke:#181818;stroke-width:1;" x1="448.5635" x2="448.5635" y1="468.8389" y2="501.8389"/><polygon fill="#181818" points="444.5635,491.8389,448.5635,501.8389,452.5635,491.8389,448.5635,495.8389" style="stroke:#181818;stroke-width:1;"/><line style="stroke:#181818;stroke-width:1;" x1="747.1416" x2="747.1416" y1="355.8701" y2="390.8701"/><polygon fill="#181818" points="743.1416,380.8701,747.1416,390.8701,751.1416,380.8701,747.1416,384.8701" style="stroke:#181818;stroke-width:1;"/><line style="stroke:#181818;stroke-width:1;" x1="747.1416" x2="747.1416" y1="424.8389" y2="459.8389"/><polygon fill="#181818" points="743.1416,449.8389,747.1416,459.8389,751.1416,449.8389,747.1416,453.8389" style="stroke:#181818;stroke-width:1;"/><line style="stroke:#181818;stroke-width:1;" x1="1083.8237" x2="1025.7197" y1="513.8389" y2="513.8389"/><line style="stroke:#181818;stroke-width:1;" x1="1025.7197" x2="1025.7197" y1="513.8389" y2="545.8389"/><polygon fill="#181818" points="1021.7197,535.8389,1025.7197,545.8389,1029.7197,535.8389,1025.7197,539.8389" style="stroke:#181818;stroke-width:1;"/><line style="stroke:#181818;stroke-width:1;" x1="1122.561" x2="1122.561" y1="468.8389" y2="501.8389"/><polygon fill="#181818" points="1118.561,491.8389,1122.561,501.8389,1126.561,491.8389,1122.561,495.8389" style="stroke:#181818;stroke-width:1;"/><line style="stroke:#181818;stroke-width:1;" x1="1377.0742" x2="1256.9709" y1="289.9014" y2="289.9014"/><line style="stroke:#181818;stroke-width:1;" x1="1256.9709" x2="1256.9709" y1="289.9014" y2="321.9014"/><polygon fill="#181818" points="1252.9709,311.9014,1256.9709,321.9014,1260.9709,311.9014,1256.9709,315.9014" style="stroke:#181818;stroke-width:1;"/><line style="stroke:#181818;stroke-width:1;" x1="1436.8501" x2="1436.8501" y1="257.9014" y2="277.9014"/><polygon fill="#181818" points="1432.8501,267.9014,1436.8501,277.9014,1440.8501,267.9014,1436.8501,271.9014" style="stroke:#181818;stroke-width:1;"/><line style="stroke:#181818;stroke-width:1;" x1="522.7216" x2="522.7216" y1="203.9326" y2="208.9326"/><line style="stroke:#181818;stroke-width:1;" x1="522.7216" x2="1436.8501" y1="208.9326" y2="208.9326"/><line style="stroke:#181818;stroke-width:1;" x1="1436.8501" x2="1436.8501" y1="208.9326" y2="223.9326"/><polygon fill="#181818" points="1432.8501,213.9326,1436.8501,223.9326,1440.8501,213.9326,1436.8501,217.9326" style="stroke:#181818;stroke-width:1;"/><line style="stroke:#181818;stroke-width:1;" x1="168.0396" x2="168.0396" y1="399.8701" y2="417.3701"/><line style="stroke:#181818;stroke-width:1;" x1="168.0396" x2="1122.561" y1="417.3701" y2="417.3701"/><line style="stroke:#181818;stroke-width:1;" x1="1122.561" x2="1122.561" y1="417.3701" y2="434.8701"/><polygon fill="#181818" points="1118.561,424.8701,1122.561,434.8701,1126.561,424.8701,1122.561,428.8701" style="stroke:#181818;stroke-width:1;"/><line style="stroke:#181818;stroke-width:1;" x1="1025.7197" x2="1025.7197" y1="579.8076" y2="584.8076"/><line style="stroke:#181818;stroke-width:1;" x1="1025.7197" x2="71.1982" y1="584.8076" y2="584.8076"/><line style="stroke:#181818;stroke-width:1;" x1="71.1982" x2="71.1982" y1="584.8076" y2="599.8076"/><polygon fill="#181818" points="67.1982,589.8076,71.1982,599.8076,75.1982,589.8076,71.1982,593.8076" style="stroke:#181818;stroke-width:1;"/><line style="stroke:#181818;stroke-width:1;" x1="1161.2983" x2="1173.2983" y1="513.8389" y2="513.8389"/><line style="stroke:#181818;stroke-width:1;" x1="1173.2983" x2="1173.2983" y1="513.8389" y2="531.8389"/><line style="stroke:#181818;stroke-width:1;" x1="1173.2983" x2="264.8809" y1="531.8389" y2="531.8389"/><line style="stroke:#181818;stroke-width:1;" x1="264.8809" x2="264.8809" y1="531.8389" y2="545.8389"/><polygon fill="#181818" points="260.8809,535.8389,264.8809,545.8389,268.8809,535.8389,264.8809,539.8389" style="stroke:#181818;stroke-width:1;"/><line style="stroke:#181818;stroke-width:1;" x1="1220.5781" x2="168.0396" y1="333.9014" y2="333.9014"/><line style="stroke:#181818;stroke-width:1;" x1="168.0396" x2="168.0396" y1="333.9014" y2="365.9014"/><polygon fill="#181818" points="164.0396,355.9014,168.0396,365.9014,172.0396,355.9014,168.0396,359.9014" style="stroke:#181818;stroke-width:1;"/><line style="stroke:#181818;stroke-width:1;" x1="1293.3638" x2="1305.3638" y1="333.9014" y2="333.9014"/><line style="stroke:#181818;stroke-width:1;" x1="1305.3638" x2="1305.3638" y1="333.9014" y2="351.9014"/><line style="stroke:#181818;stroke-width:1;" x1="1305.3638" x2="448.5635" y1="351.9014" y2="351.9014"/><line style="stroke:#181818;stroke-width:1;" x1="448.5635" x2="448.5635" y1="351.9014" y2="365.9014"/><polygon fill="#181818" points="444.5635,355.9014,448.5635,365.9014,452.5635,355.9014,448.5635,359.9014" style="stroke:#181818;stroke-width:1;"/><line style="stroke:#181818;stroke-width:1;" x1="1496.626" x2="1508.626" y1="289.9014" y2="289.9014"/><line style="stroke:#181818;stroke-width:1;" x1="1508.626" x2="1508.626" y1="289.9014" y2="307.9014"/><line style="stroke:#181818;stroke-width:1;" x1="1508.626" x2="747.1416" y1="307.9014" y2="307.9014"/><line style="stroke:#181818;stroke-width:1;" x1="747.1416" x2="747.1416" y1="307.9014" y2="321.9014"/><polygon fill="#181818" points="743.1416,311.9014,747.1416,321.9014,751.1416,311.9014,747.1416,315.9014" style="stroke:#181818;stroke-width:1;"/><text fill="#000000" font-family="sans-serif" font-size="18" lengthAdjust="spacing" textLength="103.7021" x="425.2998" y="66.75">Ng&#432;&#7901;i d&#249;ng</text><text fill="#000000" font-family="sans-serif" font-size="18" lengthAdjust="spacing" textLength="82.6436" x="1198.0627" y="66.75">H&#7879; th&#7889;ng</text><?plantuml-src ZLA_IyD05DxpLxon7GJfs0nI0r8e5eSghjSsJOuqbz1S5Q5R1mSNEpa9BKN4WY1K49FnYl_7_IU-kxJgjH7TclU-xtq_Uab0MKm698J49zteaZ8FUgIVk1QdlE_2gRDVWJrOtQx6k66-J9zZQzJqFbvaTa-XAzwPDx8IJWRSgZRr6hYOKWZyIAPp1XTY2Y6EEKva-ZIqSzW3Cs_QrgWkislWlimcwcIrGMKs3e4F20x5Ao8vHTB48D4Ub5hVMoJFO-ZZeOCoibm69KSionQ00Xvg6vMZslOIO2UH6cxoX6AkM7QED6rgtBcOTI2ap3UXIlCO1wk9I9ctAuhCband4SG-5OkygWvMWmr6WSliDQZG6tBFn3HIYR_SR0W9ZsBzqyN_4KeDtK_vZsiwAzjKtHPeAo7K3FJpDElIdbKayOzCnMt_acSjcGjkorMnJ0qVmvLO39NKun2SsadBgTT0FS6tZf79U9jjcTtWXrWI9LNWggWLV5rtLE6rCMth4m00?></g></svg>