<?plantuml 1.2026.1?><svg xmlns="http://www.w3.org/2000/svg" xmlns:xlink="http://www.w3.org/1999/xlink" contentStyleType="text/css" data-diagram-type="ACTIVITY" height="419px" preserveAspectRatio="none" style="width:442px;height:419px;background:#FFFFFF;" version="1.1" viewBox="0 0 442 419" width="442px" zoomAndPan="magnify"><title>UC03 - &#272;&#259;ng xu&#7845;t</title><defs/><g><g class="title" data-source-line="2"><text fill="#000000" font-family="sans-serif" font-size="14" font-weight="bold" lengthAdjust="spacing" textLength="137.8604" x="150.9592" y="32.9951">UC03 - &#272;&#259;ng xu&#7845;t</text></g><rect fill="none" height="20.9531" style="stroke:none;stroke-width:1;" width="409.7788" x="15" y="50.042"/><ellipse cx="121.8057" cy="85.9951" fill="#222222" rx="10" ry="10" style="stroke:#222222;stroke-width:1;"/><rect fill="#F1F1F1" height="33.9688" rx="12.5" ry="12.5" style="stroke:#181818;stroke-width:0.5;" width="117.2012" x="63.2051" y="115.9951"/><text fill="#000000" font-family="sans-serif" font-size="12" lengthAdjust="spacing" textLength="97.2012" x="73.2051" y="137.1338">Ch&#7885;n &#272;&#259;ng xu&#7845;t</text><rect fill="#F1F1F1" height="33.9688" rx="12.5" ry="12.5" style="stroke:#181818;stroke-width:0.5;" width="201.6113" x="21" y="331.8701"/><text fill="#000000" font-family="sans-serif" font-size="12" lengthAdjust="spacing" textLength="181.6113" x="31" y="353.0088">B&#7883; chuy&#7875;n v&#7873; trang &#273;&#259;ng nh&#7853;p</text><ellipse cx="121.8057" cy="396.8389" fill="none" rx="11" ry="11" style="stroke:#222222;stroke-width:1;"/><ellipse cx="121.8057" cy="396.8389" fill="#222222" rx="6" ry="6" style="stroke:#222222;stroke-width:1;"/><line style="stroke:#000000;stroke-width:1.5;" x1="15" x2="15" y1="50.042" y2="407.8389"/><rect fill="#F1F1F1" height="33.9688" rx="12.5" ry="12.5" style="stroke:#181818;stroke-width:0.5;" width="155" x="248.2646" y="169.9639"/><text fill="#000000" font-family="sans-serif" font-size="12" lengthAdjust="spacing" textLength="135" x="258.2646" y="191.1025">G&#7917;i y&#234;u c&#7847;u h&#7911;y phi&#234;n</text><rect fill="#F1F1F1" height="33.9688" rx="12.5" ry="12.5" style="stroke:#181818;stroke-width:0.5;" width="186.3066" x="232.6113" y="223.9326"/><text fill="#000000" font-family="sans-serif" font-size="12" lengthAdjust="spacing" textLength="166.3066" x="242.6113" y="245.0713">X&#243;a token/phi&#234;n &#273;&#259;ng nh&#7853;p</text><rect fill="#F1F1F1" height="33.9688" rx="12.5" ry="12.5" style="stroke:#181818;stroke-width:0.5;" width="153.4473" x="249.041" y="277.9014"/><text fill="#000000" font-family="sans-serif" font-size="12" lengthAdjust="spacing" textLength="133.4473" x="259.041" y="299.04">Tr&#7843; k&#7871;t qu&#7843; &#273;&#259;ng xu&#7845;t</text><line style="stroke:#000000;stroke-width:1.5;" x1="226.6113" x2="226.6113" y1="50.042" y2="407.8389"/><line style="stroke:#000000;stroke-width:1.5;" x1="422.918" x2="422.918" y1="50.042" y2="407.8389"/><line style="stroke:#181818;stroke-width:1;" x1="121.8057" x2="121.8057" y1="95.9951" y2="115.9951"/><polygon fill="#181818" points="117.8057,105.9951,121.8057,115.9951,125.8057,105.9951,121.8057,109.9951" style="stroke:#181818;stroke-width:1;"/><line style="stroke:#181818;stroke-width:1;" x1="121.8057" x2="121.8057" y1="365.8389" y2="385.8389"/><polygon fill="#181818" points="117.8057,375.8389,121.8057,385.8389,125.8057,375.8389,121.8057,379.8389" style="stroke:#181818;stroke-width:1;"/><line style="stroke:#181818;stroke-width:1;" x1="325.7646" x2="325.7646" y1="203.9326" y2="223.9326"/><polygon fill="#181818" points="321.7646,213.9326,325.7646,223.9326,329.7646,213.9326,325.7646,217.9326" style="stroke:#181818;stroke-width:1;"/><line style="stroke:#181818;stroke-width:1;" x1="325.7646" x2="325.7646" y1="257.9014" y2="277.9014"/><polygon fill="#181818" points="321.7646,267.9014,325.7646,277.9014,329.7646,267.9014,325.7646,271.9014" style="stroke:#181818;stroke-width:1;"/><line style="stroke:#181818;stroke-width:1;" x1="121.8057" x2="121.8057" y1="149.9639" y2="154.9639"/><line style="stroke:#181818;stroke-width:1;" x1="121.8057" x2="325.7646" y1="154.9639" y2="154.9639"/><line style="stroke:#181818;stroke-width:1;" x1="325.7646" x2="325.7646" y1="154.9639" y2="169.9639"/><polygon fill="#181818" points="321.7646,159.9639,325.7646,169.9639,329.7646,159.9639,325.7646,163.9639" style="stroke:#181818;stroke-width:1;"/><line style="stroke:#181818;stroke-width:1;" x1="325.7646" x2="325.7646" y1="311.8701" y2="316.8701"/><line style="stroke:#181818;stroke-width:1;" x1="325.7646" x2="121.8057" y1="316.8701" y2="316.8701"/><line style="stroke:#181818;stroke-width:1;" x1="121.8057" x2="121.8057" y1="316.8701" y2="331.8701"/><polygon fill="#181818" points="117.8057,321.8701,121.8057,331.8701,125.8057,321.8701,121.8057,325.8701" style="stroke:#181818;stroke-width:1;"/><text fill="#000000" font-family="sans-serif" font-size="18" lengthAdjust="spacing" textLength="103.7021" x="68.9546" y="66.75">Ng&#432;&#7901;i d&#249;ng</text><text fill="#000000" font-family="sans-serif" font-size="18" lengthAdjust="spacing" textLength="82.6436" x="283.4429" y="66.75">H&#7879; th&#7889;ng</text><?plantuml-src AyxEp2j8B4hCLIZEI4p9By_CIrT8IymfJkKgoIp9ILK8TJOmLj1LE3BXI3DGfgBquQwb9LmrVkd7DZpSFJTJ8UNmphpq6gxYaiIY4Yuhvuo7ktlpK1LRSzLuFDpThb02b9i8Kclb_d3tsao5oiEhIXMI7-vQNge0b5bUgL2GaNbuLPurbrN4uSs92YNvsQbv-X0nXICJmGRcPJpSjRO0g2AawE6knGhP3tVjBr4eB0MneIhWLg8xqChfuUvkXUICqig7kvlp5CeUxcvKA2bA16f1Cxku9By00000?></g></svg>