<?plantuml 1.2026.1?><svg xmlns="http://www.w3.org/2000/svg" xmlns:xlink="http://www.w3.org/1999/xlink" contentStyleType="text/css" data-diagram-type="ACTIVITY" height="425px" preserveAspectRatio="none" style="width:654px;height:425px;background:#FFFFFF;" version="1.1" viewBox="0 0 654 425" width="654px" zoomAndPan="magnify"><title>UC04 - T&#236;m ki&#7871;m vi&#7879;c l&#224;m</title><defs/><g><g class="title" data-source-line="2"><text fill="#000000" font-family="sans-serif" font-size="14" font-weight="bold" lengthAdjust="spacing" textLength="198.9873" x="226.1008" y="32.9951">UC04 - T&#236;m ki&#7871;m vi&#7879;c l&#224;m</text></g><rect fill="none" height="20.9531" style="stroke:none;stroke-width:1;" width="621.189" x="15" y="50.042"/><ellipse cx="208.6875" cy="85.9951" fill="#222222" rx="10" ry="10" style="stroke:#222222;stroke-width:1;"/><rect fill="#F1F1F1" height="33.9688" rx="12.5" ry="12.5" style="stroke:#181818;stroke-width:0.5;" width="158.873" x="129.251" y="115.9951"/><text fill="#000000" font-family="sans-serif" font-size="12" lengthAdjust="spacing" textLength="138.873" x="139.251" y="137.1338">Nh&#7853;p t&#7915; kh&#243;a v&#224; b&#7897; l&#7885;c</text><rect fill="#F1F1F1" height="33.9688" rx="12.5" ry="12.5" style="stroke:#181818;stroke-width:0.5;" width="110.8789" x="153.248" y="169.9639"/><text fill="#000000" font-family="sans-serif" font-size="12" lengthAdjust="spacing" textLength="90.8789" x="163.248" y="191.1025">Nh&#7845;n T&#236;m ki&#7871;m</text><rect fill="#F1F1F1" height="33.9688" rx="12.5" ry="12.5" style="stroke:#181818;stroke-width:0.5;" width="162.1543" x="21" y="321.9014"/><text fill="#000000" font-family="sans-serif" font-size="12" lengthAdjust="spacing" textLength="142.1543" x="31" y="343.04">Xem danh s&#225;ch k&#7871;t qu&#7843;</text><ellipse cx="102.0771" cy="386.8701" fill="none" rx="11" ry="11" style="stroke:#222222;stroke-width:1;"/><ellipse cx="102.0771" cy="386.8701" fill="#222222" rx="6" ry="6" style="stroke:#222222;stroke-width:1;"/><rect fill="#F1F1F1" height="33.9688" rx="12.5" ry="12.5" style="stroke:#181818;stroke-width:0.5;" width="224.2871" x="203.1543" y="321.9014"/><text fill="#000000" font-family="sans-serif" font-size="12" lengthAdjust="spacing" textLength="204.2871" x="213.1543" y="343.04">Nh&#7853;n th&#244;ng b&#225;o kh&#244;ng c&#243; k&#7871;t qu&#7843;</text><ellipse cx="315.2979" cy="386.8701" fill="none" rx="11" ry="11" style="stroke:#222222;stroke-width:1;"/><ellipse cx="315.2979" cy="386.8701" fill="#222222" rx="6" ry="6" style="stroke:#222222;stroke-width:1;"/><line style="stroke:#000000;stroke-width:1.5;" x1="15" x2="15" y1="50.042" y2="413.8701"/><rect fill="#F1F1F1" height="33.9688" rx="12.5" ry="12.5" style="stroke:#181818;stroke-width:0.5;" width="192.8867" x="437.4414" y="223.9326"/><text fill="#000000" font-family="sans-serif" font-size="12" lengthAdjust="spacing" textLength="172.8867" x="447.4414" y="245.0713">Truy v&#7845;n danh s&#225;ch vi&#7879;c l&#224;m</text><polygon fill="#F1F1F1" points="501.1909,277.9014,566.5786,277.9014,578.5786,289.9014,566.5786,301.9014,501.1909,301.9014,489.1909,289.9014,501.1909,277.9014" style="stroke:#181818;stroke-width:0.5;"/><text fill="#000000" font-family="sans-serif" font-size="11" lengthAdjust="spacing" textLength="65.3877" x="501.1909" y="293.7095">C&#243; k&#7871;t qu&#7843;?</text><text fill="#000000" font-family="sans-serif" font-size="11" lengthAdjust="spacing" textLength="14.4106" x="474.7803" y="287.3071">C&#243;</text><text fill="#000000" font-family="sans-serif" font-size="11" lengthAdjust="spacing" textLength="34.8691" x="578.5786" y="287.3071">Kh&#244;ng</text><line style="stroke:#000000;stroke-width:1.5;" x1="431.4414" x2="431.4414" y1="50.042" y2="413.8701"/><line style="stroke:#000000;stroke-width:1.5;" x1="634.3281" x2="634.3281" y1="50.042" y2="413.8701"/><line style="stroke:#181818;stroke-width:1;" x1="208.6875" x2="208.6875" y1="95.9951" y2="115.9951"/><polygon fill="#181818" points="204.6875,105.9951,208.6875,115.9951,212.6875,105.9951,208.6875,109.9951" style="stroke:#181818;stroke-width:1;"/><line style="stroke:#181818;stroke-width:1;" x1="208.6875" x2="208.6875" y1="149.9639" y2="169.9639"/><polygon fill="#181818" points="204.6875,159.9639,208.6875,169.9639,212.6875,159.9639,208.6875,163.9639" style="stroke:#181818;stroke-width:1;"/><line style="stroke:#181818;stroke-width:1;" x1="102.0771" x2="102.0771" y1="355.8701" y2="375.8701"/><polygon fill="#181818" points="98.0771,365.8701,102.0771,375.8701,106.0771,365.8701,102.0771,369.8701" style="stroke:#181818;stroke-width:1;"/><line style="stroke:#181818;stroke-width:1;" x1="315.2979" x2="315.2979" y1="355.8701" y2="375.8701"/><polygon fill="#181818" points="311.2979,365.8701,315.2979,375.8701,319.2979,365.8701,315.2979,369.8701" style="stroke:#181818;stroke-width:1;"/><line style="stroke:#181818;stroke-width:1;" x1="533.8848" x2="533.8848" y1="257.9014" y2="277.9014"/><polygon fill="#181818" points="529.8848,267.9014,533.8848,277.9014,537.8848,267.9014,533.8848,271.9014" style="stroke:#181818;stroke-width:1;"/><line style="stroke:#181818;stroke-width:1;" x1="208.6875" x2="208.6875" y1="203.9326" y2="208.9326"/><line style="stroke:#181818;stroke-width:1;" x1="208.6875" x2="533.8848" y1="208.9326" y2="208.9326"/><line style="stroke:#181818;stroke-width:1;" x1="533.8848" x2="533.8848" y1="208.9326" y2="223.9326"/><polygon fill="#181818" points="529.8848,213.9326,533.8848,223.9326,537.8848,213.9326,533.8848,217.9326" style="stroke:#181818;stroke-width:1;"/><line style="stroke:#181818;stroke-width:1;" x1="489.1909" x2="102.0771" y1="289.9014" y2="289.9014"/><line style="stroke:#181818;stroke-width:1;" x1="102.0771" x2="102.0771" y1="289.9014" y2="321.9014"/><polygon fill="#181818" points="98.0771,311.9014,102.0771,321.9014,106.0771,311.9014,102.0771,315.9014" style="stroke:#181818;stroke-width:1;"/><line style="stroke:#181818;stroke-width:1;" x1="578.5786" x2="590.5786" y1="289.9014" y2="289.9014"/><line style="stroke:#181818;stroke-width:1;" x1="590.5786" x2="590.5786" y1="289.9014" y2="307.9014"/><line style="stroke:#181818;stroke-width:1;" x1="590.5786" x2="315.2979" y1="307.9014" y2="307.9014"/><line style="stroke:#181818;stroke-width:1;" x1="315.2979" x2="315.2979" y1="307.9014" y2="321.9014"/><polygon fill="#181818" points="311.2979,311.9014,315.2979,321.9014,319.2979,311.9014,315.2979,315.9014" style="stroke:#181818;stroke-width:1;"/><text fill="#000000" font-family="sans-serif" font-size="18" lengthAdjust="spacing" textLength="132.5391" x="156.9512" y="66.75">Kh&#225;ch v&#227;ng lai</text><text fill="#000000" font-family="sans-serif" font-size="18" lengthAdjust="spacing" textLength="82.6436" x="491.563" y="66.75">H&#7879; th&#7889;ng</text><?plantuml-src TP0nJyCm48Lt_uetjWCI0rCoC7H1Gc8gKbStSM8hZXDYDnLITYO6HhPM5HCmbIaU6FnB_4zmqg51WkrqzzvtxquNGjMqeIKqfscr5If7HgLcn0WZ6UuNbrUumD9zb2Y4xxzBjCBRfmJIxKhItNAtJpXQTmX6IKL7jA6D8T4Tz_rd3UFjEmhkZZHeTbXx-mhfxNCIdoHlQigEINSJu33SsnULToHQDfj7jACkfOf3dzQT8yH4P9Wjt15581WyR7n_k9u715DZVqw0Fs82qOgLK-Z47uUnDbLDMFW4Pi7zfVB_GUEjAgmSP5YxVJMSFDJ9xrndhaf5zWC0?></g></svg>