<?plantuml 1.2026.1?><svg xmlns="http://www.w3.org/2000/svg" xmlns:xlink="http://www.w3.org/1999/xlink" contentStyleType="text/css" data-diagram-type="ACTIVITY" height="620px" preserveAspectRatio="none" style="width:411px;height:620px;background:#FFFFFF;" version="1.1" viewBox="0 0 411 620" width="411px" zoomAndPan="magnify"><title>UC05 - Xem danh s&#225;ch vi&#7879;c l&#224;m</title><defs/><g><g class="title" data-source-line="2"><text fill="#000000" font-family="sans-serif" font-size="14" font-weight="bold" lengthAdjust="spacing" textLength="247.0576" x="80.7368" y="32.9951">UC05 - Xem danh s&#225;ch vi&#7879;c l&#224;m</text></g><rect fill="none" height="20.9531" style="stroke:none;stroke-width:1;" width="378.5313" x="15" y="50.042"/><ellipse cx="127.3059" cy="85.9951" fill="#222222" rx="10" ry="10" style="stroke:#222222;stroke-width:1;"/><rect fill="#F1F1F1" height="33.9688" rx="12.5" ry="12.5" style="stroke:#181818;stroke-width:0.5;" width="128.1465" x="63.2327" y="115.9951"/><text fill="#000000" font-family="sans-serif" font-size="12" lengthAdjust="spacing" textLength="108.1465" x="73.2327" y="137.1338">M&#7903; trang vi&#7879;c l&#224;m</text><rect fill="#F1F1F1" height="33.9688" rx="12.5" ry="12.5" style="stroke:#181818;stroke-width:0.5;" width="167.334" x="43.6389" y="277.9014"/><text fill="#000000" font-family="sans-serif" font-size="12" lengthAdjust="spacing" textLength="147.334" x="53.6389" y="299.04">Xem danh s&#225;ch vi&#7879;c l&#224;m</text><rect fill="#F1F1F1" height="33.9688" rx="12.5" ry="12.5" style="stroke:#181818;stroke-width:0.5;" width="153.2305" x="50.6907" y="380.2725"/><text fill="#000000" font-family="sans-serif" font-size="12" lengthAdjust="spacing" textLength="133.2305" x="60.6907" y="401.4111">Ch&#7885;n b&#7897; l&#7885;c/trang m&#7899;i</text><rect fill="#F1F1F1" height="33.9688" rx="12.5" ry="12.5" style="stroke:#181818;stroke-width:0.5;" width="153.002" x="50.8049" y="488.21"/><text fill="#000000" font-family="sans-serif" font-size="12" lengthAdjust="spacing" textLength="133.002" x="60.8049" y="509.3486">Xem k&#7871;t qu&#7843; c&#7853;p nh&#7853;t</text><polygon fill="#F1F1F1" points="58,331.8701,196.6118,331.8701,208.6118,343.8701,196.6118,355.8701,58,355.8701,46,343.8701,58,331.8701" style="stroke:#181818;stroke-width:0.5;"/><text fill="#000000" font-family="sans-serif" font-size="11" lengthAdjust="spacing" textLength="14.4106" x="131.3059" y="366.0806">C&#243;</text><text fill="#000000" font-family="sans-serif" font-size="11" lengthAdjust="spacing" textLength="138.6118" x="58" y="347.6782">Mu&#7889;n l&#7885;c ho&#7863;c &#273;&#7893;i trang?</text><polygon fill="#F1F1F1" points="127.3059,542.1787,139.3059,554.1787,127.3059,566.1787,115.3059,554.1787,127.3059,542.1787" style="stroke:#181818;stroke-width:0.5;"/><ellipse cx="127.3059" cy="597.1787" fill="none" rx="11" ry="11" style="stroke:#222222;stroke-width:1;"/><ellipse cx="127.3059" cy="597.1787" fill="#222222" rx="6" ry="6" style="stroke:#222222;stroke-width:1;"/><line style="stroke:#000000;stroke-width:1.5;" x1="15" x2="15" y1="50.042" y2="608.1787"/><rect fill="#F1F1F1" height="33.9688" rx="12.5" ry="12.5" style="stroke:#181818;stroke-width:0.5;" width="158.0586" x="229.6118" y="169.9639"/><text fill="#000000" font-family="sans-serif" font-size="12" lengthAdjust="spacing" textLength="138.0586" x="239.6118" y="191.1025">T&#7843;i danh s&#225;ch vi&#7879;c l&#224;m</text><rect fill="#F1F1F1" height="33.9688" rx="12.5" ry="12.5" style="stroke:#181818;stroke-width:0.5;" width="156.7988" x="230.2417" y="223.9326"/><text fill="#000000" font-family="sans-serif" font-size="12" lengthAdjust="spacing" textLength="136.7988" x="240.2417" y="245.0713">S&#7855;p x&#7871;p v&#224; ph&#226;n trang</text><rect fill="#F1F1F1" height="33.9688" rx="12.5" ry="12.5" style="stroke:#181818;stroke-width:0.5;" width="121.4727" x="247.9048" y="434.2412"/><text fill="#000000" font-family="sans-serif" font-size="12" lengthAdjust="spacing" textLength="101.4727" x="257.9048" y="455.3799">T&#7843;i l&#7841;i danh s&#225;ch</text><line style="stroke:#000000;stroke-width:1.5;" x1="223.6118" x2="223.6118" y1="50.042" y2="608.1787"/><line style="stroke:#000000;stroke-width:1.5;" x1="391.6704" x2="391.6704" y1="50.042" y2="608.1787"/><line style="stroke:#181818;stroke-width:1;" x1="127.3059" x2="127.3059" y1="95.9951" y2="115.9951"/><polygon fill="#181818" points="123.3059,105.9951,127.3059,115.9951,131.3059,105.9951,127.3059,109.9951" style="stroke:#181818;stroke-width:1;"/><line style="stroke:#181818;stroke-width:1;" x1="127.3059" x2="127.3059" y1="355.8701" y2="380.2725"/><polygon fill="#181818" points="123.3059,370.2725,127.3059,380.2725,131.3059,370.2725,127.3059,374.2725" style="stroke:#181818;stroke-width:1;"/><line style="stroke:#181818;stroke-width:1;" x1="46" x2="34" y1="343.8701" y2="343.8701"/><polygon fill="#181818" points="30,441.2256,34,451.2256,38,441.2256,34,445.2256" style="stroke:#181818;stroke-width:1;"/><line style="stroke:#181818;stroke-width:1;" x1="34" x2="34" y1="343.8701" y2="554.1787"/><line style="stroke:#181818;stroke-width:1;" x1="34" x2="115.3059" y1="554.1787" y2="554.1787"/><polygon fill="#181818" points="105.3059,550.1787,115.3059,554.1787,105.3059,558.1787,109.3059,554.1787" style="stroke:#181818;stroke-width:1;"/><line style="stroke:#181818;stroke-width:1;" x1="127.3059" x2="127.3059" y1="522.1787" y2="542.1787"/><polygon fill="#181818" points="123.3059,532.1787,127.3059,542.1787,131.3059,532.1787,127.3059,536.1787" style="stroke:#181818;stroke-width:1;"/><line style="stroke:#181818;stroke-width:1;" x1="127.3059" x2="127.3059" y1="311.8701" y2="331.8701"/><polygon fill="#181818" points="123.3059,321.8701,127.3059,331.8701,131.3059,321.8701,127.3059,325.8701" style="stroke:#181818;stroke-width:1;"/><line style="stroke:#181818;stroke-width:1;" x1="127.3059" x2="127.3059" y1="566.1787" y2="586.1787"/><polygon fill="#181818" points="123.3059,576.1787,127.3059,586.1787,131.3059,576.1787,127.3059,580.1787" style="stroke:#181818;stroke-width:1;"/><line style="stroke:#181818;stroke-width:1;" x1="308.6411" x2="308.6411" y1="203.9326" y2="223.9326"/><polygon fill="#181818" points="304.6411,213.9326,308.6411,223.9326,312.6411,213.9326,308.6411,217.9326" style="stroke:#181818;stroke-width:1;"/><line style="stroke:#181818;stroke-width:1;" x1="127.3059" x2="127.3059" y1="149.9639" y2="154.9639"/><line style="stroke:#181818;stroke-width:1;" x1="127.3059" x2="308.6411" y1="154.9639" y2="154.9639"/><line style="stroke:#181818;stroke-width:1;" x1="308.6411" x2="308.6411" y1="154.9639" y2="169.9639"/><polygon fill="#181818" points="304.6411,159.9639,308.6411,169.9639,312.6411,159.9639,308.6411,163.9639" style="stroke:#181818;stroke-width:1;"/><line style="stroke:#181818;stroke-width:1;" x1="308.6411" x2="308.6411" y1="257.9014" y2="262.9014"/><line style="stroke:#181818;stroke-width:1;" x1="308.6411" x2="127.3059" y1="262.9014" y2="262.9014"/><line style="stroke:#181818;stroke-width:1;" x1="127.3059" x2="127.3059" y1="262.9014" y2="277.9014"/><polygon fill="#181818" points="123.3059,267.9014,127.3059,277.9014,131.3059,267.9014,127.3059,271.9014" style="stroke:#181818;stroke-width:1;"/><line style="stroke:#181818;stroke-width:1;" x1="127.3059" x2="127.3059" y1="414.2412" y2="419.2412"/><line style="stroke:#181818;stroke-width:1;" x1="127.3059" x2="308.6411" y1="419.2412" y2="419.2412"/><line style="stroke:#181818;stroke-width:1;" x1="308.6411" x2="308.6411" y1="419.2412" y2="434.2412"/><polygon fill="#181818" points="304.6411,424.2412,308.6411,434.2412,312.6411,424.2412,308.6411,428.2412" style="stroke:#181818;stroke-width:1;"/><line style="stroke:#181818;stroke-width:1;" x1="308.6411" x2="308.6411" y1="468.21" y2="473.21"/><line style="stroke:#181818;stroke-width:1;" x1="308.6411" x2="127.3059" y1="473.21" y2="473.21"/><line style="stroke:#181818;stroke-width:1;" x1="127.3059" x2="127.3059" y1="473.21" y2="488.21"/><polygon fill="#181818" points="123.3059,478.21,127.3059,488.21,131.3059,478.21,127.3059,482.21" style="stroke:#181818;stroke-width:1;"/><text fill="#000000" font-family="sans-serif" font-size="18" lengthAdjust="spacing" textLength="132.5391" x="53.0364" y="66.75">Kh&#225;ch v&#227;ng lai</text><text fill="#000000" font-family="sans-serif" font-size="18" lengthAdjust="spacing" textLength="82.6436" x="266.3193" y="66.75">H&#7879; th&#7889;ng</text><?plantuml-src TL0lJyD05FVtANvo4mGCfXM86X8o1IJOe-rsbxNNexq1eXurCO4W23Qc2G91qXE8yaNUDzaRPnPWwkMz_Fw-PggDbRKiqIYPLNVQJ32MHPCBfrsHup8vEiO1hl8IcJGAJRzA5Mur-OSKHRyiHNkcmgrVCxUGkXMDaxKJqOZy2rmj-Rn3Y4LxoWkS8hymarP45zIjzHxvM4JdrBrRt5FtPTba2QlwLnDqu__Se_rXOw7768ncMsSKvESfL4NTPuhl1Vb77LHFXXmkDnWa_STG0572KUS6r-IV0kimj2h9F-kO4RyQCILqAgXRxJRxmVvDpFXjvYbNTBYPCHKfTMyMHl5miSXDfiVyrifk0000?></g></svg>