<?plantuml 1.2026.1?><svg xmlns="http://www.w3.org/2000/svg" xmlns:xlink="http://www.w3.org/1999/xlink" contentStyleType="text/css" data-diagram-type="ACTIVITY" height="512px" preserveAspectRatio="none" style="width:527px;height:512px;background:#FFFFFF;" version="1.1" viewBox="0 0 527 512" width="527px" zoomAndPan="magnify"><title>UC06 - Xem chi ti&#7871;t tin tuy&#7875;n d&#7909;ng</title><defs/><g><g class="title" data-source-line="2"><text fill="#000000" font-family="sans-serif" font-size="14" font-weight="bold" lengthAdjust="spacing" textLength="273.3555" x="125.4666" y="32.9951">UC06 - Xem chi ti&#7871;t tin tuy&#7875;n d&#7909;ng</text></g><rect fill="none" height="20.9531" style="stroke:none;stroke-width:1;" width="494.2886" x="15" y="50.042"/><ellipse cx="153.5371" cy="85.9951" fill="#222222" rx="10" ry="10" style="stroke:#222222;stroke-width:1;"/><rect fill="#F1F1F1" height="33.9688" rx="12.5" ry="12.5" style="stroke:#181818;stroke-width:0.5;" width="170.416" x="68.3291" y="115.9951"/><text fill="#000000" font-family="sans-serif" font-size="12" lengthAdjust="spacing" textLength="150.416" x="78.3291" y="137.1338">Ch&#7885;n m&#7897;t tin tuy&#7875;n d&#7909;ng</text><rect fill="#F1F1F1" height="33.9688" rx="12.5" ry="12.5" style="stroke:#181818;stroke-width:0.5;" width="265.0742" x="21" y="277.9014"/><text fill="#000000" font-family="sans-serif" font-size="12" lengthAdjust="spacing" textLength="245.0742" x="31" y="299.04">Xem m&#244; t&#7843; c&#244;ng vi&#7879;c, y&#234;u c&#7847;u, quy&#7873;n l&#7907;i</text><rect fill="#F1F1F1" height="33.9688" rx="12.5" ry="12.5" style="stroke:#181818;stroke-width:0.5;" width="161.9258" x="72.5742" y="380.2725"/><text fill="#000000" font-family="sans-serif" font-size="12" lengthAdjust="spacing" textLength="141.9258" x="82.5742" y="401.4111">Ch&#7885;n thao t&#225;c ti&#7871;p theo</text><polygon fill="#F1F1F1" points="86.5381,331.8701,220.5361,331.8701,232.5361,343.8701,220.5361,355.8701,86.5381,355.8701,74.5381,343.8701,86.5381,331.8701" style="stroke:#181818;stroke-width:0.5;"/><text fill="#000000" font-family="sans-serif" font-size="11" lengthAdjust="spacing" textLength="14.4106" x="157.5371" y="366.0806">C&#243;</text><text fill="#000000" font-family="sans-serif" font-size="11" lengthAdjust="spacing" textLength="133.998" x="86.5381" y="347.6782">Mu&#7889;n &#7913;ng tuy&#7875;n/l&#432;u tin?</text><polygon fill="#F1F1F1" points="153.5371,434.2412,165.5371,446.2412,153.5371,458.2412,141.5371,446.2412,153.5371,434.2412" style="stroke:#181818;stroke-width:0.5;"/><ellipse cx="153.5371" cy="489.2412" fill="none" rx="11" ry="11" style="stroke:#222222;stroke-width:1;"/><ellipse cx="153.5371" cy="489.2412" fill="#222222" rx="6" ry="6" style="stroke:#222222;stroke-width:1;"/><line style="stroke:#000000;stroke-width:1.5;" x1="15" x2="15" y1="50.042" y2="500.2412"/><rect fill="#F1F1F1" height="33.9688" rx="12.5" ry="12.5" style="stroke:#181818;stroke-width:0.5;" width="105.8926" x="346.8047" y="169.9639"/><text fill="#000000" font-family="sans-serif" font-size="12" lengthAdjust="spacing" textLength="85.8926" x="356.8047" y="191.1025">L&#7845;y chi ti&#7871;t tin</text><rect fill="#F1F1F1" height="33.9688" rx="12.5" ry="12.5" style="stroke:#181818;stroke-width:0.5;" width="207.3535" x="296.0742" y="223.9326"/><text fill="#000000" font-family="sans-serif" font-size="12" lengthAdjust="spacing" textLength="187.3535" x="306.0742" y="245.0713">L&#7845;y th&#244;ng tin c&#244;ng ty li&#234;n quan</text><line style="stroke:#000000;stroke-width:1.5;" x1="290.0742" x2="290.0742" y1="50.042" y2="500.2412"/><line style="stroke:#000000;stroke-width:1.5;" x1="507.4277" x2="507.4277" y1="50.042" y2="500.2412"/><line style="stroke:#181818;stroke-width:1;" x1="153.5371" x2="153.5371" y1="95.9951" y2="115.9951"/><polygon fill="#181818" points="149.5371,105.9951,153.5371,115.9951,157.5371,105.9951,153.5371,109.9951" style="stroke:#181818;stroke-width:1;"/><line style="stroke:#181818;stroke-width:1;" x1="153.5371" x2="153.5371" y1="355.8701" y2="380.2725"/><polygon fill="#181818" points="149.5371,370.2725,153.5371,380.2725,157.5371,370.2725,153.5371,374.2725" style="stroke:#181818;stroke-width:1;"/><line style="stroke:#181818;stroke-width:1;" x1="232.5361" x2="244.5361" y1="343.8701" y2="343.8701"/><polygon fill="#181818" points="240.5361,387.2568,244.5361,397.2568,248.5361,387.2568,244.5361,391.2568" style="stroke:#181818;stroke-width:1;"/><line style="stroke:#181818;stroke-width:1;" x1="244.5361" x2="244.5361" y1="343.8701" y2="446.2412"/><line style="stroke:#181818;stroke-width:1;" x1="244.5361" x2="165.5371" y1="446.2412" y2="446.2412"/><polygon fill="#181818" points="175.5371,442.2412,165.5371,446.2412,175.5371,450.2412,171.5371,446.2412" style="stroke:#181818;stroke-width:1;"/><line style="stroke:#181818;stroke-width:1;" x1="153.5371" x2="153.5371" y1="414.2412" y2="434.2412"/><polygon fill="#181818" points="149.5371,424.2412,153.5371,434.2412,157.5371,424.2412,153.5371,428.2412" style="stroke:#181818;stroke-width:1;"/><line style="stroke:#181818;stroke-width:1;" x1="153.5371" x2="153.5371" y1="311.8701" y2="331.8701"/><polygon fill="#181818" points="149.5371,321.8701,153.5371,331.8701,157.5371,321.8701,153.5371,325.8701" style="stroke:#181818;stroke-width:1;"/><line style="stroke:#181818;stroke-width:1;" x1="153.5371" x2="153.5371" y1="458.2412" y2="478.2412"/><polygon fill="#181818" points="149.5371,468.2412,153.5371,478.2412,157.5371,468.2412,153.5371,472.2412" style="stroke:#181818;stroke-width:1;"/><line style="stroke:#181818;stroke-width:1;" x1="399.751" x2="399.751" y1="203.9326" y2="223.9326"/><polygon fill="#181818" points="395.751,213.9326,399.751,223.9326,403.751,213.9326,399.751,217.9326" style="stroke:#181818;stroke-width:1;"/><line style="stroke:#181818;stroke-width:1;" x1="153.5371" x2="153.5371" y1="149.9639" y2="154.9639"/><line style="stroke:#181818;stroke-width:1;" x1="153.5371" x2="399.751" y1="154.9639" y2="154.9639"/><line style="stroke:#181818;stroke-width:1;" x1="399.751" x2="399.751" y1="154.9639" y2="169.9639"/><polygon fill="#181818" points="395.751,159.9639,399.751,169.9639,403.751,159.9639,399.751,163.9639" style="stroke:#181818;stroke-width:1;"/><line style="stroke:#181818;stroke-width:1;" x1="399.751" x2="399.751" y1="257.9014" y2="262.9014"/><line style="stroke:#181818;stroke-width:1;" x1="399.751" x2="153.5371" y1="262.9014" y2="262.9014"/><line style="stroke:#181818;stroke-width:1;" x1="153.5371" x2="153.5371" y1="262.9014" y2="277.9014"/><polygon fill="#181818" points="149.5371,267.9014,153.5371,277.9014,157.5371,267.9014,153.5371,271.9014" style="stroke:#181818;stroke-width:1;"/><text fill="#000000" font-family="sans-serif" font-size="18" lengthAdjust="spacing" textLength="132.5391" x="86.2676" y="66.75">Kh&#225;ch v&#227;ng lai</text><text fill="#000000" font-family="sans-serif" font-size="18" lengthAdjust="spacing" textLength="82.6436" x="357.4292" y="66.75">H&#7879; th&#7889;ng</text><?plantuml-src RP0nIyH048Nx_HMll8CJhIoImYADe9Q2xPBaiekRJRpCdWJIY8MLXQMbX4EyIl2gR66nuF_OV-A6U8rSDSFmvhrlfhcLkkOhNg8HFAlkfIwmvAh96KbIEQwJarCSuIOlaGe9adxufb0qoBJUFcfatcvqmReBuTvIWRNhWuNYicCDyHMnA17UFckKthuUsenPT-xj4oZ8NdJHiUZI3vlsNroy7vDmkn0m-gHJrq99jzMuCpp83d148ttfTY0_z7zRQnaoqmLQjpL8_V1k5i4WS3reA6zx6JEvnEpAZ53mzcDCchYFrS-d6G7Eve4crvWbxclEWFsb97W52XGJVpsggfZbEfFBy9Ig_WK0?></g></svg>