<?plantuml 1.2026.1?><svg xmlns="http://www.w3.org/2000/svg" xmlns:xlink="http://www.w3.org/1999/xlink" contentStyleType="text/css" data-diagram-type="ACTIVITY" height="458px" preserveAspectRatio="none" style="width:496px;height:458px;background:#FFFFFF;" version="1.1" viewBox="0 0 496 458" width="496px" zoomAndPan="magnify"><title>UC07 - Xem m&#7851;u CV</title><defs/><g><g class="title" data-source-line="2"><text fill="#000000" font-family="sans-serif" font-size="14" font-weight="bold" lengthAdjust="spacing" textLength="156.4199" x="168.3357" y="32.9951">UC07 - Xem m&#7851;u CV</text></g><rect fill="none" height="20.9531" style="stroke:none;stroke-width:1;" width="463.0913" x="15" y="50.042"/><ellipse cx="136.542" cy="85.9951" fill="#222222" rx="10" ry="10" style="stroke:#222222;stroke-width:1;"/><rect fill="#F1F1F1" height="33.9688" rx="12.5" ry="12.5" style="stroke:#181818;stroke-width:0.5;" width="141.5293" x="65.7773" y="115.9951"/><text fill="#000000" font-family="sans-serif" font-size="12" lengthAdjust="spacing" textLength="121.5293" x="75.7773" y="137.1338">M&#7903; th&#432; vi&#7879;n m&#7851;u CV</text><rect fill="#F1F1F1" height="33.9688" rx="12.5" ry="12.5" style="stroke:#181818;stroke-width:0.5;" width="160.4844" x="56.2998" y="223.9326"/><text fill="#000000" font-family="sans-serif" font-size="12" lengthAdjust="spacing" textLength="140.4844" x="66.2998" y="245.0713">Xem preview t&#7915;ng m&#7851;u</text><rect fill="#F1F1F1" height="33.9688" rx="12.5" ry="12.5" style="stroke:#181818;stroke-width:0.5;" width="231.084" x="21" y="326.3037"/><text fill="#000000" font-family="sans-serif" font-size="12" lengthAdjust="spacing" textLength="211.084" x="31" y="347.4424">L&#432;u l&#7841;i m&#7851;u mu&#7889;n s&#7917; d&#7909;ng sau n&#224;y</text><polygon fill="#F1F1F1" points="76.8423,277.9014,196.2417,277.9014,208.2417,289.9014,196.2417,301.9014,76.8423,301.9014,64.8423,289.9014,76.8423,277.9014" style="stroke:#181818;stroke-width:0.5;"/><text fill="#000000" font-family="sans-serif" font-size="11" lengthAdjust="spacing" textLength="14.4106" x="140.542" y="312.1118">C&#243;</text><text fill="#000000" font-family="sans-serif" font-size="11" lengthAdjust="spacing" textLength="119.3994" x="76.8423" y="293.7095">Mu&#7889;n ch&#7885;n m&#7897;t m&#7851;u?</text><polygon fill="#F1F1F1" points="136.542,380.2725,148.542,392.2725,136.542,404.2725,124.542,392.2725,136.542,380.2725" style="stroke:#181818;stroke-width:0.5;"/><ellipse cx="136.542" cy="435.2725" fill="none" rx="11" ry="11" style="stroke:#222222;stroke-width:1;"/><ellipse cx="136.542" cy="435.2725" fill="#222222" rx="6" ry="6" style="stroke:#222222;stroke-width:1;"/><line style="stroke:#000000;stroke-width:1.5;" x1="15" x2="15" y1="50.042" y2="446.2725"/><rect fill="#F1F1F1" height="33.9688" rx="12.5" ry="12.5" style="stroke:#181818;stroke-width:0.5;" width="185.1465" x="287.084" y="169.9639"/><text fill="#000000" font-family="sans-serif" font-size="12" lengthAdjust="spacing" textLength="165.1465" x="297.084" y="191.1025">L&#7845;y danh s&#225;ch template CV</text><line style="stroke:#000000;stroke-width:1.5;" x1="281.084" x2="281.084" y1="50.042" y2="446.2725"/><line style="stroke:#000000;stroke-width:1.5;" x1="476.2305" x2="476.2305" y1="50.042" y2="446.2725"/><line style="stroke:#181818;stroke-width:1;" x1="136.542" x2="136.542" y1="95.9951" y2="115.9951"/><polygon fill="#181818" points="132.542,105.9951,136.542,115.9951,140.542,105.9951,136.542,109.9951" style="stroke:#181818;stroke-width:1;"/><line style="stroke:#181818;stroke-width:1;" x1="136.542" x2="136.542" y1="301.9014" y2="326.3037"/><polygon fill="#181818" points="132.542,316.3037,136.542,326.3037,140.542,316.3037,136.542,320.3037" style="stroke:#181818;stroke-width:1;"/><line style="stroke:#181818;stroke-width:1;" x1="208.2417" x2="262.084" y1="289.9014" y2="289.9014"/><polygon fill="#181818" points="258.084,333.2881,262.084,343.2881,266.084,333.2881,262.084,337.2881" style="stroke:#181818;stroke-width:1;"/><line style="stroke:#181818;stroke-width:1;" x1="262.084" x2="262.084" y1="289.9014" y2="392.2725"/><line style="stroke:#181818;stroke-width:1;" x1="262.084" x2="148.542" y1="392.2725" y2="392.2725"/><polygon fill="#181818" points="158.542,388.2725,148.542,392.2725,158.542,396.2725,154.542,392.2725" style="stroke:#181818;stroke-width:1;"/><line style="stroke:#181818;stroke-width:1;" x1="136.542" x2="136.542" y1="360.2725" y2="380.2725"/><polygon fill="#181818" points="132.542,370.2725,136.542,380.2725,140.542,370.2725,136.542,374.2725" style="stroke:#181818;stroke-width:1;"/><line style="stroke:#181818;stroke-width:1;" x1="136.542" x2="136.542" y1="257.9014" y2="277.9014"/><polygon fill="#181818" points="132.542,267.9014,136.542,277.9014,140.542,267.9014,136.542,271.9014" style="stroke:#181818;stroke-width:1;"/><line style="stroke:#181818;stroke-width:1;" x1="136.542" x2="136.542" y1="404.2725" y2="424.2725"/><polygon fill="#181818" points="132.542,414.2725,136.542,424.2725,140.542,414.2725,136.542,418.2725" style="stroke:#181818;stroke-width:1;"/><line style="stroke:#181818;stroke-width:1;" x1="136.542" x2="136.542" y1="149.9639" y2="154.9639"/><line style="stroke:#181818;stroke-width:1;" x1="136.542" x2="379.6572" y1="154.9639" y2="154.9639"/><line style="stroke:#181818;stroke-width:1;" x1="379.6572" x2="379.6572" y1="154.9639" y2="169.9639"/><polygon fill="#181818" points="375.6572,159.9639,379.6572,169.9639,383.6572,159.9639,379.6572,163.9639" style="stroke:#181818;stroke-width:1;"/><line style="stroke:#181818;stroke-width:1;" x1="379.6572" x2="379.6572" y1="203.9326" y2="208.9326"/><line style="stroke:#181818;stroke-width:1;" x1="379.6572" x2="136.542" y1="208.9326" y2="208.9326"/><line style="stroke:#181818;stroke-width:1;" x1="136.542" x2="136.542" y1="208.9326" y2="223.9326"/><polygon fill="#181818" points="132.542,213.9326,136.542,223.9326,140.542,213.9326,136.542,217.9326" style="stroke:#181818;stroke-width:1;"/><text fill="#000000" font-family="sans-serif" font-size="18" lengthAdjust="spacing" textLength="132.5391" x="81.7725" y="66.75">Kh&#225;ch v&#227;ng lai</text><text fill="#000000" font-family="sans-serif" font-size="18" lengthAdjust="spacing" textLength="82.6436" x="337.3354" y="66.75">H&#7879; th&#7889;ng</text><?plantuml-src POynQyCm58Ht_OeRaw7GhM0F7RmKcemjNKKiHuzAYh5aXu3tJ1awTcf3oHGAWMxMQCZ_q3-f79SiNT_TVNVFlf8fUSKrhEJvQarcYO8hAvWZfmIUijixtE15QEZG7MjapwnzbFr-8T7qNz6jEBNCEbuvbio3_u2JvnCQ2dvhhfcKjG_n4BNWtyooPSaiT8SDScuax8NcX2uLTs9q_wz8XWrb9HeIQxZWZr6uu5D61IRpUY1Z4GjsGwz_TwDyFusjmc2IzJzJ1YIpywc62jsU_kRfCMg3_qOU_262BQzX-izDoeJ9gOZ_hSfV?></g></svg>