<?plantuml 1.2026.1?><svg xmlns="http://www.w3.org/2000/svg" xmlns:xlink="http://www.w3.org/1999/xlink" contentStyleType="text/css" data-diagram-type="ACTIVITY" height="701px" preserveAspectRatio="none" style="width:851px;height:701px;background:#FFFFFF;" version="1.1" viewBox="0 0 851 701" width="851px" zoomAndPan="magnify"><title>UC09 - C&#7853;p nh&#7853;t h&#7891; s&#417; &#7913;ng vi&#234;n</title><defs/><g><g class="title" data-source-line="2"><text fill="#000000" font-family="sans-serif" font-size="14" font-weight="bold" lengthAdjust="spacing" textLength="247.748" x="300.4535" y="32.9951">UC09 - C&#7853;p nh&#7853;t h&#7891; s&#417; &#7913;ng vi&#234;n</text></g><rect fill="none" height="20.9531" style="stroke:none;stroke-width:1;" width="818.655" x="15" y="50.042"/><ellipse cx="318.5483" cy="85.9951" fill="#222222" rx="10" ry="10" style="stroke:#222222;stroke-width:1;"/><rect fill="#F1F1F1" height="33.9688" rx="12.5" ry="12.5" style="stroke:#181818;stroke-width:0.5;" width="109.8945" x="263.6011" y="115.9951"/><text fill="#000000" font-family="sans-serif" font-size="12" lengthAdjust="spacing" textLength="89.8945" x="273.6011" y="137.1338">M&#7903; trang h&#7891; s&#417;</text><rect fill="#F1F1F1" height="33.9688" rx="12.5" ry="12.5" style="stroke:#181818;stroke-width:0.5;" width="290.3223" x="59.4805" y="321.9014"/><text fill="#000000" font-family="sans-serif" font-size="12" lengthAdjust="spacing" textLength="270.3223" x="69.4805" y="343.04">S&#7917;a th&#244;ng tin c&#225; nh&#226;n, k&#7929; n&#259;ng, kinh nghi&#7879;m</text><rect fill="#F1F1F1" height="33.9688" rx="12.5" ry="12.5" style="stroke:#181818;stroke-width:0.5;" width="77.252" x="166.0156" y="375.8701"/><text fill="#000000" font-family="sans-serif" font-size="12" lengthAdjust="spacing" textLength="57.252" x="176.0156" y="397.0088">Nh&#7853;n L&#432;u</text><rect fill="#F1F1F1" height="33.9688" rx="12.5" ry="12.5" style="stroke:#181818;stroke-width:0.5;" width="188.0234" x="21" y="581.7764"/><text fill="#000000" font-family="sans-serif" font-size="12" lengthAdjust="spacing" textLength="168.0234" x="31" y="602.915">Nh&#7853;n th&#244;ng b&#225;o th&#224;nh c&#244;ng</text><ellipse cx="115.0117" cy="646.7451" fill="none" rx="11" ry="11" style="stroke:#222222;stroke-width:1;"/><ellipse cx="115.0117" cy="646.7451" fill="#222222" rx="6" ry="6" style="stroke:#222222;stroke-width:1;"/><rect fill="#F1F1F1" height="33.9688" rx="12.5" ry="12.5" style="stroke:#181818;stroke-width:0.5;" width="130.4961" x="229.0234" y="527.8076"/><text fill="#000000" font-family="sans-serif" font-size="12" lengthAdjust="spacing" textLength="110.4961" x="239.0234" y="548.9463">Nh&#7853;n l&#7895;i v&#224; s&#7917;a l&#7841;i</text><ellipse cx="294.2715" cy="592.7764" fill="none" rx="11" ry="11" style="stroke:#222222;stroke-width:1;"/><ellipse cx="294.2715" cy="592.7764" fill="#222222" rx="6" ry="6" style="stroke:#222222;stroke-width:1;"/><rect fill="#F1F1F1" height="33.9688" rx="12.5" ry="12.5" style="stroke:#181818;stroke-width:0.5;" width="85.8711" x="383.4956" y="267.9326"/><text fill="#000000" font-family="sans-serif" font-size="12" lengthAdjust="spacing" textLength="65.8711" x="393.4956" y="289.0713">&#272;&#259;ng nh&#7853;p</text><ellipse cx="426.4312" cy="332.9014" fill="none" rx="11" ry="11" style="stroke:#222222;stroke-width:1;"/><ellipse cx="426.4312" cy="332.9014" fill="#222222" rx="6" ry="6" style="stroke:#222222;stroke-width:1;"/><line style="stroke:#000000;stroke-width:1.5;" x1="15" x2="15" y1="50.042" y2="689.7451"/><rect fill="#F1F1F1" height="33.9688" rx="12.5" ry="12.5" style="stroke:#181818;stroke-width:0.5;" width="139.0859" x="668.6621" y="169.9639"/><text fill="#000000" font-family="sans-serif" font-size="12" lengthAdjust="spacing" textLength="119.0859" x="678.6621" y="191.1025">Ki&#7875;m tra &#273;&#259;ng nh&#7853;p</text><polygon fill="#F1F1F1" points="696.4851,223.9326,779.925,223.9326,791.925,235.9326,779.925,247.9326,696.4851,247.9326,684.4851,235.9326,696.4851,223.9326" style="stroke:#181818;stroke-width:0.5;"/><text fill="#000000" font-family="sans-serif" font-size="11" lengthAdjust="spacing" textLength="83.4399" x="696.4851" y="239.7407">&#272;&#227; &#273;&#259;ng nh&#7853;p?</text><text fill="#000000" font-family="sans-serif" font-size="11" lengthAdjust="spacing" textLength="14.4106" x="670.0745" y="233.3384">C&#243;</text><text fill="#000000" font-family="sans-serif" font-size="11" lengthAdjust="spacing" textLength="34.8691" x="791.925" y="233.3384">Kh&#244;ng</text><rect fill="#F1F1F1" height="33.9688" rx="12.5" ry="12.5" style="stroke:#181818;stroke-width:0.5;" width="123.1367" x="562.73" y="267.9326"/><text fill="#000000" font-family="sans-serif" font-size="12" lengthAdjust="spacing" textLength="103.1367" x="572.73" y="289.0713">T&#7843;i h&#7891; s&#417; hi&#7879;n t&#7841;i</text><rect fill="#F1F1F1" height="33.9688" rx="12.5" ry="12.5" style="stroke:#181818;stroke-width:0.5;" width="115.5898" x="566.5034" y="429.8389"/><text fill="#000000" font-family="sans-serif" font-size="12" lengthAdjust="spacing" textLength="95.5898" x="576.5034" y="450.9775">Ki&#7875;m tra d&#7919; li&#7879;u</text><polygon fill="#F1F1F1" points="603.7271,483.8076,644.8696,483.8076,656.8696,495.8076,644.8696,507.8076,603.7271,507.8076,591.7271,495.8076,603.7271,483.8076" style="stroke:#181818;stroke-width:0.5;"/><text fill="#000000" font-family="sans-serif" font-size="11" lengthAdjust="spacing" textLength="41.1426" x="603.7271" y="499.6157">H&#7907;p l&#7879;?</text><text fill="#000000" font-family="sans-serif" font-size="11" lengthAdjust="spacing" textLength="14.4106" x="577.3164" y="493.2134">C&#243;</text><text fill="#000000" font-family="sans-serif" font-size="11" lengthAdjust="spacing" textLength="34.8691" x="656.8696" y="493.2134">Kh&#244;ng</text><rect fill="#F1F1F1" height="33.9688" rx="12.5" ry="12.5" style="stroke:#181818;stroke-width:0.5;" width="110.6035" x="479.3667" y="527.8076"/><text fill="#000000" font-family="sans-serif" font-size="12" lengthAdjust="spacing" textLength="90.6035" x="489.3667" y="548.9463">C&#7853;p nh&#7853;t h&#7891; s&#417;</text><line style="stroke:#000000;stroke-width:1.5;" x1="473.3667" x2="473.3667" y1="50.042" y2="689.7451"/><line style="stroke:#000000;stroke-width:1.5;" x1="831.7942" x2="831.7942" y1="50.042" y2="689.7451"/><line style="stroke:#181818;stroke-width:1;" x1="318.5483" x2="318.5483" y1="95.9951" y2="115.9951"/><polygon fill="#181818" points="314.5483,105.9951,318.5483,115.9951,322.5483,105.9951,318.5483,109.9951" style="stroke:#181818;stroke-width:1;"/><line style="stroke:#181818;stroke-width:1;" x1="204.6416" x2="204.6416" y1="355.8701" y2="375.8701"/><polygon fill="#181818" points="200.6416,365.8701,204.6416,375.8701,208.6416,365.8701,204.6416,369.8701" style="stroke:#181818;stroke-width:1;"/><line style="stroke:#181818;stroke-width:1;" x1="115.0117" x2="115.0117" y1="615.7451" y2="635.7451"/><polygon fill="#181818" points="111.0117,625.7451,115.0117,635.7451,119.0117,625.7451,115.0117,629.7451" style="stroke:#181818;stroke-width:1;"/><line style="stroke:#181818;stroke-width:1;" x1="294.2715" x2="294.2715" y1="561.7764" y2="581.7764"/><polygon fill="#181818" points="290.2715,571.7764,294.2715,581.7764,298.2715,571.7764,294.2715,575.7764" style="stroke:#181818;stroke-width:1;"/><line style="stroke:#181818;stroke-width:1;" x1="426.4312" x2="426.4312" y1="301.9014" y2="321.9014"/><polygon fill="#181818" points="422.4312,311.9014,426.4312,321.9014,430.4312,311.9014,426.4312,315.9014" style="stroke:#181818;stroke-width:1;"/><line style="stroke:#181818;stroke-width:1;" x1="591.7271" x2="534.6685" y1="495.8076" y2="495.8076"/><line style="stroke:#181818;stroke-width:1;" x1="534.6685" x2="534.6685" y1="495.8076" y2="527.8076"/><polygon fill="#181818" points="530.6685,517.8076,534.6685,527.8076,538.6685,517.8076,534.6685,521.8076" style="stroke:#181818;stroke-width:1;"/><line style="stroke:#181818;stroke-width:1;" x1="624.2983" x2="624.2983" y1="463.8076" y2="483.8076"/><polygon fill="#181818" points="620.2983,473.8076,624.2983,483.8076,628.2983,473.8076,624.2983,477.8076" style="stroke:#181818;stroke-width:1;"/><line style="stroke:#181818;stroke-width:1;" x1="684.4851" x2="624.2983" y1="235.9326" y2="235.9326"/><line style="stroke:#181818;stroke-width:1;" x1="624.2983" x2="624.2983" y1="235.9326" y2="267.9326"/><polygon fill="#181818" points="620.2983,257.9326,624.2983,267.9326,628.2983,257.9326,624.2983,261.9326" style="stroke:#181818;stroke-width:1;"/><line style="stroke:#181818;stroke-width:1;" x1="738.2051" x2="738.2051" y1="203.9326" y2="223.9326"/><polygon fill="#181818" points="734.2051,213.9326,738.2051,223.9326,742.2051,213.9326,738.2051,217.9326" style="stroke:#181818;stroke-width:1;"/><line style="stroke:#181818;stroke-width:1;" x1="318.5483" x2="318.5483" y1="149.9639" y2="154.9639"/><line style="stroke:#181818;stroke-width:1;" x1="318.5483" x2="738.2051" y1="154.9639" y2="154.9639"/><line style="stroke:#181818;stroke-width:1;" x1="738.2051" x2="738.2051" y1="154.9639" y2="169.9639"/><polygon fill="#181818" points="734.2051,159.9639,738.2051,169.9639,742.2051,159.9639,738.2051,163.9639" style="stroke:#181818;stroke-width:1;"/><line style="stroke:#181818;stroke-width:1;" x1="624.2983" x2="624.2983" y1="301.9014" y2="306.9014"/><line style="stroke:#181818;stroke-width:1;" x1="624.2983" x2="204.6416" y1="306.9014" y2="306.9014"/><line style="stroke:#181818;stroke-width:1;" x1="204.6416" x2="204.6416" y1="306.9014" y2="321.9014"/><polygon fill="#181818" points="200.6416,311.9014,204.6416,321.9014,208.6416,311.9014,204.6416,315.9014" style="stroke:#181818;stroke-width:1;"/><line style="stroke:#181818;stroke-width:1;" x1="204.6416" x2="204.6416" y1="409.8389" y2="414.8389"/><line style="stroke:#181818;stroke-width:1;" x1="204.6416" x2="624.2983" y1="414.8389" y2="414.8389"/><line style="stroke:#181818;stroke-width:1;" x1="624.2983" x2="624.2983" y1="414.8389" y2="429.8389"/><polygon fill="#181818" points="620.2983,419.8389,624.2983,429.8389,628.2983,419.8389,624.2983,423.8389" style="stroke:#181818;stroke-width:1;"/><line style="stroke:#181818;stroke-width:1;" x1="534.6685" x2="534.6685" y1="561.7764" y2="566.7764"/><line style="stroke:#181818;stroke-width:1;" x1="534.6685" x2="115.0117" y1="566.7764" y2="566.7764"/><line style="stroke:#181818;stroke-width:1;" x1="115.0117" x2="115.0117" y1="566.7764" y2="581.7764"/><polygon fill="#181818" points="111.0117,571.7764,115.0117,581.7764,119.0117,571.7764,115.0117,575.7764" style="stroke:#181818;stroke-width:1;"/><line style="stroke:#181818;stroke-width:1;" x1="656.8696" x2="668.8696" y1="495.8076" y2="495.8076"/><line style="stroke:#181818;stroke-width:1;" x1="668.8696" x2="668.8696" y1="495.8076" y2="513.8076"/><line style="stroke:#181818;stroke-width:1;" x1="668.8696" x2="294.2715" y1="513.8076" y2="513.8076"/><line style="stroke:#181818;stroke-width:1;" x1="294.2715" x2="294.2715" y1="513.8076" y2="527.8076"/><polygon fill="#181818" points="290.2715,517.8076,294.2715,527.8076,298.2715,517.8076,294.2715,521.8076" style="stroke:#181818;stroke-width:1;"/><line style="stroke:#181818;stroke-width:1;" x1="791.925" x2="803.925" y1="235.9326" y2="235.9326"/><line style="stroke:#181818;stroke-width:1;" x1="803.925" x2="803.925" y1="235.9326" y2="253.9326"/><line style="stroke:#181818;stroke-width:1;" x1="803.925" x2="426.4312" y1="253.9326" y2="253.9326"/><line style="stroke:#181818;stroke-width:1;" x1="426.4312" x2="426.4312" y1="253.9326" y2="267.9326"/><polygon fill="#181818" points="422.4312,257.9326,426.4312,267.9326,430.4312,257.9326,426.4312,261.9326" style="stroke:#181818;stroke-width:1;"/><text fill="#000000" font-family="sans-serif" font-size="18" lengthAdjust="spacing" textLength="82.1338" x="203.1165" y="66.75">&#7912;ng vi&#234;n</text><text fill="#000000" font-family="sans-serif" font-size="18" lengthAdjust="spacing" textLength="82.6436" x="611.2587" y="66.75">H&#7879; th&#7889;ng</text><?plantuml-src XL6nJW914EttAwQ4H1DRxmeB6XF4Hls05GvkmzrmOLTihgEWXLXOoacZ9aGJRMJBlV0V-oVEhX0yDB7QsPdtthutA_i2CpxaASYOTmQt0dlGvOcCc18gYU2gSNGCXz2mgsK66DEX8BRw3kIw0AkV2JuIvWLPRlNJzf8pgVXGiQ1bzGEe8QV1bXIo_DJg2IXgpB2Niw0fh1wd3WRbh1mJrh-JXKnqeLPEpQBQFwaJEKAeDSnxdG44btQr43jNCUbD49HT5IAaUTKPuI-iNdBIC1_KLWAXRGhIDezu07shFm7TQrGBZ05xNYzrIi6vCu1mjdwxyShL90JuaQLZzIiaZkknBWl15naarDhFGDG_LnpwsNw2dPDDY6jJ35mz9yDjr_dcIJN8g8ZeEw7MzD3wFu9axbx0oCn1-YqbsotkrB0ZkcnVyzUIosdbApTqJ_u2?></g></svg>