<?plantuml 1.2026.1?><svg xmlns="http://www.w3.org/2000/svg" xmlns:xlink="http://www.w3.org/1999/xlink" contentStyleType="text/css" data-diagram-type="ACTIVITY" height="620px" preserveAspectRatio="none" style="width:518px;height:620px;background:#FFFFFF;" version="1.1" viewBox="0 0 518 620" width="518px" zoomAndPan="magnify"><title>UC10 - Qu&#7843;n l&#253; CV</title><defs/><g><g class="title" data-source-line="2"><text fill="#000000" font-family="sans-serif" font-size="14" font-weight="bold" lengthAdjust="spacing" textLength="142.748" x="186.1563" y="32.9951">UC10 - Qu&#7843;n l&#253; CV</text></g><rect fill="none" height="20.9531" style="stroke:none;stroke-width:1;" width="485.0605" x="15" y="50.042"/><ellipse cx="145.9785" cy="85.9951" fill="#222222" rx="10" ry="10" style="stroke:#222222;stroke-width:1;"/><rect fill="#F1F1F1" height="33.9688" rx="12.5" ry="12.5" style="stroke:#181818;stroke-width:0.5;" width="142.373" x="74.792" y="115.9951"/><text fill="#000000" font-family="sans-serif" font-size="12" lengthAdjust="spacing" textLength="122.373" x="84.792" y="137.1338">M&#7903; trang qu&#7843;n l&#253; CV</text><rect fill="#F1F1F1" height="33.9688" rx="12.5" ry="12.5" style="stroke:#181818;stroke-width:0.5;" width="249.957" x="21" y="277.9014"/><text fill="#000000" font-family="sans-serif" font-size="12" lengthAdjust="spacing" textLength="229.957" x="31" y="299.04">Ch&#7885;n t&#7841;o m&#7899;i/ch&#7881;nh s&#7917;a/t&#7843;i l&#234;n/x&#243;a CV</text><rect fill="#F1F1F1" height="33.9688" rx="12.5" ry="12.5" style="stroke:#181818;stroke-width:0.5;" width="243.2715" x="24.3428" y="532.21"/><text fill="#000000" font-family="sans-serif" font-size="12" lengthAdjust="spacing" textLength="223.2715" x="34.3428" y="553.3486">Nh&#7853;n k&#7871;t qu&#7843; c&#7853;p nh&#7853;t danh s&#225;ch CV</text><ellipse cx="145.9785" cy="597.1787" fill="none" rx="11" ry="11" style="stroke:#222222;stroke-width:1;"/><ellipse cx="145.9785" cy="597.1787" fill="#222222" rx="6" ry="6" style="stroke:#222222;stroke-width:1;"/><line style="stroke:#000000;stroke-width:1.5;" x1="15" x2="15" y1="50.042" y2="608.1787"/><rect fill="#F1F1F1" height="33.9688" rx="12.5" ry="12.5" style="stroke:#181818;stroke-width:0.5;" width="139.0859" x="309.0354" y="169.9639"/><text fill="#000000" font-family="sans-serif" font-size="12" lengthAdjust="spacing" textLength="119.0859" x="319.0354" y="191.1025">Ki&#7875;m tra &#273;&#259;ng nh&#7853;p</text><rect fill="#F1F1F1" height="33.9688" rx="12.5" ry="12.5" style="stroke:#181818;stroke-width:0.5;" width="171.5352" x="292.8108" y="223.9326"/><text fill="#000000" font-family="sans-serif" font-size="12" lengthAdjust="spacing" textLength="151.5352" x="302.8108" y="245.0713">T&#7843;i danh s&#225;ch CV hi&#7879;n c&#243;</text><rect fill="#F1F1F1" height="33.9688" rx="12.5" ry="12.5" style="stroke:#181818;stroke-width:0.5;" width="173.2051" x="291.9758" y="380.2725"/><text fill="#000000" font-family="sans-serif" font-size="12" lengthAdjust="spacing" textLength="153.2051" x="301.9758" y="401.4111">T&#7843;i t&#7879;p CV l&#234;n kho l&#432;u tr&#7919;</text><polygon fill="#F1F1F1" points="301.957,331.8701,455.1997,331.8701,467.1997,343.8701,455.1997,355.8701,301.957,355.8701,289.957,343.8701,301.957,331.8701" style="stroke:#181818;stroke-width:0.5;"/><text fill="#000000" font-family="sans-serif" font-size="11" lengthAdjust="spacing" textLength="14.4106" x="382.5784" y="366.0806">C&#243;</text><text fill="#000000" font-family="sans-serif" font-size="11" lengthAdjust="spacing" textLength="153.2427" x="301.957" y="347.6782">Thao t&#225;c c&#7847;n t&#7879;p &#273;&#237;nh k&#232;m?</text><polygon fill="#F1F1F1" points="378.5784,434.2412,390.5784,446.2412,378.5784,458.2412,366.5784,446.2412,378.5784,434.2412" style="stroke:#181818;stroke-width:0.5;"/><rect fill="#F1F1F1" height="33.9688" rx="12.5" ry="12.5" style="stroke:#181818;stroke-width:0.5;" width="120.4473" x="318.3547" y="478.2412"/><text fill="#000000" font-family="sans-serif" font-size="12" lengthAdjust="spacing" textLength="100.4473" x="328.3547" y="499.3799">L&#432;u th&#244;ng tin CV</text><line style="stroke:#000000;stroke-width:1.5;" x1="274.957" x2="274.957" y1="50.042" y2="608.1787"/><line style="stroke:#000000;stroke-width:1.5;" x1="498.1997" x2="498.1997" y1="50.042" y2="608.1787"/><line style="stroke:#181818;stroke-width:1;" x1="145.9785" x2="145.9785" y1="95.9951" y2="115.9951"/><polygon fill="#181818" points="141.9785,105.9951,145.9785,115.9951,149.9785,105.9951,145.9785,109.9951" style="stroke:#181818;stroke-width:1;"/><line style="stroke:#181818;stroke-width:1;" x1="145.9785" x2="145.9785" y1="566.1787" y2="586.1787"/><polygon fill="#181818" points="141.9785,576.1787,145.9785,586.1787,149.9785,576.1787,145.9785,580.1787" style="stroke:#181818;stroke-width:1;"/><line style="stroke:#181818;stroke-width:1;" x1="378.5784" x2="378.5784" y1="203.9326" y2="223.9326"/><polygon fill="#181818" points="374.5784,213.9326,378.5784,223.9326,382.5784,213.9326,378.5784,217.9326" style="stroke:#181818;stroke-width:1;"/><line style="stroke:#181818;stroke-width:1;" x1="378.5784" x2="378.5784" y1="355.8701" y2="380.2725"/><polygon fill="#181818" points="374.5784,370.2725,378.5784,380.2725,382.5784,370.2725,378.5784,374.2725" style="stroke:#181818;stroke-width:1;"/><line style="stroke:#181818;stroke-width:1;" x1="467.1997" x2="479.1997" y1="343.8701" y2="343.8701"/><polygon fill="#181818" points="475.1997,387.2568,479.1997,397.2568,483.1997,387.2568,479.1997,391.2568" style="stroke:#181818;stroke-width:1;"/><line style="stroke:#181818;stroke-width:1;" x1="479.1997" x2="479.1997" y1="343.8701" y2="446.2412"/><line style="stroke:#181818;stroke-width:1;" x1="479.1997" x2="390.5784" y1="446.2412" y2="446.2412"/><polygon fill="#181818" points="400.5784,442.2412,390.5784,446.2412,400.5784,450.2412,396.5784,446.2412" style="stroke:#181818;stroke-width:1;"/><line style="stroke:#181818;stroke-width:1;" x1="378.5784" x2="378.5784" y1="414.2412" y2="434.2412"/><polygon fill="#181818" points="374.5784,424.2412,378.5784,434.2412,382.5784,424.2412,378.5784,428.2412" style="stroke:#181818;stroke-width:1;"/><line style="stroke:#181818;stroke-width:1;" x1="378.5784" x2="378.5784" y1="458.2412" y2="478.2412"/><polygon fill="#181818" points="374.5784,468.2412,378.5784,478.2412,382.5784,468.2412,378.5784,472.2412" style="stroke:#181818;stroke-width:1;"/><line style="stroke:#181818;stroke-width:1;" x1="145.9785" x2="145.9785" y1="149.9639" y2="154.9639"/><line style="stroke:#181818;stroke-width:1;" x1="145.9785" x2="378.5784" y1="154.9639" y2="154.9639"/><line style="stroke:#181818;stroke-width:1;" x1="378.5784" x2="378.5784" y1="154.9639" y2="169.9639"/><polygon fill="#181818" points="374.5784,159.9639,378.5784,169.9639,382.5784,159.9639,378.5784,163.9639" style="stroke:#181818;stroke-width:1;"/><line style="stroke:#181818;stroke-width:1;" x1="378.5784" x2="378.5784" y1="257.9014" y2="262.9014"/><line style="stroke:#181818;stroke-width:1;" x1="378.5784" x2="145.9785" y1="262.9014" y2="262.9014"/><line style="stroke:#181818;stroke-width:1;" x1="145.9785" x2="145.9785" y1="262.9014" y2="277.9014"/><polygon fill="#181818" points="141.9785,267.9014,145.9785,277.9014,149.9785,267.9014,145.9785,271.9014" style="stroke:#181818;stroke-width:1;"/><line style="stroke:#181818;stroke-width:1;" x1="145.9785" x2="145.9785" y1="311.8701" y2="316.8701"/><line style="stroke:#181818;stroke-width:1;" x1="145.9785" x2="378.5784" y1="316.8701" y2="316.8701"/><line style="stroke:#181818;stroke-width:1;" x1="378.5784" x2="378.5784" y1="316.8701" y2="331.8701"/><polygon fill="#181818" points="374.5784,321.8701,378.5784,331.8701,382.5784,321.8701,378.5784,325.8701" style="stroke:#181818;stroke-width:1;"/><line style="stroke:#181818;stroke-width:1;" x1="378.5784" x2="378.5784" y1="512.21" y2="517.21"/><line style="stroke:#181818;stroke-width:1;" x1="378.5784" x2="145.9785" y1="517.21" y2="517.21"/><line style="stroke:#181818;stroke-width:1;" x1="145.9785" x2="145.9785" y1="517.21" y2="532.21"/><polygon fill="#181818" points="141.9785,522.21,145.9785,532.21,149.9785,522.21,145.9785,526.21" style="stroke:#181818;stroke-width:1;"/><text fill="#000000" font-family="sans-serif" font-size="18" lengthAdjust="spacing" textLength="82.1338" x="103.9116" y="66.75">&#7912;ng vi&#234;n</text><text fill="#000000" font-family="sans-serif" font-size="18" lengthAdjust="spacing" textLength="82.6436" x="345.2566" y="66.75">H&#7879; th&#7889;ng</text><?plantuml-src RP2zJiD048JxUuejam8PMhkWS8F4ZuGKw4_-oPridurz0GftAImAYjGKAA8WGh902fLFYE8YtcFVX7LCGH3jxipijrCbKXMyv1bKWeVvZLHJY7bQHKnBdKPmuH_imnwSpx1xKf3Q3_0lMOrcHRfhQLzKpIhDIytSKpIFe4jEYwlVQe_LHsWQq0BDGarhvXvBDFEiry9ciPcJGGdisi9ZxeIC4aAk15Hs6GZoWo1veo2mQ-_FPTUdp7i56hjb3XcQ1-a4DBhhxMXQxkXjNafgvzQk-NyuCeRHHF0SD1s40BldFj0q1S7Pbf8IkyeEnsI858nyknupW1_GGKUC_GL8H0xfrzkCFaFpwh58XJ9cxibs9EmxWMkf1eRTFyxw_oa0kqyzjDU3jCLGZDujnAF6y-8R?></g></svg>