<?plantuml 1.2026.1?><svg xmlns="http://www.w3.org/2000/svg" xmlns:xlink="http://www.w3.org/1999/xlink" contentStyleType="text/css" data-diagram-type="ACTIVITY" height="425px" preserveAspectRatio="none" style="width:711px;height:425px;background:#FFFFFF;" version="1.1" viewBox="0 0 711 425" width="711px" zoomAndPan="magnify"><title>UC11 - L&#432;u tin tuy&#7875;n d&#7909;ng</title><defs/><g><g class="title" data-source-line="2"><text fill="#000000" font-family="sans-serif" font-size="14" font-weight="bold" lengthAdjust="spacing" textLength="206.8418" x="250.6884" y="32.9951">UC11 - L&#432;u tin tuy&#7875;n d&#7909;ng</text></g><rect fill="none" height="20.9531" style="stroke:none;stroke-width:1;" width="678.2185" x="15" y="50.042"/><ellipse cx="201.3545" cy="85.9951" fill="#222222" rx="10" ry="10" style="stroke:#222222;stroke-width:1;"/><rect fill="#F1F1F1" height="33.9688" rx="12.5" ry="12.5" style="stroke:#181818;stroke-width:0.5;" width="96.7109" x="152.999" y="115.9951"/><text fill="#000000" font-family="sans-serif" font-size="12" lengthAdjust="spacing" textLength="76.7109" x="162.999" y="137.1338">Nh&#7853;n L&#432;u tin</text><rect fill="#F1F1F1" height="33.9688" rx="12.5" ry="12.5" style="stroke:#181818;stroke-width:0.5;" width="157.502" x="21" y="321.9014"/><text fill="#000000" font-family="sans-serif" font-size="12" lengthAdjust="spacing" textLength="137.502" x="31" y="343.04">Nh&#7853;n th&#244;ng b&#225;o &#273;&#227; l&#432;u</text><ellipse cx="99.751" cy="386.8701" fill="none" rx="11" ry="11" style="stroke:#222222;stroke-width:1;"/><ellipse cx="99.751" cy="386.8701" fill="#222222" rx="6" ry="6" style="stroke:#222222;stroke-width:1;"/><rect fill="#F1F1F1" height="33.9688" rx="12.5" ry="12.5" style="stroke:#181818;stroke-width:0.5;" width="154.2617" x="225.8271" y="267.9326"/><text fill="#000000" font-family="sans-serif" font-size="12" lengthAdjust="spacing" textLength="134.2617" x="235.8271" y="289.0713">&#272;&#259;ng nh&#7853;p &#273;&#7875; ti&#7871;p t&#7909;c</text><ellipse cx="302.958" cy="332.9014" fill="none" rx="11" ry="11" style="stroke:#222222;stroke-width:1;"/><ellipse cx="302.958" cy="332.9014" fill="#222222" rx="6" ry="6" style="stroke:#222222;stroke-width:1;"/><line style="stroke:#000000;stroke-width:1.5;" x1="15" x2="15" y1="50.042" y2="413.8701"/><rect fill="#F1F1F1" height="33.9688" rx="12.5" ry="12.5" style="stroke:#181818;stroke-width:0.5;" width="139.0859" x="528.2256" y="169.9639"/><text fill="#000000" font-family="sans-serif" font-size="12" lengthAdjust="spacing" textLength="119.0859" x="538.2256" y="191.1025">Ki&#7875;m tra &#273;&#259;ng nh&#7853;p</text><polygon fill="#F1F1F1" points="556.0486,223.9326,639.4885,223.9326,651.4885,235.9326,639.4885,247.9326,556.0486,247.9326,544.0486,235.9326,556.0486,223.9326" style="stroke:#181818;stroke-width:0.5;"/><text fill="#000000" font-family="sans-serif" font-size="11" lengthAdjust="spacing" textLength="83.4399" x="556.0486" y="239.7407">&#272;&#227; &#273;&#259;ng nh&#7853;p?</text><text fill="#000000" font-family="sans-serif" font-size="11" lengthAdjust="spacing" textLength="14.4106" x="529.6379" y="233.3384">C&#243;</text><text fill="#000000" font-family="sans-serif" font-size="11" lengthAdjust="spacing" textLength="34.8691" x="651.4885" y="233.3384">Kh&#244;ng</text><rect fill="#F1F1F1" height="33.9688" rx="12.5" ry="12.5" style="stroke:#181818;stroke-width:0.5;" width="212.1523" x="390.0889" y="267.9326"/><text fill="#000000" font-family="sans-serif" font-size="12" lengthAdjust="spacing" textLength="192.1523" x="400.0889" y="289.0713">L&#432;u tin v&#224;o danh s&#225;ch y&#234;u th&#237;ch</text><line style="stroke:#000000;stroke-width:1.5;" x1="384.0889" x2="384.0889" y1="50.042" y2="413.8701"/><line style="stroke:#000000;stroke-width:1.5;" x1="691.3577" x2="691.3577" y1="50.042" y2="413.8701"/><line style="stroke:#181818;stroke-width:1;" x1="201.3545" x2="201.3545" y1="95.9951" y2="115.9951"/><polygon fill="#181818" points="197.3545,105.9951,201.3545,115.9951,205.3545,105.9951,201.3545,109.9951" style="stroke:#181818;stroke-width:1;"/><line style="stroke:#181818;stroke-width:1;" x1="99.751" x2="99.751" y1="355.8701" y2="375.8701"/><polygon fill="#181818" points="95.751,365.8701,99.751,375.8701,103.751,365.8701,99.751,369.8701" style="stroke:#181818;stroke-width:1;"/><line style="stroke:#181818;stroke-width:1;" x1="302.958" x2="302.958" y1="301.9014" y2="321.9014"/><polygon fill="#181818" points="298.958,311.9014,302.958,321.9014,306.958,311.9014,302.958,315.9014" style="stroke:#181818;stroke-width:1;"/><line style="stroke:#181818;stroke-width:1;" x1="544.0486" x2="496.165" y1="235.9326" y2="235.9326"/><line style="stroke:#181818;stroke-width:1;" x1="496.165" x2="496.165" y1="235.9326" y2="267.9326"/><polygon fill="#181818" points="492.165,257.9326,496.165,267.9326,500.165,257.9326,496.165,261.9326" style="stroke:#181818;stroke-width:1;"/><line style="stroke:#181818;stroke-width:1;" x1="597.7686" x2="597.7686" y1="203.9326" y2="223.9326"/><polygon fill="#181818" points="593.7686,213.9326,597.7686,223.9326,601.7686,213.9326,597.7686,217.9326" style="stroke:#181818;stroke-width:1;"/><line style="stroke:#181818;stroke-width:1;" x1="201.3545" x2="201.3545" y1="149.9639" y2="154.9639"/><line style="stroke:#181818;stroke-width:1;" x1="201.3545" x2="597.7686" y1="154.9639" y2="154.9639"/><line style="stroke:#181818;stroke-width:1;" x1="597.7686" x2="597.7686" y1="154.9639" y2="169.9639"/><polygon fill="#181818" points="593.7686,159.9639,597.7686,169.9639,601.7686,159.9639,597.7686,163.9639" style="stroke:#181818;stroke-width:1;"/><line style="stroke:#181818;stroke-width:1;" x1="496.165" x2="496.165" y1="301.9014" y2="306.9014"/><line style="stroke:#181818;stroke-width:1;" x1="496.165" x2="99.751" y1="306.9014" y2="306.9014"/><line style="stroke:#181818;stroke-width:1;" x1="99.751" x2="99.751" y1="306.9014" y2="321.9014"/><polygon fill="#181818" points="95.751,311.9014,99.751,321.9014,103.751,311.9014,99.751,315.9014" style="stroke:#181818;stroke-width:1;"/><line style="stroke:#181818;stroke-width:1;" x1="651.4885" x2="663.4885" y1="235.9326" y2="235.9326"/><line style="stroke:#181818;stroke-width:1;" x1="663.4885" x2="663.4885" y1="235.9326" y2="253.9326"/><line style="stroke:#181818;stroke-width:1;" x1="663.4885" x2="302.958" y1="253.9326" y2="253.9326"/><line style="stroke:#181818;stroke-width:1;" x1="302.958" x2="302.958" y1="253.9326" y2="267.9326"/><polygon fill="#181818" points="298.958,257.9326,302.958,267.9326,306.958,257.9326,302.958,261.9326" style="stroke:#181818;stroke-width:1;"/><text fill="#000000" font-family="sans-serif" font-size="18" lengthAdjust="spacing" textLength="82.1338" x="158.4775" y="66.75">&#7912;ng vi&#234;n</text><text fill="#000000" font-family="sans-serif" font-size="18" lengthAdjust="spacing" textLength="82.6436" x="496.4015" y="66.75">H&#7879; th&#7889;ng</text><?plantuml-src RP2zIWD158NxUOfJxXOMQNSBYpH2nCu76FTl1ZTtbvr99B1T2jla3GmYI20WQ9KfB6RnFUPDl94G3TZUETztpnrphwcLdPp2A9at3vegbB8sXR3QrWLknwCHBd3zzJQ3rGGxMmIt9EJ1lL0b-k1UcPXhlwLU62ixAv8R5VOxEZ6fwA-2UuHLmQsfwaKoqUoOmdOImtfOie0EI9iANI8QLlxvV7uPCrmGeh5_ZmMGdEhC_LE3N9A2yPjCOU6t_A3yBbCf1y_hCNYineaFdj_vJSERU5tDmWDWRDEAWiz7DFd9nFzPXjMVSYpWQxXDs7-siFmlsQ-9Sbr-0m00?></g></svg>