<?plantuml 1.2026.1?><svg xmlns="http://www.w3.org/2000/svg" xmlns:xlink="http://www.w3.org/1999/xlink" contentStyleType="text/css" data-diagram-type="ACTIVITY" height="647px" preserveAspectRatio="none" style="width:1010px;height:647px;background:#FFFFFF;" version="1.1" viewBox="0 0 1010 647" width="1010px" zoomAndPan="magnify"><title>UC12 - &#7912;ng tuy&#7875;n</title><defs/><g><g class="title" data-source-line="2"><text fill="#000000" font-family="sans-serif" font-size="14" font-weight="bold" lengthAdjust="spacing" textLength="138.4893" x="434.561" y="32.9951">UC12 - &#7912;ng tuy&#7875;n</text></g><rect fill="none" height="20.9531" style="stroke:none;stroke-width:1;" width="977.6113" x="15" y="50.042"/><ellipse cx="328.3625" cy="85.9951" fill="#222222" rx="10" ry="10" style="stroke:#222222;stroke-width:1;"/><rect fill="#F1F1F1" height="33.9688" rx="12.5" ry="12.5" style="stroke:#181818;stroke-width:0.5;" width="119.0879" x="268.8186" y="115.9951"/><text fill="#000000" font-family="sans-serif" font-size="12" lengthAdjust="spacing" textLength="99.0879" x="278.8186" y="137.1338">Nh&#7853;n &#7912;ng tuy&#7875;n</text><rect fill="#F1F1F1" height="33.9688" rx="12.5" ry="12.5" style="stroke:#181818;stroke-width:0.5;" width="199.1621" x="21" y="365.9014"/><text fill="#000000" font-family="sans-serif" font-size="12" lengthAdjust="spacing" textLength="179.1621" x="31" y="387.04">X&#225;c nh&#7853;n th&#244;ng tin &#7913;ng tuy&#7875;n</text><rect fill="#F1F1F1" height="33.9688" rx="12.5" ry="12.5" style="stroke:#181818;stroke-width:0.5;" width="188.0234" x="26.5693" y="527.8076"/><text fill="#000000" font-family="sans-serif" font-size="12" lengthAdjust="spacing" textLength="168.0234" x="36.5693" y="548.9463">Nh&#7853;n th&#244;ng b&#225;o th&#224;nh c&#244;ng</text><ellipse cx="120.5811" cy="592.7764" fill="none" rx="11" ry="11" style="stroke:#222222;stroke-width:1;"/><ellipse cx="120.5811" cy="592.7764" fill="#222222" rx="6" ry="6" style="stroke:#222222;stroke-width:1;"/><rect fill="#F1F1F1" height="33.9688" rx="12.5" ry="12.5" style="stroke:#181818;stroke-width:0.5;" width="125.2695" x="230.1621" y="365.9014"/><text fill="#000000" font-family="sans-serif" font-size="12" lengthAdjust="spacing" textLength="105.2695" x="240.1621" y="387.04">B&#7893; sung CV/h&#7891; s&#417;</text><ellipse cx="292.7969" cy="430.8701" fill="none" rx="11" ry="11" style="stroke:#222222;stroke-width:1;"/><ellipse cx="292.7969" cy="430.8701" fill="#222222" rx="6" ry="6" style="stroke:#222222;stroke-width:1;"/><rect fill="#F1F1F1" height="33.9688" rx="12.5" ry="12.5" style="stroke:#181818;stroke-width:0.5;" width="154.2617" x="385.4316" y="267.9326"/><text fill="#000000" font-family="sans-serif" font-size="12" lengthAdjust="spacing" textLength="134.2617" x="395.4316" y="289.0713">&#272;&#259;ng nh&#7853;p &#273;&#7875; ti&#7871;p t&#7909;c</text><ellipse cx="462.5625" cy="332.9014" fill="none" rx="11" ry="11" style="stroke:#222222;stroke-width:1;"/><ellipse cx="462.5625" cy="332.9014" fill="#222222" rx="6" ry="6" style="stroke:#222222;stroke-width:1;"/><line style="stroke:#000000;stroke-width:1.5;" x1="15" x2="15" y1="50.042" y2="635.7764"/><rect fill="#F1F1F1" height="33.9688" rx="12.5" ry="12.5" style="stroke:#181818;stroke-width:0.5;" width="139.0859" x="827.6184" y="169.9639"/><text fill="#000000" font-family="sans-serif" font-size="12" lengthAdjust="spacing" textLength="119.0859" x="837.6184" y="191.1025">Ki&#7875;m tra &#273;&#259;ng nh&#7853;p</text><polygon fill="#F1F1F1" points="855.4414,223.9326,938.8813,223.9326,950.8813,235.9326,938.8813,247.9326,855.4414,247.9326,843.4414,235.9326,855.4414,223.9326" style="stroke:#181818;stroke-width:0.5;"/><text fill="#000000" font-family="sans-serif" font-size="11" lengthAdjust="spacing" textLength="83.4399" x="855.4414" y="239.7407">&#272;&#227; &#273;&#259;ng nh&#7853;p?</text><text fill="#000000" font-family="sans-serif" font-size="11" lengthAdjust="spacing" textLength="14.4106" x="829.0308" y="233.3384">C&#243;</text><text fill="#000000" font-family="sans-serif" font-size="11" lengthAdjust="spacing" textLength="34.8691" x="950.8813" y="233.3384">Kh&#244;ng</text><rect fill="#F1F1F1" height="33.9688" rx="12.5" ry="12.5" style="stroke:#181818;stroke-width:0.5;" width="205.3555" x="660.2837" y="267.9326"/><text fill="#000000" font-family="sans-serif" font-size="12" lengthAdjust="spacing" textLength="185.3555" x="670.2837" y="289.0713">Ki&#7875;m tra CV v&#224; h&#7891; s&#417; m&#7863;c &#273;&#7883;nh</text><polygon fill="#F1F1F1" points="723.9727,321.9014,801.9502,321.9014,813.9502,333.9014,801.9502,345.9014,723.9727,345.9014,711.9727,333.9014,723.9727,321.9014" style="stroke:#181818;stroke-width:0.5;"/><text fill="#000000" font-family="sans-serif" font-size="11" lengthAdjust="spacing" textLength="77.9775" x="723.9727" y="337.7095">H&#7891; s&#417; &#273;&#7847;y &#273;&#7911;?</text><text fill="#000000" font-family="sans-serif" font-size="11" lengthAdjust="spacing" textLength="14.4106" x="697.562" y="331.3071">C&#243;</text><text fill="#000000" font-family="sans-serif" font-size="11" lengthAdjust="spacing" textLength="34.8691" x="813.9502" y="331.3071">Kh&#244;ng</text><rect fill="#F1F1F1" height="33.9688" rx="12.5" ry="12.5" style="stroke:#181818;stroke-width:0.5;" width="143.0527" x="592.8008" y="419.8701"/><text fill="#000000" font-family="sans-serif" font-size="12" lengthAdjust="spacing" textLength="123.0527" x="602.8008" y="441.0088">T&#7841;o h&#7891; s&#417; &#7913;ng tuy&#7875;n</text><rect fill="#F1F1F1" height="33.9688" rx="12.5" ry="12.5" style="stroke:#181818;stroke-width:0.5;" width="229.2676" x="549.6934" y="473.8389"/><text fill="#000000" font-family="sans-serif" font-size="12" lengthAdjust="spacing" textLength="209.2676" x="559.6934" y="494.9775">G&#7917;i th&#244;ng b&#225;o cho nh&#224; tuy&#7875;n d&#7909;ng</text><line style="stroke:#000000;stroke-width:1.5;" x1="543.6934" x2="543.6934" y1="50.042" y2="635.7764"/><line style="stroke:#000000;stroke-width:1.5;" x1="990.7505" x2="990.7505" y1="50.042" y2="635.7764"/><line style="stroke:#181818;stroke-width:1;" x1="328.3625" x2="328.3625" y1="95.9951" y2="115.9951"/><polygon fill="#181818" points="324.3625,105.9951,328.3625,115.9951,332.3625,105.9951,328.3625,109.9951" style="stroke:#181818;stroke-width:1;"/><line style="stroke:#181818;stroke-width:1;" x1="120.5811" x2="120.5811" y1="561.7764" y2="581.7764"/><polygon fill="#181818" points="116.5811,571.7764,120.5811,581.7764,124.5811,571.7764,120.5811,575.7764" style="stroke:#181818;stroke-width:1;"/><line style="stroke:#181818;stroke-width:1;" x1="292.7969" x2="292.7969" y1="399.8701" y2="419.8701"/><polygon fill="#181818" points="288.7969,409.8701,292.7969,419.8701,296.7969,409.8701,292.7969,413.8701" style="stroke:#181818;stroke-width:1;"/><line style="stroke:#181818;stroke-width:1;" x1="462.5625" x2="462.5625" y1="301.9014" y2="321.9014"/><polygon fill="#181818" points="458.5625,311.9014,462.5625,321.9014,466.5625,311.9014,462.5625,315.9014" style="stroke:#181818;stroke-width:1;"/><line style="stroke:#181818;stroke-width:1;" x1="664.3271" x2="664.3271" y1="453.8389" y2="473.8389"/><polygon fill="#181818" points="660.3271,463.8389,664.3271,473.8389,668.3271,463.8389,664.3271,467.8389" style="stroke:#181818;stroke-width:1;"/><line style="stroke:#181818;stroke-width:1;" x1="762.9614" x2="762.9614" y1="301.9014" y2="321.9014"/><polygon fill="#181818" points="758.9614,311.9014,762.9614,321.9014,766.9614,311.9014,762.9614,315.9014" style="stroke:#181818;stroke-width:1;"/><line style="stroke:#181818;stroke-width:1;" x1="843.4414" x2="762.9614" y1="235.9326" y2="235.9326"/><line style="stroke:#181818;stroke-width:1;" x1="762.9614" x2="762.9614" y1="235.9326" y2="267.9326"/><polygon fill="#181818" points="758.9614,257.9326,762.9614,267.9326,766.9614,257.9326,762.9614,261.9326" style="stroke:#181818;stroke-width:1;"/><line style="stroke:#181818;stroke-width:1;" x1="897.1614" x2="897.1614" y1="203.9326" y2="223.9326"/><polygon fill="#181818" points="893.1614,213.9326,897.1614,223.9326,901.1614,213.9326,897.1614,217.9326" style="stroke:#181818;stroke-width:1;"/><line style="stroke:#181818;stroke-width:1;" x1="328.3625" x2="328.3625" y1="149.9639" y2="154.9639"/><line style="stroke:#181818;stroke-width:1;" x1="328.3625" x2="897.1614" y1="154.9639" y2="154.9639"/><line style="stroke:#181818;stroke-width:1;" x1="897.1614" x2="897.1614" y1="154.9639" y2="169.9639"/><polygon fill="#181818" points="893.1614,159.9639,897.1614,169.9639,901.1614,159.9639,897.1614,163.9639" style="stroke:#181818;stroke-width:1;"/><line style="stroke:#181818;stroke-width:1;" x1="120.5811" x2="120.5811" y1="399.8701" y2="404.8701"/><line style="stroke:#181818;stroke-width:1;" x1="120.5811" x2="664.3271" y1="404.8701" y2="404.8701"/><line style="stroke:#181818;stroke-width:1;" x1="664.3271" x2="664.3271" y1="404.8701" y2="419.8701"/><polygon fill="#181818" points="660.3271,409.8701,664.3271,419.8701,668.3271,409.8701,664.3271,413.8701" style="stroke:#181818;stroke-width:1;"/><line style="stroke:#181818;stroke-width:1;" x1="664.3271" x2="664.3271" y1="507.8076" y2="512.8076"/><line style="stroke:#181818;stroke-width:1;" x1="664.3271" x2="120.5811" y1="512.8076" y2="512.8076"/><line style="stroke:#181818;stroke-width:1;" x1="120.5811" x2="120.5811" y1="512.8076" y2="527.8076"/><polygon fill="#181818" points="116.5811,517.8076,120.5811,527.8076,124.5811,517.8076,120.5811,521.8076" style="stroke:#181818;stroke-width:1;"/><line style="stroke:#181818;stroke-width:1;" x1="711.9727" x2="120.5811" y1="333.9014" y2="333.9014"/><line style="stroke:#181818;stroke-width:1;" x1="120.5811" x2="120.5811" y1="333.9014" y2="365.9014"/><polygon fill="#181818" points="116.5811,355.9014,120.5811,365.9014,124.5811,355.9014,120.5811,359.9014" style="stroke:#181818;stroke-width:1;"/><line style="stroke:#181818;stroke-width:1;" x1="813.9502" x2="825.9502" y1="333.9014" y2="333.9014"/><line style="stroke:#181818;stroke-width:1;" x1="825.9502" x2="825.9502" y1="333.9014" y2="351.9014"/><line style="stroke:#181818;stroke-width:1;" x1="825.9502" x2="292.7969" y1="351.9014" y2="351.9014"/><line style="stroke:#181818;stroke-width:1;" x1="292.7969" x2="292.7969" y1="351.9014" y2="365.9014"/><polygon fill="#181818" points="288.7969,355.9014,292.7969,365.9014,296.7969,355.9014,292.7969,359.9014" style="stroke:#181818;stroke-width:1;"/><line style="stroke:#181818;stroke-width:1;" x1="950.8813" x2="962.8813" y1="235.9326" y2="235.9326"/><line style="stroke:#181818;stroke-width:1;" x1="962.8813" x2="962.8813" y1="235.9326" y2="253.9326"/><line style="stroke:#181818;stroke-width:1;" x1="962.8813" x2="462.5625" y1="253.9326" y2="253.9326"/><line style="stroke:#181818;stroke-width:1;" x1="462.5625" x2="462.5625" y1="253.9326" y2="267.9326"/><polygon fill="#181818" points="458.5625,257.9326,462.5625,267.9326,466.5625,257.9326,462.5625,261.9326" style="stroke:#181818;stroke-width:1;"/><text fill="#000000" font-family="sans-serif" font-size="18" lengthAdjust="spacing" textLength="82.1338" x="238.2798" y="66.75">&#7912;ng vi&#234;n</text><text fill="#000000" font-family="sans-serif" font-size="18" lengthAdjust="spacing" textLength="82.6436" x="725.9001" y="66.75">H&#7879; th&#7889;ng</text><?plantuml-src TP4nIyD05CVt-nHlR0SH7PD1C8D2mKcBQqpJvh1z2SsrKiZMmS6bHTnRHAf29mKXDpXSy7lSD_7TrM0IT4lU-_z_z_xlfTSS4t_iZo2D_5vymt40VN-OXanmCGpXmZiuX3tGyfaQOZBJSeuis_rEkNh5ZAN27mlcd4Kwts9TwRBiLCjR496MInnapEbmgez0Z7qebiMSf6XyYSju7rh5GZtMwqTjCeS8BK-zjHb05U1rOQfMGEnxIB_MCDBvHq1sBUymSabiaATbb-hvPcRRcoOLe1x9L9nBjGvsKo2frRk9nKt0bsf0Qww7jEvpdQ_Ztzd-S3adMcvvYRvI90-Yc5waJ3z2w6dvX0EtiV5orrKhVQymWi1KNBf9dD0Z8HqIMXqh-pVdiPOFa4wewdNtou5t8vOOxF4-QyAQAATOL0vd5psdZUdyCm51EGB3j4JB-mO0?></g></svg>