<?plantuml 1.2026.1?><svg xmlns="http://www.w3.org/2000/svg" xmlns:xlink="http://www.w3.org/1999/xlink" contentStyleType="text/css" data-diagram-type="ACTIVITY" height="701px" preserveAspectRatio="none" style="width:1104px;height:701px;background:#FFFFFF;" version="1.1" viewBox="0 0 1104 701" width="1104px" zoomAndPan="magnify"><title>UC14 - B&#236;nh lu&#7853;n/&#272;&#225;nh gi&#225; c&#244;ng ty</title><defs/><g><g class="title" data-source-line="2"><text fill="#000000" font-family="sans-serif" font-size="14" font-weight="bold" lengthAdjust="spacing" textLength="269.9785" x="415.7046" y="32.9951">UC14 - B&#236;nh lu&#7853;n/&#272;&#225;nh gi&#225; c&#244;ng ty</text></g><rect fill="none" height="20.9531" style="stroke:none;stroke-width:1;" width="1071.3877" x="15" y="50.042"/><ellipse cx="384.1672" cy="85.9951" fill="#222222" rx="10" ry="10" style="stroke:#222222;stroke-width:1;"/><rect fill="#F1F1F1" height="33.9688" rx="12.5" ry="12.5" style="stroke:#181818;stroke-width:0.5;" width="122.3223" x="323.0061" y="115.9951"/><text fill="#000000" font-family="sans-serif" font-size="12" lengthAdjust="spacing" textLength="102.3223" x="333.0061" y="137.1338">M&#7903; trang c&#244;ng ty</text><rect fill="#F1F1F1" height="33.9688" rx="12.5" ry="12.5" style="stroke:#181818;stroke-width:0.5;" width="219.4648" x="274.4348" y="169.9639"/><text fill="#000000" font-family="sans-serif" font-size="12" lengthAdjust="spacing" textLength="199.4648" x="284.4348" y="191.1025">Nh&#7853;p &#273;i&#7875;m &#273;&#225;nh gi&#225; v&#224; b&#236;nh lu&#7853;n</text><rect fill="#F1F1F1" height="33.9688" rx="12.5" ry="12.5" style="stroke:#181818;stroke-width:0.5;" width="75.5938" x="346.3704" y="223.9326"/><text fill="#000000" font-family="sans-serif" font-size="12" lengthAdjust="spacing" textLength="55.5938" x="356.3704" y="245.0713">Nh&#7853;n G&#7917;i</text><rect fill="#F1F1F1" height="33.9688" rx="12.5" ry="12.5" style="stroke:#181818;stroke-width:0.5;" width="210.3945" x="21" y="581.7764"/><text fill="#000000" font-family="sans-serif" font-size="12" lengthAdjust="spacing" textLength="190.3945" x="31" y="602.915">Nh&#7853;n th&#244;ng b&#225;o g&#7917;i th&#224;nh c&#244;ng</text><ellipse cx="126.1973" cy="646.7451" fill="none" rx="11" ry="11" style="stroke:#222222;stroke-width:1;"/><ellipse cx="126.1973" cy="646.7451" fill="#222222" rx="6" ry="6" style="stroke:#222222;stroke-width:1;"/><rect fill="#F1F1F1" height="33.9688" rx="12.5" ry="12.5" style="stroke:#181818;stroke-width:0.5;" width="192.8105" x="241.3945" y="473.8389"/><text fill="#000000" font-family="sans-serif" font-size="12" lengthAdjust="spacing" textLength="172.8105" x="251.3945" y="494.9775">Nh&#7853;n th&#244;ng b&#225;o l&#7895;i/tr&#249;ng l&#7863;p</text><ellipse cx="337.7998" cy="538.8076" fill="none" rx="11" ry="11" style="stroke:#222222;stroke-width:1;"/><ellipse cx="337.7998" cy="538.8076" fill="#222222" rx="6" ry="6" style="stroke:#222222;stroke-width:1;"/><rect fill="#F1F1F1" height="33.9688" rx="12.5" ry="12.5" style="stroke:#181818;stroke-width:0.5;" width="154.2617" x="464.2051" y="375.8701"/><text fill="#000000" font-family="sans-serif" font-size="12" lengthAdjust="spacing" textLength="134.2617" x="474.2051" y="397.0088">&#272;&#259;ng nh&#7853;p &#273;&#7875; ti&#7871;p t&#7909;c</text><ellipse cx="541.3359" cy="440.8389" fill="none" rx="11" ry="11" style="stroke:#222222;stroke-width:1;"/><ellipse cx="541.3359" cy="440.8389" fill="#222222" rx="6" ry="6" style="stroke:#222222;stroke-width:1;"/><line style="stroke:#000000;stroke-width:1.5;" x1="15" x2="15" y1="50.042" y2="689.7451"/><rect fill="#F1F1F1" height="33.9688" rx="12.5" ry="12.5" style="stroke:#181818;stroke-width:0.5;" width="139.0859" x="921.3948" y="277.9014"/><text fill="#000000" font-family="sans-serif" font-size="12" lengthAdjust="spacing" textLength="119.0859" x="931.3948" y="299.04">Ki&#7875;m tra &#273;&#259;ng nh&#7853;p</text><polygon fill="#F1F1F1" points="949.2178,331.8701,1032.6577,331.8701,1044.6577,343.8701,1032.6577,355.8701,949.2178,355.8701,937.2178,343.8701,949.2178,331.8701" style="stroke:#181818;stroke-width:0.5;"/><text fill="#000000" font-family="sans-serif" font-size="11" lengthAdjust="spacing" textLength="83.4399" x="949.2178" y="347.6782">&#272;&#227; &#273;&#259;ng nh&#7853;p?</text><text fill="#000000" font-family="sans-serif" font-size="11" lengthAdjust="spacing" textLength="14.4106" x="922.8071" y="341.2759">C&#243;</text><text fill="#000000" font-family="sans-serif" font-size="11" lengthAdjust="spacing" textLength="34.8691" x="1044.6577" y="341.2759">Kh&#244;ng</text><rect fill="#F1F1F1" height="33.9688" rx="12.5" ry="12.5" style="stroke:#181818;stroke-width:0.5;" width="208.4082" x="729.5649" y="375.8701"/><text fill="#000000" font-family="sans-serif" font-size="12" lengthAdjust="spacing" textLength="188.4082" x="739.5649" y="397.0088">Ki&#7875;m tra &#273;i&#7873;u ki&#7879;n g&#7917;i &#273;&#225;nh gi&#225;</text><polygon fill="#F1F1F1" points="813.1978,429.8389,854.3403,429.8389,866.3403,441.8389,854.3403,453.8389,813.1978,453.8389,801.1978,441.8389,813.1978,429.8389" style="stroke:#181818;stroke-width:0.5;"/><text fill="#000000" font-family="sans-serif" font-size="11" lengthAdjust="spacing" textLength="41.1426" x="813.1978" y="445.647">H&#7907;p l&#7879;?</text><text fill="#000000" font-family="sans-serif" font-size="11" lengthAdjust="spacing" textLength="14.4106" x="786.7871" y="439.2446">C&#243;</text><text fill="#000000" font-family="sans-serif" font-size="11" lengthAdjust="spacing" textLength="34.8691" x="866.3403" y="439.2446">Kh&#244;ng</text><rect fill="#F1F1F1" height="33.9688" rx="12.5" ry="12.5" style="stroke:#181818;stroke-width:0.5;" width="189.002" x="628.4668" y="473.8389"/><text fill="#000000" font-family="sans-serif" font-size="12" lengthAdjust="spacing" textLength="169.002" x="638.4668" y="494.9775">Ki&#7875;m duy&#7879;t n&#7897;i dung c&#417; b&#7843;n</text><rect fill="#F1F1F1" height="33.9688" rx="12.5" ry="12.5" style="stroke:#181818;stroke-width:0.5;" width="157.9297" x="644.0029" y="527.8076"/><text fill="#000000" font-family="sans-serif" font-size="12" lengthAdjust="spacing" textLength="137.9297" x="654.0029" y="548.9463">L&#432;u &#273;&#225;nh gi&#225;/b&#236;nh lu&#7853;n</text><line style="stroke:#000000;stroke-width:1.5;" x1="622.4668" x2="622.4668" y1="50.042" y2="689.7451"/><line style="stroke:#000000;stroke-width:1.5;" x1="1084.5269" x2="1084.5269" y1="50.042" y2="689.7451"/><line style="stroke:#181818;stroke-width:1;" x1="384.1672" x2="384.1672" y1="95.9951" y2="115.9951"/><polygon fill="#181818" points="380.1672,105.9951,384.1672,115.9951,388.1672,105.9951,384.1672,109.9951" style="stroke:#181818;stroke-width:1;"/><line style="stroke:#181818;stroke-width:1;" x1="384.1672" x2="384.1672" y1="149.9639" y2="169.9639"/><polygon fill="#181818" points="380.1672,159.9639,384.1672,169.9639,388.1672,159.9639,384.1672,163.9639" style="stroke:#181818;stroke-width:1;"/><line style="stroke:#181818;stroke-width:1;" x1="384.1672" x2="384.1672" y1="203.9326" y2="223.9326"/><polygon fill="#181818" points="380.1672,213.9326,384.1672,223.9326,388.1672,213.9326,384.1672,217.9326" style="stroke:#181818;stroke-width:1;"/><line style="stroke:#181818;stroke-width:1;" x1="126.1973" x2="126.1973" y1="615.7451" y2="635.7451"/><polygon fill="#181818" points="122.1973,625.7451,126.1973,635.7451,130.1973,625.7451,126.1973,629.7451" style="stroke:#181818;stroke-width:1;"/><line style="stroke:#181818;stroke-width:1;" x1="337.7998" x2="337.7998" y1="507.8076" y2="527.8076"/><polygon fill="#181818" points="333.7998,517.8076,337.7998,527.8076,341.7998,517.8076,337.7998,521.8076" style="stroke:#181818;stroke-width:1;"/><line style="stroke:#181818;stroke-width:1;" x1="541.3359" x2="541.3359" y1="409.8389" y2="429.8389"/><polygon fill="#181818" points="537.3359,419.8389,541.3359,429.8389,545.3359,419.8389,541.3359,423.8389" style="stroke:#181818;stroke-width:1;"/><line style="stroke:#181818;stroke-width:1;" x1="722.9678" x2="722.9678" y1="507.8076" y2="527.8076"/><polygon fill="#181818" points="718.9678,517.8076,722.9678,527.8076,726.9678,517.8076,722.9678,521.8076" style="stroke:#181818;stroke-width:1;"/><line style="stroke:#181818;stroke-width:1;" x1="801.1978" x2="722.9678" y1="441.8389" y2="441.8389"/><line style="stroke:#181818;stroke-width:1;" x1="722.9678" x2="722.9678" y1="441.8389" y2="473.8389"/><polygon fill="#181818" points="718.9678,463.8389,722.9678,473.8389,726.9678,463.8389,722.9678,467.8389" style="stroke:#181818;stroke-width:1;"/><line style="stroke:#181818;stroke-width:1;" x1="833.769" x2="833.769" y1="409.8389" y2="429.8389"/><polygon fill="#181818" points="829.769,419.8389,833.769,429.8389,837.769,419.8389,833.769,423.8389" style="stroke:#181818;stroke-width:1;"/><line style="stroke:#181818;stroke-width:1;" x1="937.2178" x2="833.769" y1="343.8701" y2="343.8701"/><line style="stroke:#181818;stroke-width:1;" x1="833.769" x2="833.769" y1="343.8701" y2="375.8701"/><polygon fill="#181818" points="829.769,365.8701,833.769,375.8701,837.769,365.8701,833.769,369.8701" style="stroke:#181818;stroke-width:1;"/><line style="stroke:#181818;stroke-width:1;" x1="990.9377" x2="990.9377" y1="311.8701" y2="331.8701"/><polygon fill="#181818" points="986.9377,321.8701,990.9377,331.8701,994.9377,321.8701,990.9377,325.8701" style="stroke:#181818;stroke-width:1;"/><line style="stroke:#181818;stroke-width:1;" x1="384.1672" x2="384.1672" y1="257.9014" y2="262.9014"/><line style="stroke:#181818;stroke-width:1;" x1="384.1672" x2="990.9377" y1="262.9014" y2="262.9014"/><line style="stroke:#181818;stroke-width:1;" x1="990.9377" x2="990.9377" y1="262.9014" y2="277.9014"/><polygon fill="#181818" points="986.9377,267.9014,990.9377,277.9014,994.9377,267.9014,990.9377,271.9014" style="stroke:#181818;stroke-width:1;"/><line style="stroke:#181818;stroke-width:1;" x1="722.9678" x2="722.9678" y1="561.7764" y2="566.7764"/><line style="stroke:#181818;stroke-width:1;" x1="722.9678" x2="126.1973" y1="566.7764" y2="566.7764"/><line style="stroke:#181818;stroke-width:1;" x1="126.1973" x2="126.1973" y1="566.7764" y2="581.7764"/><polygon fill="#181818" points="122.1973,571.7764,126.1973,581.7764,130.1973,571.7764,126.1973,575.7764" style="stroke:#181818;stroke-width:1;"/><line style="stroke:#181818;stroke-width:1;" x1="866.3403" x2="878.3403" y1="441.8389" y2="441.8389"/><line style="stroke:#181818;stroke-width:1;" x1="878.3403" x2="878.3403" y1="441.8389" y2="459.8389"/><line style="stroke:#181818;stroke-width:1;" x1="878.3403" x2="337.7998" y1="459.8389" y2="459.8389"/><line style="stroke:#181818;stroke-width:1;" x1="337.7998" x2="337.7998" y1="459.8389" y2="473.8389"/><polygon fill="#181818" points="333.7998,463.8389,337.7998,473.8389,341.7998,463.8389,337.7998,467.8389" style="stroke:#181818;stroke-width:1;"/><line style="stroke:#181818;stroke-width:1;" x1="1044.6577" x2="1056.6577" y1="343.8701" y2="343.8701"/><line style="stroke:#181818;stroke-width:1;" x1="1056.6577" x2="1056.6577" y1="343.8701" y2="361.8701"/><line style="stroke:#181818;stroke-width:1;" x1="1056.6577" x2="541.3359" y1="361.8701" y2="361.8701"/><line style="stroke:#181818;stroke-width:1;" x1="541.3359" x2="541.3359" y1="361.8701" y2="375.8701"/><polygon fill="#181818" points="537.3359,365.8701,541.3359,375.8701,545.3359,365.8701,541.3359,369.8701" style="stroke:#181818;stroke-width:1;"/><text fill="#000000" font-family="sans-serif" font-size="18" lengthAdjust="spacing" textLength="82.1338" x="277.6665" y="66.75">&#7912;ng vi&#234;n</text><text fill="#000000" font-family="sans-serif" font-size="18" lengthAdjust="spacing" textLength="82.6436" x="812.175" y="66.75">H&#7879; th&#7889;ng</text><?plantuml-src bP4nIyD05CVt-nHlR0SfWbCo27PGgBhv0T8cJOwcbv1SAeKiqg5hEucJ3KKGiI0eYBd1uKA_ntqJNoujJRevtRjt__Txx_ql7b4MMf4rXjYpxE2UCXU6bXyxX5FkEt3NFJs34xYGxym3Fr7vXdMAXSpmvbAPmK1-OGMVabI9LumcLBwnbCJSYZWnRfHu1XvP-B0NciIuzH0JGh6aIip6U1vm4xc2VgtNNitWKeaDDKbwfSGSkAV4ahafCNeL0tiWfvXX2wRf9g53QE6awsR-l8t53eDMLtws2K0JWF530YCyvWpSicDzEXFr9HL7M8VWe-YOTk3PoHJVEJ0bdYZUIWUs6VHLlcPcfRpUVYHrVAUvUAbfcgghTdPmJ_lPbrcm6nGpAopNFbVLCGz231pyJMZrT47x7rXSy95sU2H_CEEh_3jiOfbDX-GOVemsYaNDVLmNtG5ELVuR0bVYPL0oDL7p_W00?></g></svg>