<?plantuml 1.2026.1?><svg xmlns="http://www.w3.org/2000/svg" xmlns:xlink="http://www.w3.org/1999/xlink" contentStyleType="text/css" data-diagram-type="ACTIVITY" height="566px" preserveAspectRatio="none" style="width:486px;height:566px;background:#FFFFFF;" version="1.1" viewBox="0 0 486 566" width="486px" zoomAndPan="magnify"><title>UC15 - Qu&#7843;n l&#253; &#7913;ng tuy&#7875;n</title><defs/><g><g class="title" data-source-line="2"><text fill="#000000" font-family="sans-serif" font-size="14" font-weight="bold" lengthAdjust="spacing" textLength="201.7148" x="140.6814" y="32.9951">UC15 - Qu&#7843;n l&#253; &#7913;ng tuy&#7875;n</text></g><rect fill="none" height="20.9531" style="stroke:none;stroke-width:1;" width="453.0776" x="15" y="50.042"/><ellipse cx="129.0771" cy="85.9951" fill="#222222" rx="10" ry="10" style="stroke:#222222;stroke-width:1;"/><rect fill="#F1F1F1" height="33.9688" rx="12.5" ry="12.5" style="stroke:#181818;stroke-width:0.5;" width="186.8281" x="35.6631" y="115.9951"/><text fill="#000000" font-family="sans-serif" font-size="12" lengthAdjust="spacing" textLength="166.8281" x="45.6631" y="137.1338">M&#7903; trang qu&#7843;n l&#253; &#7913;ng tuy&#7875;n</text><rect fill="#F1F1F1" height="33.9688" rx="12.5" ry="12.5" style="stroke:#181818;stroke-width:0.5;" width="216.1543" x="21" y="277.9014"/><text fill="#000000" font-family="sans-serif" font-size="12" lengthAdjust="spacing" textLength="196.1543" x="31" y="299.04">Ch&#7885;n xem chi ti&#7871;t ho&#7863;c r&#250;t h&#7891; s&#417;</text><rect fill="#F1F1F1" height="33.9688" rx="12.5" ry="12.5" style="stroke:#181818;stroke-width:0.5;" width="185.7852" x="36.1846" y="478.2412"/><text fill="#000000" font-family="sans-serif" font-size="12" lengthAdjust="spacing" textLength="165.7852" x="46.1846" y="499.3799">Xem k&#7871;t qu&#7843;/tr&#7841;ng th&#225;i m&#7899;i</text><ellipse cx="129.0771" cy="543.21" fill="none" rx="11" ry="11" style="stroke:#222222;stroke-width:1;"/><ellipse cx="129.0771" cy="543.21" fill="#222222" rx="6" ry="6" style="stroke:#222222;stroke-width:1;"/><line style="stroke:#000000;stroke-width:1.5;" x1="15" x2="15" y1="50.042" y2="554.21"/><rect fill="#F1F1F1" height="33.9688" rx="12.5" ry="12.5" style="stroke:#181818;stroke-width:0.5;" width="139.0859" x="279.9434" y="169.9639"/><text fill="#000000" font-family="sans-serif" font-size="12" lengthAdjust="spacing" textLength="119.0859" x="289.9434" y="191.1025">Ki&#7875;m tra &#273;&#259;ng nh&#7853;p</text><rect fill="#F1F1F1" height="33.9688" rx="12.5" ry="12.5" style="stroke:#181818;stroke-width:0.5;" width="204.6641" x="247.1543" y="223.9326"/><text fill="#000000" font-family="sans-serif" font-size="12" lengthAdjust="spacing" textLength="184.6641" x="257.1543" y="245.0713">T&#7843;i danh s&#225;ch h&#7891; s&#417; &#7913;ng tuy&#7875;n</text><rect fill="#F1F1F1" height="33.9688" rx="12.5" ry="12.5" style="stroke:#181818;stroke-width:0.5;" width="175.4609" x="261.7559" y="380.2725"/><text fill="#000000" font-family="sans-serif" font-size="12" lengthAdjust="spacing" textLength="155.4609" x="271.7559" y="401.4111">C&#7853;p nh&#7853;t h&#7891; s&#417; &#7913;ng tuy&#7875;n</text><polygon fill="#F1F1F1" points="286.4109,331.8701,412.5618,331.8701,424.5618,343.8701,412.5618,355.8701,286.4109,355.8701,274.4109,343.8701,286.4109,331.8701" style="stroke:#181818;stroke-width:0.5;"/><text fill="#000000" font-family="sans-serif" font-size="11" lengthAdjust="spacing" textLength="14.4106" x="353.4863" y="366.0806">C&#243;</text><text fill="#000000" font-family="sans-serif" font-size="11" lengthAdjust="spacing" textLength="126.1509" x="286.4109" y="347.6782">C&#243; thay &#273;&#7893;i tr&#7841;ng th&#225;i?</text><polygon fill="#F1F1F1" points="349.4863,434.2412,361.4863,446.2412,349.4863,458.2412,337.4863,446.2412,349.4863,434.2412" style="stroke:#181818;stroke-width:0.5;"/><line style="stroke:#000000;stroke-width:1.5;" x1="241.1543" x2="241.1543" y1="50.042" y2="554.21"/><line style="stroke:#000000;stroke-width:1.5;" x1="466.2168" x2="466.2168" y1="50.042" y2="554.21"/><line style="stroke:#181818;stroke-width:1;" x1="129.0771" x2="129.0771" y1="95.9951" y2="115.9951"/><polygon fill="#181818" points="125.0771,105.9951,129.0771,115.9951,133.0771,105.9951,129.0771,109.9951" style="stroke:#181818;stroke-width:1;"/><line style="stroke:#181818;stroke-width:1;" x1="129.0771" x2="129.0771" y1="512.21" y2="532.21"/><polygon fill="#181818" points="125.0771,522.21,129.0771,532.21,133.0771,522.21,129.0771,526.21" style="stroke:#181818;stroke-width:1;"/><line style="stroke:#181818;stroke-width:1;" x1="349.4863" x2="349.4863" y1="203.9326" y2="223.9326"/><polygon fill="#181818" points="345.4863,213.9326,349.4863,223.9326,353.4863,213.9326,349.4863,217.9326" style="stroke:#181818;stroke-width:1;"/><line style="stroke:#181818;stroke-width:1;" x1="349.4863" x2="349.4863" y1="355.8701" y2="380.2725"/><polygon fill="#181818" points="345.4863,370.2725,349.4863,380.2725,353.4863,370.2725,349.4863,374.2725" style="stroke:#181818;stroke-width:1;"/><line style="stroke:#181818;stroke-width:1;" x1="424.5618" x2="447.2168" y1="343.8701" y2="343.8701"/><polygon fill="#181818" points="443.2168,387.2568,447.2168,397.2568,451.2168,387.2568,447.2168,391.2568" style="stroke:#181818;stroke-width:1;"/><line style="stroke:#181818;stroke-width:1;" x1="447.2168" x2="447.2168" y1="343.8701" y2="446.2412"/><line style="stroke:#181818;stroke-width:1;" x1="447.2168" x2="361.4863" y1="446.2412" y2="446.2412"/><polygon fill="#181818" points="371.4863,442.2412,361.4863,446.2412,371.4863,450.2412,367.4863,446.2412" style="stroke:#181818;stroke-width:1;"/><line style="stroke:#181818;stroke-width:1;" x1="349.4863" x2="349.4863" y1="414.2412" y2="434.2412"/><polygon fill="#181818" points="345.4863,424.2412,349.4863,434.2412,353.4863,424.2412,349.4863,428.2412" style="stroke:#181818;stroke-width:1;"/><line style="stroke:#181818;stroke-width:1;" x1="129.0771" x2="129.0771" y1="149.9639" y2="154.9639"/><line style="stroke:#181818;stroke-width:1;" x1="129.0771" x2="349.4863" y1="154.9639" y2="154.9639"/><line style="stroke:#181818;stroke-width:1;" x1="349.4863" x2="349.4863" y1="154.9639" y2="169.9639"/><polygon fill="#181818" points="345.4863,159.9639,349.4863,169.9639,353.4863,159.9639,349.4863,163.9639" style="stroke:#181818;stroke-width:1;"/><line style="stroke:#181818;stroke-width:1;" x1="349.4863" x2="349.4863" y1="257.9014" y2="262.9014"/><line style="stroke:#181818;stroke-width:1;" x1="349.4863" x2="129.0771" y1="262.9014" y2="262.9014"/><line style="stroke:#181818;stroke-width:1;" x1="129.0771" x2="129.0771" y1="262.9014" y2="277.9014"/><polygon fill="#181818" points="125.0771,267.9014,129.0771,277.9014,133.0771,267.9014,129.0771,271.9014" style="stroke:#181818;stroke-width:1;"/><line style="stroke:#181818;stroke-width:1;" x1="129.0771" x2="129.0771" y1="311.8701" y2="316.8701"/><line style="stroke:#181818;stroke-width:1;" x1="129.0771" x2="349.4863" y1="316.8701" y2="316.8701"/><line style="stroke:#181818;stroke-width:1;" x1="349.4863" x2="349.4863" y1="316.8701" y2="331.8701"/><polygon fill="#181818" points="345.4863,321.8701,349.4863,331.8701,353.4863,321.8701,349.4863,325.8701" style="stroke:#181818;stroke-width:1;"/><line style="stroke:#181818;stroke-width:1;" x1="349.4863" x2="349.4863" y1="458.2412" y2="463.2412"/><line style="stroke:#181818;stroke-width:1;" x1="349.4863" x2="129.0771" y1="463.2412" y2="463.2412"/><line style="stroke:#181818;stroke-width:1;" x1="129.0771" x2="129.0771" y1="463.2412" y2="478.2412"/><polygon fill="#181818" points="125.0771,468.2412,129.0771,478.2412,133.0771,468.2412,129.0771,472.2412" style="stroke:#181818;stroke-width:1;"/><text fill="#000000" font-family="sans-serif" font-size="18" lengthAdjust="spacing" textLength="82.1338" x="87.0103" y="66.75">&#7912;ng vi&#234;n</text><text fill="#000000" font-family="sans-serif" font-size="18" lengthAdjust="spacing" textLength="82.6436" x="312.3638" y="66.75">H&#7879; th&#7889;ng</text><?plantuml-src TP2_IiH04CRxVOeflKB4mYOfBD88OY4es2xvSpjSiedPFVKWtHLM5eTOMKYmKS7AGiWY5dlSUyoRE8aWdCTLmynytpS_nanGLxAM1HWba_8QzHWocPjKMBHv2kVH_W7imkcKkcSDkVy2Sg-iiTCPkRaM3RaNRg_Gl-b662jhAu8JSazWQycBoot6K3H7v6x1Ad8BFMv4S8myBteRB1VBEKkrekwz2aLmnXa8YTGAZ6zZ1Mow1xDgDpBNQ8A8TNSQRj82OeLWaRfl2wgaxZE6sdVsBsW31pFOYVm73-ICUSWziB-chktFAT_YuOXhgWVLI004KG_xosot0gOwmUm_vWNpJGQquLjxQtUW8FU88R-sh7u0?></g></svg>