<?plantuml 1.2026.1?><svg xmlns="http://www.w3.org/2000/svg" xmlns:xlink="http://www.w3.org/1999/xlink" contentStyleType="text/css" data-diagram-type="ACTIVITY" height="593px" preserveAspectRatio="none" style="width:1115px;height:593px;background:#FFFFFF;" version="1.1" viewBox="0 0 1115 593" width="1115px" zoomAndPan="magnify"><title>UC16 - B&#236;nh lu&#7853;n b&#224;i vi&#7871;t h&#432;&#7899;ng nghi&#7879;p</title><defs/><g><g class="title" data-source-line="2"><text fill="#000000" font-family="sans-serif" font-size="14" font-weight="bold" lengthAdjust="spacing" textLength="308.8271" x="401.7312" y="32.9951">UC16 - B&#236;nh lu&#7853;n b&#224;i vi&#7871;t h&#432;&#7899;ng nghi&#7879;p</text></g><rect fill="none" height="20.9531" style="stroke:none;stroke-width:1;" width="1082.2896" x="15" y="50.042"/><ellipse cx="403.1838" cy="85.9951" fill="#222222" rx="10" ry="10" style="stroke:#222222;stroke-width:1;"/><rect fill="#F1F1F1" height="33.9688" rx="12.5" ry="12.5" style="stroke:#181818;stroke-width:0.5;" width="159.6992" x="323.3342" y="115.9951"/><text fill="#000000" font-family="sans-serif" font-size="12" lengthAdjust="spacing" textLength="139.6992" x="333.3342" y="137.1338">Nh&#7853;p b&#236;nh lu&#7853;n b&#224;i vi&#7871;t</text><rect fill="#F1F1F1" height="33.9688" rx="12.5" ry="12.5" style="stroke:#181818;stroke-width:0.5;" width="75.5938" x="365.387" y="169.9639"/><text fill="#000000" font-family="sans-serif" font-size="12" lengthAdjust="spacing" textLength="55.5938" x="375.387" y="191.1025">Nh&#7853;n G&#7917;i</text><rect fill="#F1F1F1" height="33.9688" rx="12.5" ry="12.5" style="stroke:#181818;stroke-width:0.5;" width="188.0234" x="21" y="473.8389"/><text fill="#000000" font-family="sans-serif" font-size="12" lengthAdjust="spacing" textLength="168.0234" x="31" y="494.9775">Nh&#7853;n th&#244;ng b&#225;o th&#224;nh c&#244;ng</text><ellipse cx="115.0117" cy="538.8076" fill="none" rx="11" ry="11" style="stroke:#222222;stroke-width:1;"/><ellipse cx="115.0117" cy="538.8076" fill="#222222" rx="6" ry="6" style="stroke:#222222;stroke-width:1;"/><rect fill="#F1F1F1" height="33.9688" rx="12.5" ry="12.5" style="stroke:#181818;stroke-width:0.5;" width="254.5566" x="219.0234" y="419.8701"/><text fill="#000000" font-family="sans-serif" font-size="12" lengthAdjust="spacing" textLength="234.5566" x="229.0234" y="441.0088">Nh&#7853;n th&#244;ng b&#225;o n&#7897;i dung kh&#244;ng h&#7907;p l&#7879;</text><ellipse cx="346.3018" cy="484.8389" fill="none" rx="11" ry="11" style="stroke:#222222;stroke-width:1;"/><ellipse cx="346.3018" cy="484.8389" fill="#222222" rx="6" ry="6" style="stroke:#222222;stroke-width:1;"/><rect fill="#F1F1F1" height="33.9688" rx="12.5" ry="12.5" style="stroke:#181818;stroke-width:0.5;" width="154.2617" x="493.0334" y="321.9014"/><text fill="#000000" font-family="sans-serif" font-size="12" lengthAdjust="spacing" textLength="134.2617" x="503.0334" y="343.04">&#272;&#259;ng nh&#7853;p &#273;&#7875; ti&#7871;p t&#7909;c</text><ellipse cx="570.1643" cy="386.8701" fill="none" rx="11" ry="11" style="stroke:#222222;stroke-width:1;"/><ellipse cx="570.1643" cy="386.8701" fill="#222222" rx="6" ry="6" style="stroke:#222222;stroke-width:1;"/><line style="stroke:#000000;stroke-width:1.5;" x1="15" x2="15" y1="50.042" y2="581.8076"/><rect fill="#F1F1F1" height="33.9688" rx="12.5" ry="12.5" style="stroke:#181818;stroke-width:0.5;" width="139.0859" x="932.2966" y="223.9326"/><text fill="#000000" font-family="sans-serif" font-size="12" lengthAdjust="spacing" textLength="119.0859" x="942.2966" y="245.0713">Ki&#7875;m tra &#273;&#259;ng nh&#7853;p</text><polygon fill="#F1F1F1" points="960.1196,277.9014,1043.5596,277.9014,1055.5596,289.9014,1043.5596,301.9014,960.1196,301.9014,948.1196,289.9014,960.1196,277.9014" style="stroke:#181818;stroke-width:0.5;"/><text fill="#000000" font-family="sans-serif" font-size="11" lengthAdjust="spacing" textLength="83.4399" x="960.1196" y="293.7095">&#272;&#227; &#273;&#259;ng nh&#7853;p?</text><text fill="#000000" font-family="sans-serif" font-size="11" lengthAdjust="spacing" textLength="14.4106" x="933.709" y="287.3071">C&#243;</text><text fill="#000000" font-family="sans-serif" font-size="11" lengthAdjust="spacing" textLength="34.8691" x="1055.5596" y="287.3071">Kh&#244;ng</text><rect fill="#F1F1F1" height="33.9688" rx="12.5" ry="12.5" style="stroke:#181818;stroke-width:0.5;" width="187.127" x="735.1697" y="321.9014"/><text fill="#000000" font-family="sans-serif" font-size="12" lengthAdjust="spacing" textLength="167.127" x="745.1697" y="343.04">Ki&#7875;m tra n&#7897;i dung b&#236;nh lu&#7853;n</text><polygon fill="#F1F1F1" points="808.1619,375.8701,849.3044,375.8701,861.3044,387.8701,849.3044,399.8701,808.1619,399.8701,796.1619,387.8701,808.1619,375.8701" style="stroke:#181818;stroke-width:0.5;"/><text fill="#000000" font-family="sans-serif" font-size="11" lengthAdjust="spacing" textLength="41.1426" x="808.1619" y="391.6782">H&#7907;p l&#7879;?</text><text fill="#000000" font-family="sans-serif" font-size="11" lengthAdjust="spacing" textLength="14.4106" x="781.7512" y="385.2759">C&#243;</text><text fill="#000000" font-family="sans-serif" font-size="11" lengthAdjust="spacing" textLength="34.8691" x="861.3044" y="385.2759">Kh&#244;ng</text><rect fill="#F1F1F1" height="33.9688" rx="12.5" ry="12.5" style="stroke:#181818;stroke-width:0.5;" width="101.5859" x="657.2952" y="419.8701"/><text fill="#000000" font-family="sans-serif" font-size="12" lengthAdjust="spacing" textLength="81.5859" x="667.2952" y="441.0088">L&#432;u b&#236;nh lu&#7853;n</text><line style="stroke:#000000;stroke-width:1.5;" x1="651.2952" x2="651.2952" y1="50.042" y2="581.8076"/><line style="stroke:#000000;stroke-width:1.5;" x1="1095.4287" x2="1095.4287" y1="50.042" y2="581.8076"/><line style="stroke:#181818;stroke-width:1;" x1="403.1838" x2="403.1838" y1="95.9951" y2="115.9951"/><polygon fill="#181818" points="399.1838,105.9951,403.1838,115.9951,407.1838,105.9951,403.1838,109.9951" style="stroke:#181818;stroke-width:1;"/><line style="stroke:#181818;stroke-width:1;" x1="403.1838" x2="403.1838" y1="149.9639" y2="169.9639"/><polygon fill="#181818" points="399.1838,159.9639,403.1838,169.9639,407.1838,159.9639,403.1838,163.9639" style="stroke:#181818;stroke-width:1;"/><line style="stroke:#181818;stroke-width:1;" x1="115.0117" x2="115.0117" y1="507.8076" y2="527.8076"/><polygon fill="#181818" points="111.0117,517.8076,115.0117,527.8076,119.0117,517.8076,115.0117,521.8076" style="stroke:#181818;stroke-width:1;"/><line style="stroke:#181818;stroke-width:1;" x1="346.3018" x2="346.3018" y1="453.8389" y2="473.8389"/><polygon fill="#181818" points="342.3018,463.8389,346.3018,473.8389,350.3018,463.8389,346.3018,467.8389" style="stroke:#181818;stroke-width:1;"/><line style="stroke:#181818;stroke-width:1;" x1="570.1643" x2="570.1643" y1="355.8701" y2="375.8701"/><polygon fill="#181818" points="566.1643,365.8701,570.1643,375.8701,574.1643,365.8701,570.1643,369.8701" style="stroke:#181818;stroke-width:1;"/><line style="stroke:#181818;stroke-width:1;" x1="796.1619" x2="708.0881" y1="387.8701" y2="387.8701"/><line style="stroke:#181818;stroke-width:1;" x1="708.0881" x2="708.0881" y1="387.8701" y2="419.8701"/><polygon fill="#181818" points="704.0881,409.8701,708.0881,419.8701,712.0881,409.8701,708.0881,413.8701" style="stroke:#181818;stroke-width:1;"/><line style="stroke:#181818;stroke-width:1;" x1="828.7332" x2="828.7332" y1="355.8701" y2="375.8701"/><polygon fill="#181818" points="824.7332,365.8701,828.7332,375.8701,832.7332,365.8701,828.7332,369.8701" style="stroke:#181818;stroke-width:1;"/><line style="stroke:#181818;stroke-width:1;" x1="948.1196" x2="828.7332" y1="289.9014" y2="289.9014"/><line style="stroke:#181818;stroke-width:1;" x1="828.7332" x2="828.7332" y1="289.9014" y2="321.9014"/><polygon fill="#181818" points="824.7332,311.9014,828.7332,321.9014,832.7332,311.9014,828.7332,315.9014" style="stroke:#181818;stroke-width:1;"/><line style="stroke:#181818;stroke-width:1;" x1="1001.8396" x2="1001.8396" y1="257.9014" y2="277.9014"/><polygon fill="#181818" points="997.8396,267.9014,1001.8396,277.9014,1005.8396,267.9014,1001.8396,271.9014" style="stroke:#181818;stroke-width:1;"/><line style="stroke:#181818;stroke-width:1;" x1="403.1838" x2="403.1838" y1="203.9326" y2="208.9326"/><line style="stroke:#181818;stroke-width:1;" x1="403.1838" x2="1001.8396" y1="208.9326" y2="208.9326"/><line style="stroke:#181818;stroke-width:1;" x1="1001.8396" x2="1001.8396" y1="208.9326" y2="223.9326"/><polygon fill="#181818" points="997.8396,213.9326,1001.8396,223.9326,1005.8396,213.9326,1001.8396,217.9326" style="stroke:#181818;stroke-width:1;"/><line style="stroke:#181818;stroke-width:1;" x1="708.0881" x2="708.0881" y1="453.8389" y2="458.8389"/><line style="stroke:#181818;stroke-width:1;" x1="708.0881" x2="115.0117" y1="458.8389" y2="458.8389"/><line style="stroke:#181818;stroke-width:1;" x1="115.0117" x2="115.0117" y1="458.8389" y2="473.8389"/><polygon fill="#181818" points="111.0117,463.8389,115.0117,473.8389,119.0117,463.8389,115.0117,467.8389" style="stroke:#181818;stroke-width:1;"/><line style="stroke:#181818;stroke-width:1;" x1="861.3044" x2="873.3044" y1="387.8701" y2="387.8701"/><line style="stroke:#181818;stroke-width:1;" x1="873.3044" x2="873.3044" y1="387.8701" y2="405.8701"/><line style="stroke:#181818;stroke-width:1;" x1="873.3044" x2="346.3018" y1="405.8701" y2="405.8701"/><line style="stroke:#181818;stroke-width:1;" x1="346.3018" x2="346.3018" y1="405.8701" y2="419.8701"/><polygon fill="#181818" points="342.3018,409.8701,346.3018,419.8701,350.3018,409.8701,346.3018,413.8701" style="stroke:#181818;stroke-width:1;"/><line style="stroke:#181818;stroke-width:1;" x1="1055.5596" x2="1067.5596" y1="289.9014" y2="289.9014"/><line style="stroke:#181818;stroke-width:1;" x1="1067.5596" x2="1067.5596" y1="289.9014" y2="307.9014"/><line style="stroke:#181818;stroke-width:1;" x1="1067.5596" x2="570.1643" y1="307.9014" y2="307.9014"/><line style="stroke:#181818;stroke-width:1;" x1="570.1643" x2="570.1643" y1="307.9014" y2="321.9014"/><polygon fill="#181818" points="566.1643,311.9014,570.1643,321.9014,574.1643,311.9014,570.1643,315.9014" style="stroke:#181818;stroke-width:1;"/><text fill="#000000" font-family="sans-serif" font-size="18" lengthAdjust="spacing" textLength="103.7021" x="281.2965" y="66.75">Ng&#432;&#7901;i d&#249;ng</text><text fill="#000000" font-family="sans-serif" font-size="18" lengthAdjust="spacing" textLength="82.6436" x="832.0402" y="66.75">H&#7879; th&#7889;ng</text><?plantuml-src bP6zJiCm58LtFyKTau61XI4PaEW0Kb4t7i0qFxQQEbRYm9Aj0six8eHKLB5HgH8ir0D3ehw7tuHhjqBfpy9sTNNETtokon4NaXPq32MZKVx8HGe9pSgOAAwo6EvwvnTm1bVDXs2GLMQz573Vp3aySBF-KS0sAwDVq2HIner-agGUf7RtoY5glaLQarBHGf5WmD0iqNoQ5EuK0gwDNlAGr3U80yMCdbbAq4VyP0ogeD3EsecDTCIGy0IyTjeizlUNFffZ0Lwl-VG9G1SWZ7x6zrKexhudH9c5OV92GeRvXn34t6vMrP4BuAYs4-ygATPykQottCvpz0xjPcijLIvnYF7guFMTrFyVizDdj5splmhx6IBY2JbCEf4JjDFEBV6oU3jGzgSaAAFVXnRhe0xv2m00?></g></svg>