<?plantuml 1.2026.1?><svg xmlns="http://www.w3.org/2000/svg" xmlns:xlink="http://www.w3.org/1999/xlink" contentStyleType="text/css" data-diagram-type="ACTIVITY" height="587px" preserveAspectRatio="none" style="width:772px;height:587px;background:#FFFFFF;" version="1.1" viewBox="0 0 772 587" width="772px" zoomAndPan="magnify"><title>UC17 - B&#225;o c&#225;o (tin/ng&#432;&#7901;i d&#249;ng/c&#244;ng ty)</title><defs/><g><g class="title" data-source-line="2"><text fill="#000000" font-family="sans-serif" font-size="14" font-weight="bold" lengthAdjust="spacing" textLength="315.834" x="226.8873" y="32.9951">UC17 - B&#225;o c&#225;o (tin/ng&#432;&#7901;i d&#249;ng/c&#244;ng ty)</text></g><rect fill="none" height="20.9531" style="stroke:none;stroke-width:1;" width="739.6086" x="15" y="50.042"/><ellipse cx="234.7896" cy="85.9951" fill="#222222" rx="10" ry="10" style="stroke:#222222;stroke-width:1;"/><rect fill="#F1F1F1" height="33.9688" rx="12.5" ry="12.5" style="stroke:#181818;stroke-width:0.5;" width="188.334" x="140.6226" y="115.9951"/><text fill="#000000" font-family="sans-serif" font-size="12" lengthAdjust="spacing" textLength="168.334" x="150.6226" y="137.1338">Ch&#7885;n &#273;&#7889;i t&#432;&#7907;ng c&#7847;n b&#225;o c&#225;o</text><rect fill="#F1F1F1" height="33.9688" rx="12.5" ry="12.5" style="stroke:#181818;stroke-width:0.5;" width="210.4355" x="129.5718" y="169.9639"/><text fill="#000000" font-family="sans-serif" font-size="12" lengthAdjust="spacing" textLength="190.4355" x="139.5718" y="191.1025">Nh&#7853;p l&#253; do v&#224; n&#7897;i dung b&#225;o c&#225;o</text><rect fill="#F1F1F1" height="33.9688" rx="12.5" ry="12.5" style="stroke:#181818;stroke-width:0.5;" width="126.8281" x="171.3755" y="223.9326"/><text fill="#000000" font-family="sans-serif" font-size="12" lengthAdjust="spacing" textLength="106.8281" x="181.3755" y="245.0713">Nh&#7853;n G&#7917;i b&#225;o c&#225;o</text><rect fill="#F1F1F1" height="33.9688" rx="12.5" ry="12.5" style="stroke:#181818;stroke-width:0.5;" width="210.3945" x="21" y="483.8076"/><text fill="#000000" font-family="sans-serif" font-size="12" lengthAdjust="spacing" textLength="190.3945" x="31" y="504.9463">Nh&#7853;n th&#244;ng b&#225;o g&#7917;i th&#224;nh c&#244;ng</text><ellipse cx="126.1973" cy="548.7764" fill="none" rx="11" ry="11" style="stroke:#222222;stroke-width:1;"/><ellipse cx="126.1973" cy="548.7764" fill="#222222" rx="6" ry="6" style="stroke:#222222;stroke-width:1;"/><rect fill="#F1F1F1" height="33.9688" rx="12.5" ry="12.5" style="stroke:#181818;stroke-width:0.5;" width="154.2617" x="266.251" y="375.8701"/><text fill="#000000" font-family="sans-serif" font-size="12" lengthAdjust="spacing" textLength="134.2617" x="276.251" y="397.0088">&#272;&#259;ng nh&#7853;p &#273;&#7875; ti&#7871;p t&#7909;c</text><ellipse cx="343.3818" cy="440.8389" fill="none" rx="11" ry="11" style="stroke:#222222;stroke-width:1;"/><ellipse cx="343.3818" cy="440.8389" fill="#222222" rx="6" ry="6" style="stroke:#222222;stroke-width:1;"/><line style="stroke:#000000;stroke-width:1.5;" x1="15" x2="15" y1="50.042" y2="575.7764"/><rect fill="#F1F1F1" height="33.9688" rx="12.5" ry="12.5" style="stroke:#181818;stroke-width:0.5;" width="139.0859" x="589.6157" y="277.9014"/><text fill="#000000" font-family="sans-serif" font-size="12" lengthAdjust="spacing" textLength="119.0859" x="599.6157" y="299.04">Ki&#7875;m tra &#273;&#259;ng nh&#7853;p</text><polygon fill="#F1F1F1" points="617.4387,331.8701,700.8787,331.8701,712.8787,343.8701,700.8787,355.8701,617.4387,355.8701,605.4387,343.8701,617.4387,331.8701" style="stroke:#181818;stroke-width:0.5;"/><text fill="#000000" font-family="sans-serif" font-size="11" lengthAdjust="spacing" textLength="83.4399" x="617.4387" y="347.6782">&#272;&#227; &#273;&#259;ng nh&#7853;p?</text><text fill="#000000" font-family="sans-serif" font-size="11" lengthAdjust="spacing" textLength="14.4106" x="591.0281" y="341.2759">C&#243;</text><text fill="#000000" font-family="sans-serif" font-size="11" lengthAdjust="spacing" textLength="34.8691" x="712.8787" y="341.2759">Kh&#244;ng</text><rect fill="#F1F1F1" height="33.9688" rx="12.5" ry="12.5" style="stroke:#181818;stroke-width:0.5;" width="93.1309" x="504.001" y="375.8701"/><text fill="#000000" font-family="sans-serif" font-size="12" lengthAdjust="spacing" textLength="73.1309" x="514.001" y="397.0088">L&#432;u b&#225;o c&#225;o</text><rect fill="#F1F1F1" height="33.9688" rx="12.5" ry="12.5" style="stroke:#181818;stroke-width:0.5;" width="240.1074" x="430.5127" y="429.8389"/><text fill="#000000" font-family="sans-serif" font-size="12" lengthAdjust="spacing" textLength="220.1074" x="440.5127" y="450.9775">Chuy&#7875;n b&#225;o c&#225;o v&#224;o h&#224;ng ch&#7901; duy&#7879;t</text><line style="stroke:#000000;stroke-width:1.5;" x1="424.5127" x2="424.5127" y1="50.042" y2="575.7764"/><line style="stroke:#000000;stroke-width:1.5;" x1="752.7478" x2="752.7478" y1="50.042" y2="575.7764"/><line style="stroke:#181818;stroke-width:1;" x1="234.7896" x2="234.7896" y1="95.9951" y2="115.9951"/><polygon fill="#181818" points="230.7896,105.9951,234.7896,115.9951,238.7896,105.9951,234.7896,109.9951" style="stroke:#181818;stroke-width:1;"/><line style="stroke:#181818;stroke-width:1;" x1="234.7896" x2="234.7896" y1="149.9639" y2="169.9639"/><polygon fill="#181818" points="230.7896,159.9639,234.7896,169.9639,238.7896,159.9639,234.7896,163.9639" style="stroke:#181818;stroke-width:1;"/><line style="stroke:#181818;stroke-width:1;" x1="234.7896" x2="234.7896" y1="203.9326" y2="223.9326"/><polygon fill="#181818" points="230.7896,213.9326,234.7896,223.9326,238.7896,213.9326,234.7896,217.9326" style="stroke:#181818;stroke-width:1;"/><line style="stroke:#181818;stroke-width:1;" x1="126.1973" x2="126.1973" y1="517.7764" y2="537.7764"/><polygon fill="#181818" points="122.1973,527.7764,126.1973,537.7764,130.1973,527.7764,126.1973,531.7764" style="stroke:#181818;stroke-width:1;"/><line style="stroke:#181818;stroke-width:1;" x1="343.3818" x2="343.3818" y1="409.8389" y2="429.8389"/><polygon fill="#181818" points="339.3818,419.8389,343.3818,429.8389,347.3818,419.8389,343.3818,423.8389" style="stroke:#181818;stroke-width:1;"/><line style="stroke:#181818;stroke-width:1;" x1="550.5664" x2="550.5664" y1="409.8389" y2="429.8389"/><polygon fill="#181818" points="546.5664,419.8389,550.5664,429.8389,554.5664,419.8389,550.5664,423.8389" style="stroke:#181818;stroke-width:1;"/><line style="stroke:#181818;stroke-width:1;" x1="605.4387" x2="550.5664" y1="343.8701" y2="343.8701"/><line style="stroke:#181818;stroke-width:1;" x1="550.5664" x2="550.5664" y1="343.8701" y2="375.8701"/><polygon fill="#181818" points="546.5664,365.8701,550.5664,375.8701,554.5664,365.8701,550.5664,369.8701" style="stroke:#181818;stroke-width:1;"/><line style="stroke:#181818;stroke-width:1;" x1="659.1587" x2="659.1587" y1="311.8701" y2="331.8701"/><polygon fill="#181818" points="655.1587,321.8701,659.1587,331.8701,663.1587,321.8701,659.1587,325.8701" style="stroke:#181818;stroke-width:1;"/><line style="stroke:#181818;stroke-width:1;" x1="234.7896" x2="234.7896" y1="257.9014" y2="262.9014"/><line style="stroke:#181818;stroke-width:1;" x1="234.7896" x2="659.1587" y1="262.9014" y2="262.9014"/><line style="stroke:#181818;stroke-width:1;" x1="659.1587" x2="659.1587" y1="262.9014" y2="277.9014"/><polygon fill="#181818" points="655.1587,267.9014,659.1587,277.9014,663.1587,267.9014,659.1587,271.9014" style="stroke:#181818;stroke-width:1;"/><line style="stroke:#181818;stroke-width:1;" x1="550.5664" x2="550.5664" y1="463.8076" y2="468.8076"/><line style="stroke:#181818;stroke-width:1;" x1="550.5664" x2="126.1973" y1="468.8076" y2="468.8076"/><line style="stroke:#181818;stroke-width:1;" x1="126.1973" x2="126.1973" y1="468.8076" y2="483.8076"/><polygon fill="#181818" points="122.1973,473.8076,126.1973,483.8076,130.1973,473.8076,126.1973,477.8076" style="stroke:#181818;stroke-width:1;"/><line style="stroke:#181818;stroke-width:1;" x1="712.8787" x2="724.8787" y1="343.8701" y2="343.8701"/><line style="stroke:#181818;stroke-width:1;" x1="724.8787" x2="724.8787" y1="343.8701" y2="361.8701"/><line style="stroke:#181818;stroke-width:1;" x1="724.8787" x2="343.3818" y1="361.8701" y2="361.8701"/><line style="stroke:#181818;stroke-width:1;" x1="343.3818" x2="343.3818" y1="361.8701" y2="375.8701"/><polygon fill="#181818" points="339.3818,365.8701,343.3818,375.8701,347.3818,365.8701,343.3818,369.8701" style="stroke:#181818;stroke-width:1;"/><text fill="#000000" font-family="sans-serif" font-size="18" lengthAdjust="spacing" textLength="103.7021" x="167.9053" y="66.75">Ng&#432;&#7901;i d&#249;ng</text><text fill="#000000" font-family="sans-serif" font-size="18" lengthAdjust="spacing" textLength="82.6436" x="547.3085" y="66.75">H&#7879; th&#7889;ng</text><?plantuml-src TP6_IWD14CRxVOefxme9LiAb4Bn28PBE1pZltoucUqTkJWcaIv5AI4gBG2I8LI2WZLd4Oe-ynxw9iulYXM2pnSmtl--RsUfEo38QHKEeU9GK3qBca4M3AcKeS932JNXw1YTmePyBYEtZeP0TcU-tHYq59Ff3vfrOlzCOZdqswHzq9gp2Q8Gi2BbHZnAQXL4B0MWrQng9pUvLmkqllCk2FZUxJGa3_Gb90VTw1TAe9yBL93yIIhWqQYFQZScLKJD0ybjO_w0dZ9eE0KSHkJTJeaXdqMKY0w-Pw_LX_ToduLI25-etdm44r_jjtJQWKiZhCL5RoMtI0hXUsQN8Uqc1IJ93gpyw2Y5-uYDtftEStAs25iB1dTGELrYKBAKF0Q_dnFu_n6RUsi9TUWeepEwh13Jg9Vw3oKHatm00?></g></svg>