<?plantuml 1.2026.1?><svg xmlns="http://www.w3.org/2000/svg" xmlns:xlink="http://www.w3.org/1999/xlink" contentStyleType="text/css" data-diagram-type="ACTIVITY" height="527px" preserveAspectRatio="none" style="width:531px;height:527px;background:#FFFFFF;" version="1.1" viewBox="0 0 531 527" width="531px" zoomAndPan="magnify"><title>UC18 - Nh&#7855;n tin</title><defs/><g><g class="title" data-source-line="2"><text fill="#000000" font-family="sans-serif" font-size="14" font-weight="bold" lengthAdjust="spacing" textLength="124.1133" x="202.2" y="32.9951">UC18 - Nh&#7855;n tin</text></g><rect fill="none" height="20.9531" style="stroke:none;stroke-width:1;" width="498.5132" x="15" y="50.042"/><ellipse cx="148.7119" cy="85.9951" fill="#222222" rx="10" ry="10" style="stroke:#222222;stroke-width:1;"/><rect fill="#F1F1F1" height="33.9688" rx="12.5" ry="12.5" style="stroke:#181818;stroke-width:0.5;" width="93.9453" x="101.7393" y="115.9951"/><text fill="#000000" font-family="sans-serif" font-size="12" lengthAdjust="spacing" textLength="73.9453" x="111.7393" y="137.1338">M&#7903; h&#7897;i tho&#7841;i</text><rect fill="#F1F1F1" height="33.9688" rx="12.5" ry="12.5" style="stroke:#181818;stroke-width:0.5;" width="161.3516" x="68.0361" y="169.9639"/><text fill="#000000" font-family="sans-serif" font-size="12" lengthAdjust="spacing" textLength="141.3516" x="78.0361" y="191.1025">Nh&#7853;p n&#7897;i dung tin nh&#7855;n</text><rect fill="#F1F1F1" height="33.9688" rx="12.5" ry="12.5" style="stroke:#181818;stroke-width:0.5;" width="75.5938" x="110.915" y="223.9326"/><text fill="#000000" font-family="sans-serif" font-size="12" lengthAdjust="spacing" textLength="55.5938" x="120.915" y="245.0713">Nh&#7853;n G&#7917;i</text><rect fill="#F1F1F1" height="33.9688" rx="12.5" ry="12.5" style="stroke:#181818;stroke-width:0.5;" width="255.4238" x="21" y="439.8076"/><text fill="#000000" font-family="sans-serif" font-size="12" lengthAdjust="spacing" textLength="235.4238" x="31" y="460.9463">Th&#7845;y tin nh&#7855;n xu&#7845;t hi&#7879;n trong h&#7897;i tho&#7841;i</text><ellipse cx="148.7119" cy="504.7764" fill="none" rx="11" ry="11" style="stroke:#222222;stroke-width:1;"/><ellipse cx="148.7119" cy="504.7764" fill="#222222" rx="6" ry="6" style="stroke:#222222;stroke-width:1;"/><line style="stroke:#000000;stroke-width:1.5;" x1="15" x2="15" y1="50.042" y2="515.7764"/><rect fill="#F1F1F1" height="33.9688" rx="12.5" ry="12.5" style="stroke:#181818;stroke-width:0.5;" width="139.0859" x="327.4951" y="277.9014"/><text fill="#000000" font-family="sans-serif" font-size="12" lengthAdjust="spacing" textLength="119.0859" x="337.4951" y="299.04">Ki&#7875;m tra &#273;&#259;ng nh&#7853;p</text><rect fill="#F1F1F1" height="33.9688" rx="12.5" ry="12.5" style="stroke:#181818;stroke-width:0.5;" width="95.3398" x="349.3682" y="331.8701"/><text fill="#000000" font-family="sans-serif" font-size="12" lengthAdjust="spacing" textLength="75.3398" x="359.3682" y="353.0088">L&#432;u tin nh&#7855;n</text><rect fill="#F1F1F1" height="33.9688" rx="12.5" ry="12.5" style="stroke:#181818;stroke-width:0.5;" width="221.2285" x="286.4238" y="385.8389"/><text fill="#000000" font-family="sans-serif" font-size="12" lengthAdjust="spacing" textLength="201.2285" x="296.4238" y="406.9775">&#272;&#7891;ng b&#7897; realtime cho ng&#432;&#7901;i nh&#7853;n</text><line style="stroke:#000000;stroke-width:1.5;" x1="280.4238" x2="280.4238" y1="50.042" y2="515.7764"/><line style="stroke:#000000;stroke-width:1.5;" x1="511.6523" x2="511.6523" y1="50.042" y2="515.7764"/><line style="stroke:#181818;stroke-width:1;" x1="148.7119" x2="148.7119" y1="95.9951" y2="115.9951"/><polygon fill="#181818" points="144.7119,105.9951,148.7119,115.9951,152.7119,105.9951,148.7119,109.9951" style="stroke:#181818;stroke-width:1;"/><line style="stroke:#181818;stroke-width:1;" x1="148.7119" x2="148.7119" y1="149.9639" y2="169.9639"/><polygon fill="#181818" points="144.7119,159.9639,148.7119,169.9639,152.7119,159.9639,148.7119,163.9639" style="stroke:#181818;stroke-width:1;"/><line style="stroke:#181818;stroke-width:1;" x1="148.7119" x2="148.7119" y1="203.9326" y2="223.9326"/><polygon fill="#181818" points="144.7119,213.9326,148.7119,223.9326,152.7119,213.9326,148.7119,217.9326" style="stroke:#181818;stroke-width:1;"/><line style="stroke:#181818;stroke-width:1;" x1="148.7119" x2="148.7119" y1="473.7764" y2="493.7764"/><polygon fill="#181818" points="144.7119,483.7764,148.7119,493.7764,152.7119,483.7764,148.7119,487.7764" style="stroke:#181818;stroke-width:1;"/><line style="stroke:#181818;stroke-width:1;" x1="397.0381" x2="397.0381" y1="311.8701" y2="331.8701"/><polygon fill="#181818" points="393.0381,321.8701,397.0381,331.8701,401.0381,321.8701,397.0381,325.8701" style="stroke:#181818;stroke-width:1;"/><line style="stroke:#181818;stroke-width:1;" x1="397.0381" x2="397.0381" y1="365.8389" y2="385.8389"/><polygon fill="#181818" points="393.0381,375.8389,397.0381,385.8389,401.0381,375.8389,397.0381,379.8389" style="stroke:#181818;stroke-width:1;"/><line style="stroke:#181818;stroke-width:1;" x1="148.7119" x2="148.7119" y1="257.9014" y2="262.9014"/><line style="stroke:#181818;stroke-width:1;" x1="148.7119" x2="397.0381" y1="262.9014" y2="262.9014"/><line style="stroke:#181818;stroke-width:1;" x1="397.0381" x2="397.0381" y1="262.9014" y2="277.9014"/><polygon fill="#181818" points="393.0381,267.9014,397.0381,277.9014,401.0381,267.9014,397.0381,271.9014" style="stroke:#181818;stroke-width:1;"/><line style="stroke:#181818;stroke-width:1;" x1="397.0381" x2="397.0381" y1="419.8076" y2="424.8076"/><line style="stroke:#181818;stroke-width:1;" x1="397.0381" x2="148.7119" y1="424.8076" y2="424.8076"/><line style="stroke:#181818;stroke-width:1;" x1="148.7119" x2="148.7119" y1="424.8076" y2="439.8076"/><polygon fill="#181818" points="144.7119,429.8076,148.7119,439.8076,152.7119,429.8076,148.7119,433.8076" style="stroke:#181818;stroke-width:1;"/><text fill="#000000" font-family="sans-serif" font-size="18" lengthAdjust="spacing" textLength="85.8691" x="104.7773" y="66.75">Ng&#432;&#7901;i g&#7917;i</text><text fill="#000000" font-family="sans-serif" font-size="18" lengthAdjust="spacing" textLength="82.6436" x="354.7163" y="66.75">H&#7879; th&#7889;ng</text><?plantuml-src POynJiD044NxFSM_00KTSaeAa81KS8256Ey8UzVQ7GkGtAL8IqH5WH05PKJgR6lb7dCJ9fOYGMZdptipFpsGRssq3PApi_18liAzhLDfcBWkSNDwV88ZJ9rilZsOlEcdrNOj-PrGILvHRnBRoAQualm19_cDm2x8vfCcfjXngnP-7CywbQi2VhJjOu-pdMXY-dF92uKbBttLc-A29CyRSBGObiDSOJ_g5BpShhk_gk55ygkktEefnDBMJ4s9EnVWz_-EjEx-Qr1SQ_Br_4k8fqud3ASlBBHt3Ae-A9Suj3y0?></g></svg>