<?plantuml 1.2026.1?><svg xmlns="http://www.w3.org/2000/svg" xmlns:xlink="http://www.w3.org/1999/xlink" contentStyleType="text/css" data-diagram-type="ACTIVITY" height="635px" preserveAspectRatio="none" style="width:537px;height:635px;background:#FFFFFF;" version="1.1" viewBox="0 0 537 635" width="537px" zoomAndPan="magnify"><title>UC19 - Qu&#7843;n l&#253; nh&#7853;t k&#253;</title><defs/><g><g class="title" data-source-line="2"><text fill="#000000" font-family="sans-serif" font-size="14" font-weight="bold" lengthAdjust="spacing" textLength="181.0225" x="176.8333" y="32.9951">UC19 - Qu&#7843;n l&#253; nh&#7853;t k&#253;</text></g><rect fill="none" height="20.9531" style="stroke:none;stroke-width:1;" width="504.689" x="15" y="50.042"/><ellipse cx="163.1729" cy="85.9951" fill="#222222" rx="10" ry="10" style="stroke:#222222;stroke-width:1;"/><rect fill="#F1F1F1" height="33.9688" rx="12.5" ry="12.5" style="stroke:#181818;stroke-width:0.5;" width="195.3184" x="65.5137" y="115.9951"/><text fill="#000000" font-family="sans-serif" font-size="12" lengthAdjust="spacing" textLength="175.3184" x="75.5137" y="137.1338">M&#7903; m&#224;n h&#236;nh qu&#7843;n l&#253; nh&#7853;t k&#253;</text><rect fill="#F1F1F1" height="33.9688" rx="12.5" ry="12.5" style="stroke:#181818;stroke-width:0.5;" width="284.3457" x="21" y="169.9639"/><text fill="#000000" font-family="sans-serif" font-size="12" lengthAdjust="spacing" textLength="264.3457" x="31" y="191.1025">Nh&#7853;p b&#7897; l&#7885;c th&#7901;i gian, &#273;&#7889;i t&#432;&#7907;ng, h&#224;nh &#273;&#7897;ng</text><rect fill="#F1F1F1" height="33.9688" rx="12.5" ry="12.5" style="stroke:#181818;stroke-width:0.5;" width="161.8613" x="82.2422" y="331.8701"/><text fill="#000000" font-family="sans-serif" font-size="12" lengthAdjust="spacing" textLength="141.8613" x="92.2422" y="353.0088">Xem danh s&#225;ch nh&#7853;t k&#253;</text><rect fill="#F1F1F1" height="33.9688" rx="12.5" ry="12.5" style="stroke:#181818;stroke-width:0.5;" width="78.4063" x="123.9697" y="503.21"/><text fill="#000000" font-family="sans-serif" font-size="12" lengthAdjust="spacing" textLength="58.4063" x="133.9697" y="524.3486">T&#7843;i file v&#7873;</text><polygon fill="#F1F1F1" points="125.4167,385.8389,200.929,385.8389,212.929,397.8389,200.929,409.8389,125.4167,409.8389,113.4167,397.8389,125.4167,385.8389" style="stroke:#181818;stroke-width:0.5;"/><text fill="#000000" font-family="sans-serif" font-size="11" lengthAdjust="spacing" textLength="14.4106" x="167.1729" y="420.0493">C&#243;</text><text fill="#000000" font-family="sans-serif" font-size="11" lengthAdjust="spacing" textLength="75.5122" x="125.4167" y="401.647">C&#7847;n xu&#7845;t file?</text><polygon fill="#F1F1F1" points="163.1729,557.1787,175.1729,569.1787,163.1729,581.1787,151.1729,569.1787,163.1729,557.1787" style="stroke:#181818;stroke-width:0.5;"/><ellipse cx="163.1729" cy="612.1787" fill="none" rx="11" ry="11" style="stroke:#222222;stroke-width:1;"/><ellipse cx="163.1729" cy="612.1787" fill="#222222" rx="6" ry="6" style="stroke:#222222;stroke-width:1;"/><line style="stroke:#000000;stroke-width:1.5;" x1="15" x2="15" y1="50.042" y2="623.1787"/><rect fill="#F1F1F1" height="33.9688" rx="12.5" ry="12.5" style="stroke:#181818;stroke-width:0.5;" width="198.4824" x="315.3457" y="223.9326"/><text fill="#000000" font-family="sans-serif" font-size="12" lengthAdjust="spacing" textLength="178.4824" x="325.3457" y="245.0713">Ki&#7875;m tra &#273;&#259;ng nh&#7853;p v&#224; quy&#7873;n</text><rect fill="#F1F1F1" height="33.9688" rx="12.5" ry="12.5" style="stroke:#181818;stroke-width:0.5;" width="179.2871" x="324.9434" y="277.9014"/><text fill="#000000" font-family="sans-serif" font-size="12" lengthAdjust="spacing" textLength="159.2871" x="334.9434" y="299.04">Truy v&#7845;n nh&#7853;t k&#253; h&#7879; th&#7889;ng</text><rect fill="#F1F1F1" height="33.9688" rx="12.5" ry="12.5" style="stroke:#181818;stroke-width:0.5;" width="143.6445" x="342.7646" y="434.2412"/><text fill="#000000" font-family="sans-serif" font-size="12" lengthAdjust="spacing" textLength="123.6445" x="352.7646" y="455.3799">T&#7841;o file xu&#7845;t nh&#7853;t k&#253;</text><line style="stroke:#000000;stroke-width:1.5;" x1="309.3457" x2="309.3457" y1="50.042" y2="623.1787"/><line style="stroke:#000000;stroke-width:1.5;" x1="517.8281" x2="517.8281" y1="50.042" y2="623.1787"/><line style="stroke:#181818;stroke-width:1;" x1="163.1729" x2="163.1729" y1="95.9951" y2="115.9951"/><polygon fill="#181818" points="159.1729,105.9951,163.1729,115.9951,167.1729,105.9951,163.1729,109.9951" style="stroke:#181818;stroke-width:1;"/><line style="stroke:#181818;stroke-width:1;" x1="163.1729" x2="163.1729" y1="149.9639" y2="169.9639"/><polygon fill="#181818" points="159.1729,159.9639,163.1729,169.9639,167.1729,159.9639,163.1729,163.9639" style="stroke:#181818;stroke-width:1;"/><line style="stroke:#181818;stroke-width:1;" x1="113.4167" x2="81.3506" y1="397.8389" y2="397.8389"/><polygon fill="#181818" points="77.3506,475.71,81.3506,485.71,85.3506,475.71,81.3506,479.71" style="stroke:#181818;stroke-width:1;"/><line style="stroke:#181818;stroke-width:1;" x1="81.3506" x2="81.3506" y1="397.8389" y2="569.1787"/><line style="stroke:#181818;stroke-width:1;" x1="81.3506" x2="151.1729" y1="569.1787" y2="569.1787"/><polygon fill="#181818" points="141.1729,565.1787,151.1729,569.1787,141.1729,573.1787,145.1729,569.1787" style="stroke:#181818;stroke-width:1;"/><line style="stroke:#181818;stroke-width:1;" x1="163.1729" x2="163.1729" y1="537.1787" y2="557.1787"/><polygon fill="#181818" points="159.1729,547.1787,163.1729,557.1787,167.1729,547.1787,163.1729,551.1787" style="stroke:#181818;stroke-width:1;"/><line style="stroke:#181818;stroke-width:1;" x1="163.1729" x2="163.1729" y1="365.8389" y2="385.8389"/><polygon fill="#181818" points="159.1729,375.8389,163.1729,385.8389,167.1729,375.8389,163.1729,379.8389" style="stroke:#181818;stroke-width:1;"/><line style="stroke:#181818;stroke-width:1;" x1="163.1729" x2="163.1729" y1="581.1787" y2="601.1787"/><polygon fill="#181818" points="159.1729,591.1787,163.1729,601.1787,167.1729,591.1787,163.1729,595.1787" style="stroke:#181818;stroke-width:1;"/><line style="stroke:#181818;stroke-width:1;" x1="414.5869" x2="414.5869" y1="257.9014" y2="277.9014"/><polygon fill="#181818" points="410.5869,267.9014,414.5869,277.9014,418.5869,267.9014,414.5869,271.9014" style="stroke:#181818;stroke-width:1;"/><line style="stroke:#181818;stroke-width:1;" x1="163.1729" x2="163.1729" y1="203.9326" y2="208.9326"/><line style="stroke:#181818;stroke-width:1;" x1="163.1729" x2="414.5869" y1="208.9326" y2="208.9326"/><line style="stroke:#181818;stroke-width:1;" x1="414.5869" x2="414.5869" y1="208.9326" y2="223.9326"/><polygon fill="#181818" points="410.5869,213.9326,414.5869,223.9326,418.5869,213.9326,414.5869,217.9326" style="stroke:#181818;stroke-width:1;"/><line style="stroke:#181818;stroke-width:1;" x1="414.5869" x2="414.5869" y1="311.8701" y2="316.8701"/><line style="stroke:#181818;stroke-width:1;" x1="414.5869" x2="163.1729" y1="316.8701" y2="316.8701"/><line style="stroke:#181818;stroke-width:1;" x1="163.1729" x2="163.1729" y1="316.8701" y2="331.8701"/><polygon fill="#181818" points="159.1729,321.8701,163.1729,331.8701,167.1729,321.8701,163.1729,325.8701" style="stroke:#181818;stroke-width:1;"/><line style="stroke:#181818;stroke-width:1;" x1="414.5869" x2="414.5869" y1="468.21" y2="485.71"/><line style="stroke:#181818;stroke-width:1;" x1="414.5869" x2="163.1729" y1="485.71" y2="485.71"/><line style="stroke:#181818;stroke-width:1;" x1="163.1729" x2="163.1729" y1="485.71" y2="503.21"/><polygon fill="#181818" points="159.1729,493.21,163.1729,503.21,167.1729,493.21,163.1729,497.21" style="stroke:#181818;stroke-width:1;"/><line style="stroke:#181818;stroke-width:1;" x1="163.1729" x2="163.1729" y1="409.8389" y2="422.04"/><line style="stroke:#181818;stroke-width:1;" x1="163.1729" x2="414.5869" y1="422.04" y2="422.04"/><line style="stroke:#181818;stroke-width:1;" x1="414.5869" x2="414.5869" y1="422.04" y2="434.2412"/><polygon fill="#181818" points="410.5869,424.2412,414.5869,434.2412,418.5869,424.2412,414.5869,428.2412" style="stroke:#181818;stroke-width:1;"/><text fill="#000000" font-family="sans-serif" font-size="18" lengthAdjust="spacing" textLength="117.0527" x="103.6465" y="66.75">Qu&#7843;n tr&#7883; vi&#234;n</text><text fill="#000000" font-family="sans-serif" font-size="18" lengthAdjust="spacing" textLength="82.6436" x="372.2651" y="66.75">H&#7879; th&#7889;ng</text><?plantuml-src RP2zIWD158NxUOfJ6eY5fRk5HHf158G8jcEoFqDsR-BkP3MmZQIm48kKASI440HH4EnsI3N1zxXluYHHY99oxjplctCcxoZgoKoco6FPxjueYX3A90-4LZe9SD4uECG-pljSpGY9NO1YhjurEdOXof-npjWye53sbKgHQvbfuPsoUKPg9uJOlb6Cwrq6NtXdgqCFLsp6IDWyjg1ZDayAaP9KntB4PgIWlpxOp2YgEzl4sLRZCKM-A8_PtA-H4KMby4uKcs7g4actinowDhHveB0Jbs70vexSgysiFq31rPosqY3USlcxstcNGOgsT15oEst5Vxge47iDhbu8juwSQuGg2OvgpXYGkx6VDG7y2mnuJQwctVNkBxSjTSIk71jkfZPSuMhv8g2s2jt_TtlV?></g></svg>