<?plantuml 1.2026.1?><svg xmlns="http://www.w3.org/2000/svg" xmlns:xlink="http://www.w3.org/1999/xlink" contentStyleType="text/css" data-diagram-type="ACTIVITY" height="587px" preserveAspectRatio="none" style="width:661px;height:587px;background:#FFFFFF;" version="1.1" viewBox="0 0 661 587" width="661px" zoomAndPan="magnify"><title>UC20 - Qu&#7843;n l&#253; tin tuy&#7875;n d&#7909;ng</title><defs/><g><g class="title" data-source-line="2"><text fill="#000000" font-family="sans-serif" font-size="14" font-weight="bold" lengthAdjust="spacing" textLength="238.0684" x="210.2483" y="32.9951">UC20 - Qu&#7843;n l&#253; tin tuy&#7875;n d&#7909;ng</text></g><rect fill="none" height="20.9531" style="stroke:none;stroke-width:1;" width="628.5649" x="15" y="50.042"/><ellipse cx="204.6416" cy="85.9951" fill="#222222" rx="10" ry="10" style="stroke:#222222;stroke-width:1;"/><rect fill="#F1F1F1" height="33.9688" rx="12.5" ry="12.5" style="stroke:#181818;stroke-width:0.5;" width="213.9043" x="97.6895" y="115.9951"/><text fill="#000000" font-family="sans-serif" font-size="12" lengthAdjust="spacing" textLength="193.9043" x="107.6895" y="137.1338">M&#7903; trang qu&#7843;n l&#253; tin tuy&#7875;n d&#7909;ng</text><rect fill="#F1F1F1" height="33.9688" rx="12.5" ry="12.5" style="stroke:#181818;stroke-width:0.5;" width="269.5215" x="69.8809" y="277.9014"/><text fill="#000000" font-family="sans-serif" font-size="12" lengthAdjust="spacing" textLength="249.5215" x="79.8809" y="299.04">Ch&#7885;n t&#7841;o m&#7899;i/ch&#7881;nh s&#7917;a/&#273;&#243;ng tin/&#273;&#259;ng tin</text><rect fill="#F1F1F1" height="33.9688" rx="12.5" ry="12.5" style="stroke:#181818;stroke-width:0.5;" width="188.0234" x="21" y="483.8076"/><text fill="#000000" font-family="sans-serif" font-size="12" lengthAdjust="spacing" textLength="168.0234" x="31" y="504.9463">Nh&#7853;n th&#244;ng b&#225;o th&#224;nh c&#244;ng</text><ellipse cx="115.0117" cy="548.7764" fill="none" rx="11" ry="11" style="stroke:#222222;stroke-width:1;"/><ellipse cx="115.0117" cy="548.7764" fill="#222222" rx="6" ry="6" style="stroke:#222222;stroke-width:1;"/><rect fill="#F1F1F1" height="33.9688" rx="12.5" ry="12.5" style="stroke:#181818;stroke-width:0.5;" width="130.4961" x="229.0234" y="429.8389"/><text fill="#000000" font-family="sans-serif" font-size="12" lengthAdjust="spacing" textLength="110.4961" x="239.0234" y="450.9775">Nh&#7853;n l&#7895;i v&#224; s&#7917;a l&#7841;i</text><ellipse cx="294.2715" cy="494.8076" fill="none" rx="11" ry="11" style="stroke:#222222;stroke-width:1;"/><ellipse cx="294.2715" cy="494.8076" fill="#222222" rx="6" ry="6" style="stroke:#222222;stroke-width:1;"/><line style="stroke:#000000;stroke-width:1.5;" x1="15" x2="15" y1="50.042" y2="575.7764"/><rect fill="#F1F1F1" height="33.9688" rx="12.5" ry="12.5" style="stroke:#181818;stroke-width:0.5;" width="139.0859" x="482.8652" y="169.9639"/><text fill="#000000" font-family="sans-serif" font-size="12" lengthAdjust="spacing" textLength="119.0859" x="492.8652" y="191.1025">Ki&#7875;m tra &#273;&#259;ng nh&#7853;p</text><rect fill="#F1F1F1" height="33.9688" rx="12.5" ry="12.5" style="stroke:#181818;stroke-width:0.5;" width="170.5918" x="467.1123" y="223.9326"/><text fill="#000000" font-family="sans-serif" font-size="12" lengthAdjust="spacing" textLength="150.5918" x="477.1123" y="245.0713">T&#7843;i danh s&#225;ch tin hi&#7879;n c&#243;</text><rect fill="#F1F1F1" height="33.9688" rx="12.5" ry="12.5" style="stroke:#181818;stroke-width:0.5;" width="115.5898" x="494.6133" y="331.8701"/><text fill="#000000" font-family="sans-serif" font-size="12" lengthAdjust="spacing" textLength="95.5898" x="504.6133" y="353.0088">Ki&#7875;m tra d&#7919; li&#7879;u</text><polygon fill="#F1F1F1" points="531.8369,385.8389,572.9795,385.8389,584.9795,397.8389,572.9795,409.8389,531.8369,409.8389,519.8369,397.8389,531.8369,385.8389" style="stroke:#181818;stroke-width:0.5;"/><text fill="#000000" font-family="sans-serif" font-size="11" lengthAdjust="spacing" textLength="41.1426" x="531.8369" y="401.647">H&#7907;p l&#7879;?</text><text fill="#000000" font-family="sans-serif" font-size="11" lengthAdjust="spacing" textLength="14.4106" x="505.4263" y="395.2446">C&#243;</text><text fill="#000000" font-family="sans-serif" font-size="11" lengthAdjust="spacing" textLength="34.8691" x="584.9795" y="395.2446">Kh&#244;ng</text><rect fill="#F1F1F1" height="33.9688" rx="12.5" ry="12.5" style="stroke:#181818;stroke-width:0.5;" width="186.5176" x="369.5195" y="429.8389"/><text fill="#000000" font-family="sans-serif" font-size="12" lengthAdjust="spacing" textLength="166.5176" x="379.5195" y="450.9775">L&#432;u thay &#273;&#7893;i tin tuy&#7875;n d&#7909;ng</text><line style="stroke:#000000;stroke-width:1.5;" x1="363.5195" x2="363.5195" y1="50.042" y2="575.7764"/><line style="stroke:#000000;stroke-width:1.5;" x1="641.7041" x2="641.7041" y1="50.042" y2="575.7764"/><line style="stroke:#181818;stroke-width:1;" x1="204.6416" x2="204.6416" y1="95.9951" y2="115.9951"/><polygon fill="#181818" points="200.6416,105.9951,204.6416,115.9951,208.6416,105.9951,204.6416,109.9951" style="stroke:#181818;stroke-width:1;"/><line style="stroke:#181818;stroke-width:1;" x1="115.0117" x2="115.0117" y1="517.7764" y2="537.7764"/><polygon fill="#181818" points="111.0117,527.7764,115.0117,537.7764,119.0117,527.7764,115.0117,531.7764" style="stroke:#181818;stroke-width:1;"/><line style="stroke:#181818;stroke-width:1;" x1="294.2715" x2="294.2715" y1="463.8076" y2="483.8076"/><polygon fill="#181818" points="290.2715,473.8076,294.2715,483.8076,298.2715,473.8076,294.2715,477.8076" style="stroke:#181818;stroke-width:1;"/><line style="stroke:#181818;stroke-width:1;" x1="552.4082" x2="552.4082" y1="203.9326" y2="223.9326"/><polygon fill="#181818" points="548.4082,213.9326,552.4082,223.9326,556.4082,213.9326,552.4082,217.9326" style="stroke:#181818;stroke-width:1;"/><line style="stroke:#181818;stroke-width:1;" x1="519.8369" x2="462.7783" y1="397.8389" y2="397.8389"/><line style="stroke:#181818;stroke-width:1;" x1="462.7783" x2="462.7783" y1="397.8389" y2="429.8389"/><polygon fill="#181818" points="458.7783,419.8389,462.7783,429.8389,466.7783,419.8389,462.7783,423.8389" style="stroke:#181818;stroke-width:1;"/><line style="stroke:#181818;stroke-width:1;" x1="552.4082" x2="552.4082" y1="365.8389" y2="385.8389"/><polygon fill="#181818" points="548.4082,375.8389,552.4082,385.8389,556.4082,375.8389,552.4082,379.8389" style="stroke:#181818;stroke-width:1;"/><line style="stroke:#181818;stroke-width:1;" x1="204.6416" x2="204.6416" y1="149.9639" y2="154.9639"/><line style="stroke:#181818;stroke-width:1;" x1="204.6416" x2="552.4082" y1="154.9639" y2="154.9639"/><line style="stroke:#181818;stroke-width:1;" x1="552.4082" x2="552.4082" y1="154.9639" y2="169.9639"/><polygon fill="#181818" points="548.4082,159.9639,552.4082,169.9639,556.4082,159.9639,552.4082,163.9639" style="stroke:#181818;stroke-width:1;"/><line style="stroke:#181818;stroke-width:1;" x1="552.4082" x2="552.4082" y1="257.9014" y2="262.9014"/><line style="stroke:#181818;stroke-width:1;" x1="552.4082" x2="204.6416" y1="262.9014" y2="262.9014"/><line style="stroke:#181818;stroke-width:1;" x1="204.6416" x2="204.6416" y1="262.9014" y2="277.9014"/><polygon fill="#181818" points="200.6416,267.9014,204.6416,277.9014,208.6416,267.9014,204.6416,271.9014" style="stroke:#181818;stroke-width:1;"/><line style="stroke:#181818;stroke-width:1;" x1="204.6416" x2="204.6416" y1="311.8701" y2="316.8701"/><line style="stroke:#181818;stroke-width:1;" x1="204.6416" x2="552.4082" y1="316.8701" y2="316.8701"/><line style="stroke:#181818;stroke-width:1;" x1="552.4082" x2="552.4082" y1="316.8701" y2="331.8701"/><polygon fill="#181818" points="548.4082,321.8701,552.4082,331.8701,556.4082,321.8701,552.4082,325.8701" style="stroke:#181818;stroke-width:1;"/><line style="stroke:#181818;stroke-width:1;" x1="462.7783" x2="462.7783" y1="463.8076" y2="468.8076"/><line style="stroke:#181818;stroke-width:1;" x1="462.7783" x2="115.0117" y1="468.8076" y2="468.8076"/><line style="stroke:#181818;stroke-width:1;" x1="115.0117" x2="115.0117" y1="468.8076" y2="483.8076"/><polygon fill="#181818" points="111.0117,473.8076,115.0117,483.8076,119.0117,473.8076,115.0117,477.8076" style="stroke:#181818;stroke-width:1;"/><line style="stroke:#181818;stroke-width:1;" x1="584.9795" x2="596.9795" y1="397.8389" y2="397.8389"/><line style="stroke:#181818;stroke-width:1;" x1="596.9795" x2="596.9795" y1="397.8389" y2="415.8389"/><line style="stroke:#181818;stroke-width:1;" x1="596.9795" x2="294.2715" y1="415.8389" y2="415.8389"/><line style="stroke:#181818;stroke-width:1;" x1="294.2715" x2="294.2715" y1="415.8389" y2="429.8389"/><polygon fill="#181818" points="290.2715,419.8389,294.2715,429.8389,298.2715,419.8389,294.2715,423.8389" style="stroke:#181818;stroke-width:1;"/><text fill="#000000" font-family="sans-serif" font-size="18" lengthAdjust="spacing" textLength="144.6152" x="116.9521" y="66.75">Nh&#224; tuy&#7875;n d&#7909;ng</text><text fill="#000000" font-family="sans-serif" font-size="18" lengthAdjust="spacing" textLength="82.6436" x="461.29" y="66.75">H&#7879; th&#7889;ng</text><?plantuml-src ZP6nIWD154Nx-OfN9eL4B7SBYpH2D23e1uoxcypWPh9cPvN0TYc2XKKAiR0m8LW6XLZja6g2_p5_ufr542G6kvaxxvvttvlyMggCZ_Y0Si7ZuPrKVUhnD4-ObZfDwB9zT4W7T5wuQgaejHlIKf4knivC5CNElAe-Axl2pd-99Sir7saMd3dpGdh40RxPHmbPUUBCbBHmPkRzGKVYUU2zj9rj9m0euQfL5hBW0Y19CLU2Shk8HCqJg9ygYkmw_2DIq0Ry0PrTjHZIm9bdsOeWtNkEColUsixi6es0Qtttn75lDB3VAFMjYv397ZLGkimeXN3SX2LHr6ZRTPCH1QUVxmKaFiP0pZpAdMiWsXqU_gwV7mvXFv3ioc88dET87td5UtCzp5Y23wH6fovh_WE8i4-IRb5JRm7tQY5_Q2gMlIy0?></g></svg>