<?plantuml 1.2026.1?><svg xmlns="http://www.w3.org/2000/svg" xmlns:xlink="http://www.w3.org/1999/xlink" contentStyleType="text/css" data-diagram-type="ACTIVITY" height="479px" preserveAspectRatio="none" style="width:784px;height:479px;background:#FFFFFF;" version="1.1" viewBox="0 0 784 479" width="784px" zoomAndPan="magnify"><title>UC21 - L&#432;u CV &#7913;ng vi&#234;n</title><defs/><g><g class="title" data-source-line="2"><text fill="#000000" font-family="sans-serif" font-size="14" font-weight="bold" lengthAdjust="spacing" textLength="184.6113" x="298.5638" y="32.9951">UC21 - L&#432;u CV &#7913;ng vi&#234;n</text></g><rect fill="none" height="20.9531" style="stroke:none;stroke-width:1;" width="751.739" x="15" y="50.042"/><ellipse cx="216.0586" cy="85.9951" fill="#222222" rx="10" ry="10" style="stroke:#222222;stroke-width:1;"/><rect fill="#F1F1F1" height="33.9688" rx="12.5" ry="12.5" style="stroke:#181818;stroke-width:0.5;" width="113.9785" x="159.0693" y="115.9951"/><text fill="#000000" font-family="sans-serif" font-size="12" lengthAdjust="spacing" textLength="93.9785" x="169.0693" y="137.1338">M&#7903; CV &#7913;ng vi&#234;n</text><rect fill="#F1F1F1" height="33.9688" rx="12.5" ry="12.5" style="stroke:#181818;stroke-width:0.5;" width="97.6543" x="167.2314" y="169.9639"/><text fill="#000000" font-family="sans-serif" font-size="12" lengthAdjust="spacing" textLength="77.6543" x="177.2314" y="191.1025">Nh&#7853;n L&#432;u CV</text><rect fill="#F1F1F1" height="33.9688" rx="12.5" ry="12.5" style="stroke:#181818;stroke-width:0.5;" width="157.502" x="21" y="375.8701"/><text fill="#000000" font-family="sans-serif" font-size="12" lengthAdjust="spacing" textLength="137.502" x="31" y="397.0088">Nh&#7853;n th&#244;ng b&#225;o &#273;&#227; l&#432;u</text><ellipse cx="99.751" cy="440.8389" fill="none" rx="11" ry="11" style="stroke:#222222;stroke-width:1;"/><ellipse cx="99.751" cy="440.8389" fill="#222222" rx="6" ry="6" style="stroke:#222222;stroke-width:1;"/><rect fill="#F1F1F1" height="33.9688" rx="12.5" ry="12.5" style="stroke:#181818;stroke-width:0.5;" width="154.2617" x="255.2354" y="321.9014"/><text fill="#000000" font-family="sans-serif" font-size="12" lengthAdjust="spacing" textLength="134.2617" x="265.2354" y="343.04">&#272;&#259;ng nh&#7853;p &#273;&#7875; ti&#7871;p t&#7909;c</text><ellipse cx="332.3662" cy="386.8701" fill="none" rx="11" ry="11" style="stroke:#222222;stroke-width:1;"/><ellipse cx="332.3662" cy="386.8701" fill="#222222" rx="6" ry="6" style="stroke:#222222;stroke-width:1;"/><line style="stroke:#000000;stroke-width:1.5;" x1="15" x2="15" y1="50.042" y2="467.8389"/><rect fill="#F1F1F1" height="33.9688" rx="12.5" ry="12.5" style="stroke:#181818;stroke-width:0.5;" width="139.0859" x="601.7461" y="223.9326"/><text fill="#000000" font-family="sans-serif" font-size="12" lengthAdjust="spacing" textLength="119.0859" x="611.7461" y="245.0713">Ki&#7875;m tra &#273;&#259;ng nh&#7853;p</text><polygon fill="#F1F1F1" points="629.5691,277.9014,713.009,277.9014,725.009,289.9014,713.009,301.9014,629.5691,301.9014,617.5691,289.9014,629.5691,277.9014" style="stroke:#181818;stroke-width:0.5;"/><text fill="#000000" font-family="sans-serif" font-size="11" lengthAdjust="spacing" textLength="83.4399" x="629.5691" y="293.7095">&#272;&#227; &#273;&#259;ng nh&#7853;p?</text><text fill="#000000" font-family="sans-serif" font-size="11" lengthAdjust="spacing" textLength="14.4106" x="603.1584" y="287.3071">C&#243;</text><text fill="#000000" font-family="sans-serif" font-size="11" lengthAdjust="spacing" textLength="34.8691" x="725.009" y="287.3071">Kh&#244;ng</text><rect fill="#F1F1F1" height="33.9688" rx="12.5" ry="12.5" style="stroke:#181818;stroke-width:0.5;" width="270.9688" x="419.4971" y="321.9014"/><text fill="#000000" font-family="sans-serif" font-size="12" lengthAdjust="spacing" textLength="250.9688" x="429.4971" y="343.04">L&#432;u CV &#7913;ng vi&#234;n v&#224;o danh s&#225;ch quan t&#226;m</text><line style="stroke:#000000;stroke-width:1.5;" x1="413.4971" x2="413.4971" y1="50.042" y2="467.8389"/><line style="stroke:#000000;stroke-width:1.5;" x1="764.8782" x2="764.8782" y1="50.042" y2="467.8389"/><line style="stroke:#181818;stroke-width:1;" x1="216.0586" x2="216.0586" y1="95.9951" y2="115.9951"/><polygon fill="#181818" points="212.0586,105.9951,216.0586,115.9951,220.0586,105.9951,216.0586,109.9951" style="stroke:#181818;stroke-width:1;"/><line style="stroke:#181818;stroke-width:1;" x1="216.0586" x2="216.0586" y1="149.9639" y2="169.9639"/><polygon fill="#181818" points="212.0586,159.9639,216.0586,169.9639,220.0586,159.9639,216.0586,163.9639" style="stroke:#181818;stroke-width:1;"/><line style="stroke:#181818;stroke-width:1;" x1="99.751" x2="99.751" y1="409.8389" y2="429.8389"/><polygon fill="#181818" points="95.751,419.8389,99.751,429.8389,103.751,419.8389,99.751,423.8389" style="stroke:#181818;stroke-width:1;"/><line style="stroke:#181818;stroke-width:1;" x1="332.3662" x2="332.3662" y1="355.8701" y2="375.8701"/><polygon fill="#181818" points="328.3662,365.8701,332.3662,375.8701,336.3662,365.8701,332.3662,369.8701" style="stroke:#181818;stroke-width:1;"/><line style="stroke:#181818;stroke-width:1;" x1="617.5691" x2="554.9814" y1="289.9014" y2="289.9014"/><line style="stroke:#181818;stroke-width:1;" x1="554.9814" x2="554.9814" y1="289.9014" y2="321.9014"/><polygon fill="#181818" points="550.9814,311.9014,554.9814,321.9014,558.9814,311.9014,554.9814,315.9014" style="stroke:#181818;stroke-width:1;"/><line style="stroke:#181818;stroke-width:1;" x1="671.2891" x2="671.2891" y1="257.9014" y2="277.9014"/><polygon fill="#181818" points="667.2891,267.9014,671.2891,277.9014,675.2891,267.9014,671.2891,271.9014" style="stroke:#181818;stroke-width:1;"/><line style="stroke:#181818;stroke-width:1;" x1="216.0586" x2="216.0586" y1="203.9326" y2="208.9326"/><line style="stroke:#181818;stroke-width:1;" x1="216.0586" x2="671.2891" y1="208.9326" y2="208.9326"/><line style="stroke:#181818;stroke-width:1;" x1="671.2891" x2="671.2891" y1="208.9326" y2="223.9326"/><polygon fill="#181818" points="667.2891,213.9326,671.2891,223.9326,675.2891,213.9326,671.2891,217.9326" style="stroke:#181818;stroke-width:1;"/><line style="stroke:#181818;stroke-width:1;" x1="554.9814" x2="554.9814" y1="355.8701" y2="360.8701"/><line style="stroke:#181818;stroke-width:1;" x1="554.9814" x2="99.751" y1="360.8701" y2="360.8701"/><line style="stroke:#181818;stroke-width:1;" x1="99.751" x2="99.751" y1="360.8701" y2="375.8701"/><polygon fill="#181818" points="95.751,365.8701,99.751,375.8701,103.751,365.8701,99.751,369.8701" style="stroke:#181818;stroke-width:1;"/><line style="stroke:#181818;stroke-width:1;" x1="725.009" x2="737.009" y1="289.9014" y2="289.9014"/><line style="stroke:#181818;stroke-width:1;" x1="737.009" x2="737.009" y1="289.9014" y2="307.9014"/><line style="stroke:#181818;stroke-width:1;" x1="737.009" x2="332.3662" y1="307.9014" y2="307.9014"/><line style="stroke:#181818;stroke-width:1;" x1="332.3662" x2="332.3662" y1="307.9014" y2="321.9014"/><polygon fill="#181818" points="328.3662,311.9014,332.3662,321.9014,336.3662,311.9014,332.3662,315.9014" style="stroke:#181818;stroke-width:1;"/><text fill="#000000" font-family="sans-serif" font-size="18" lengthAdjust="spacing" textLength="144.6152" x="141.9409" y="66.75">Nh&#224; tuy&#7875;n d&#7909;ng</text><text fill="#000000" font-family="sans-serif" font-size="18" lengthAdjust="spacing" textLength="82.6436" x="547.8658" y="66.75">H&#7879; th&#7889;ng</text><?plantuml-src VP2zJiCm64LtFyKTau41ncHWo89Kw0QxQPBQ8d52x1GXPUl0sZu1BOW192GacEg1mH7luJVX2mBneuhLlkVSQ-ipgMhUy19QyBIwa6gAd1SwOqQQ8iDnihUB7Ho-FRL8Jk3jFGLcqZqeres5My6qbzxE5L9lxzIqOzhmnh3eoDlhFq3Ceh7mcqVrPOjPT-3j5OpmTZcmqKYIguHfEFfbFoTI3KGTCvaZw1VkzlVvVaXmfX0axZbaGBHb9sPkLI7bIa2xzKJWlEKAnjsKCH7R7q6cpwb6k1SodRfrHTNKNr3306fJrIoZZq8m-iY4_zdwnO_L9A9x6EathpKCfIRVHfNA_1q0?></g></svg>