<?plantuml 1.2026.1?><svg xmlns="http://www.w3.org/2000/svg" xmlns:xlink="http://www.w3.org/1999/xlink" contentStyleType="text/css" data-diagram-type="ACTIVITY" height="581px" preserveAspectRatio="none" style="width:598px;height:581px;background:#FFFFFF;" version="1.1" viewBox="0 0 598 581" width="598px" zoomAndPan="magnify"><title>UC23 - Qu&#7843;n l&#253; b&#225;o c&#225;o</title><defs/><g><g class="title" data-source-line="2"><text fill="#000000" font-family="sans-serif" font-size="14" font-weight="bold" lengthAdjust="spacing" textLength="182.9639" x="206.1584" y="32.9951">UC23 - Qu&#7843;n l&#253; b&#225;o c&#225;o</text></g><rect fill="none" height="20.9531" style="stroke:none;stroke-width:1;" width="565.2808" x="15" y="50.042"/><ellipse cx="186.209" cy="85.9951" fill="#222222" rx="10" ry="10" style="stroke:#222222;stroke-width:1;"/><rect fill="#F1F1F1" height="33.9688" rx="12.5" ry="12.5" style="stroke:#181818;stroke-width:0.5;" width="197.6035" x="87.4072" y="115.9951"/><text fill="#000000" font-family="sans-serif" font-size="12" lengthAdjust="spacing" textLength="177.6035" x="97.4072" y="137.1338">M&#7903; m&#224;n h&#236;nh qu&#7843;n l&#253; b&#225;o c&#225;o</text><rect fill="#F1F1F1" height="33.9688" rx="12.5" ry="12.5" style="stroke:#181818;stroke-width:0.5;" width="143.8203" x="114.2988" y="277.9014"/><text fill="#000000" font-family="sans-serif" font-size="12" lengthAdjust="spacing" textLength="123.8203" x="124.2988" y="299.04">Xem chi ti&#7871;t b&#225;o c&#225;o</text><rect fill="#F1F1F1" height="33.9688" rx="12.5" ry="12.5" style="stroke:#181818;stroke-width:0.5;" width="330.418" x="21" y="331.8701"/><text fill="#000000" font-family="sans-serif" font-size="12" lengthAdjust="spacing" textLength="310.418" x="31" y="353.0088">Ch&#7885;n ph&#234; duy&#7879;t/&#7849;n n&#7897;i dung/kh&#243;a &#273;&#7889;i t&#432;&#7907;ng/b&#7887; qua</text><rect fill="#F1F1F1" height="33.9688" rx="12.5" ry="12.5" style="stroke:#181818;stroke-width:0.5;" width="186.166" x="93.126" y="493.7764"/><text fill="#000000" font-family="sans-serif" font-size="12" lengthAdjust="spacing" textLength="166.166" x="103.126" y="514.915">Theo d&#245;i tr&#7841;ng th&#225;i &#273;&#227; x&#7917; l&#253;</text><ellipse cx="186.209" cy="558.7451" fill="none" rx="11" ry="11" style="stroke:#222222;stroke-width:1;"/><ellipse cx="186.209" cy="558.7451" fill="#222222" rx="6" ry="6" style="stroke:#222222;stroke-width:1;"/><line style="stroke:#000000;stroke-width:1.5;" x1="15" x2="15" y1="50.042" y2="569.7451"/><rect fill="#F1F1F1" height="33.9688" rx="12.5" ry="12.5" style="stroke:#181818;stroke-width:0.5;" width="198.4824" x="368.6777" y="169.9639"/><text fill="#000000" font-family="sans-serif" font-size="12" lengthAdjust="spacing" textLength="178.4824" x="378.6777" y="191.1025">Ki&#7875;m tra &#273;&#259;ng nh&#7853;p v&#224; quy&#7873;n</text><rect fill="#F1F1F1" height="33.9688" rx="12.5" ry="12.5" style="stroke:#181818;stroke-width:0.5;" width="213.002" x="361.418" y="223.9326"/><text fill="#000000" font-family="sans-serif" font-size="12" lengthAdjust="spacing" textLength="193.002" x="371.418" y="245.0713">T&#7843;i danh s&#225;ch b&#225;o c&#225;o cho x&#7917; l&#253;</text><rect fill="#F1F1F1" height="33.9688" rx="12.5" ry="12.5" style="stroke:#181818;stroke-width:0.5;" width="156.4473" x="389.6953" y="385.8389"/><text fill="#000000" font-family="sans-serif" font-size="12" lengthAdjust="spacing" textLength="136.4473" x="399.6953" y="406.9775">C&#7853;p nh&#7853;t k&#7871;t qu&#7843; x&#7917; l&#253;</text><rect fill="#F1F1F1" height="33.9688" rx="12.5" ry="12.5" style="stroke:#181818;stroke-width:0.5;" width="164.5215" x="385.6582" y="439.8076"/><text fill="#000000" font-family="sans-serif" font-size="12" lengthAdjust="spacing" textLength="144.5215" x="395.6582" y="460.9463">G&#7917;i th&#244;ng b&#225;o li&#234;n quan</text><line style="stroke:#000000;stroke-width:1.5;" x1="355.418" x2="355.418" y1="50.042" y2="569.7451"/><line style="stroke:#000000;stroke-width:1.5;" x1="578.4199" x2="578.4199" y1="50.042" y2="569.7451"/><line style="stroke:#181818;stroke-width:1;" x1="186.209" x2="186.209" y1="95.9951" y2="115.9951"/><polygon fill="#181818" points="182.209,105.9951,186.209,115.9951,190.209,105.9951,186.209,109.9951" style="stroke:#181818;stroke-width:1;"/><line style="stroke:#181818;stroke-width:1;" x1="186.209" x2="186.209" y1="311.8701" y2="331.8701"/><polygon fill="#181818" points="182.209,321.8701,186.209,331.8701,190.209,321.8701,186.209,325.8701" style="stroke:#181818;stroke-width:1;"/><line style="stroke:#181818;stroke-width:1;" x1="186.209" x2="186.209" y1="527.7451" y2="547.7451"/><polygon fill="#181818" points="182.209,537.7451,186.209,547.7451,190.209,537.7451,186.209,541.7451" style="stroke:#181818;stroke-width:1;"/><line style="stroke:#181818;stroke-width:1;" x1="467.9189" x2="467.9189" y1="203.9326" y2="223.9326"/><polygon fill="#181818" points="463.9189,213.9326,467.9189,223.9326,471.9189,213.9326,467.9189,217.9326" style="stroke:#181818;stroke-width:1;"/><line style="stroke:#181818;stroke-width:1;" x1="467.9189" x2="467.9189" y1="419.8076" y2="439.8076"/><polygon fill="#181818" points="463.9189,429.8076,467.9189,439.8076,471.9189,429.8076,467.9189,433.8076" style="stroke:#181818;stroke-width:1;"/><line style="stroke:#181818;stroke-width:1;" x1="186.209" x2="186.209" y1="149.9639" y2="154.9639"/><line style="stroke:#181818;stroke-width:1;" x1="186.209" x2="467.9189" y1="154.9639" y2="154.9639"/><line style="stroke:#181818;stroke-width:1;" x1="467.9189" x2="467.9189" y1="154.9639" y2="169.9639"/><polygon fill="#181818" points="463.9189,159.9639,467.9189,169.9639,471.9189,159.9639,467.9189,163.9639" style="stroke:#181818;stroke-width:1;"/><line style="stroke:#181818;stroke-width:1;" x1="467.9189" x2="467.9189" y1="257.9014" y2="262.9014"/><line style="stroke:#181818;stroke-width:1;" x1="467.9189" x2="186.209" y1="262.9014" y2="262.9014"/><line style="stroke:#181818;stroke-width:1;" x1="186.209" x2="186.209" y1="262.9014" y2="277.9014"/><polygon fill="#181818" points="182.209,267.9014,186.209,277.9014,190.209,267.9014,186.209,271.9014" style="stroke:#181818;stroke-width:1;"/><line style="stroke:#181818;stroke-width:1;" x1="186.209" x2="186.209" y1="365.8389" y2="370.8389"/><line style="stroke:#181818;stroke-width:1;" x1="186.209" x2="467.9189" y1="370.8389" y2="370.8389"/><line style="stroke:#181818;stroke-width:1;" x1="467.9189" x2="467.9189" y1="370.8389" y2="385.8389"/><polygon fill="#181818" points="463.9189,375.8389,467.9189,385.8389,471.9189,375.8389,467.9189,379.8389" style="stroke:#181818;stroke-width:1;"/><line style="stroke:#181818;stroke-width:1;" x1="467.9189" x2="467.9189" y1="473.7764" y2="478.7764"/><line style="stroke:#181818;stroke-width:1;" x1="467.9189" x2="186.209" y1="478.7764" y2="478.7764"/><line style="stroke:#181818;stroke-width:1;" x1="186.209" x2="186.209" y1="478.7764" y2="493.7764"/><polygon fill="#181818" points="182.209,483.7764,186.209,493.7764,190.209,483.7764,186.209,487.7764" style="stroke:#181818;stroke-width:1;"/><text fill="#000000" font-family="sans-serif" font-size="18" lengthAdjust="spacing" textLength="117.0527" x="126.6826" y="66.75">Qu&#7843;n tr&#7883; vi&#234;n</text><text fill="#000000" font-family="sans-serif" font-size="18" lengthAdjust="spacing" textLength="82.6436" x="425.5972" y="66.75">H&#7879; th&#7889;ng</text><?plantuml-src TP0nIyD05CVt-nJl2qX1jsJie20EGWNNQnDpHvENs5ohGXRfq454EZhPqCbYGL2N7CNXYj_ZVHDVWc30kXp7uzxl__jVFjIOoP5C85SoIAyqHd0XupmKHfiuXBFk_W7imUcOgYL2x3RGTsKA0pv4yJCr8x9tCD5kXON8ZHmPuPsGVOB4BH2KUq45bpi0lYYEoCx0AB9pZ0hX7MkoquI14hRpxPHTK56rpc3Y5eou8NkBll1wpD8GIERchXoeNoGCL0hNPDTrah_Rq3iF4twdmMYgFatRn-kooZr2fjmAWZflPZfKFICWsKUE76FK6IhtLlknD3E-NiakUTed-y2Ayc-fRjEWAM9Ws4Gslz7oz0xvoZ3bthbp8nJNiZKG_wlHKs4AWVlGzRmgUP7tIyrchitEJPfz0m00?></g></svg>