<?plantuml 1.2026.1?><svg xmlns="http://www.w3.org/2000/svg" xmlns:xlink="http://www.w3.org/1999/xlink" contentStyleType="text/css" data-diagram-type="ACTIVITY" height="620px" preserveAspectRatio="none" style="width:489px;height:620px;background:#FFFFFF;" version="1.1" viewBox="0 0 489 620" width="489px" zoomAndPan="magnify"><title>UC24 - Qu&#7843;n l&#253; b&#224;i vi&#7871;t h&#432;&#7899;ng nghi&#7879;p</title><defs/><g><g class="title" data-source-line="2"><text fill="#000000" font-family="sans-serif" font-size="14" font-weight="bold" lengthAdjust="spacing" textLength="294.4512" x="96.1033" y="32.9951">UC24 - Qu&#7843;n l&#253; b&#224;i vi&#7871;t h&#432;&#7899;ng nghi&#7879;p</text></g><rect fill="none" height="20.9531" style="stroke:none;stroke-width:1;" width="456.6577" x="15" y="50.042"/><ellipse cx="149.4971" cy="85.9951" fill="#222222" rx="10" ry="10" style="stroke:#222222;stroke-width:1;"/><rect fill="#F1F1F1" height="33.9688" rx="12.5" ry="12.5" style="stroke:#181818;stroke-width:0.5;" width="256.9941" x="21" y="115.9951"/><text fill="#000000" font-family="sans-serif" font-size="12" lengthAdjust="spacing" textLength="236.9941" x="31" y="137.1338">M&#7903; trang qu&#7843;n l&#253; b&#224;i vi&#7871;t h&#432;&#7899;ng nghi&#7879;p</text><rect fill="#F1F1F1" height="33.9688" rx="12.5" ry="12.5" style="stroke:#181818;stroke-width:0.5;" width="239.2168" x="29.8887" y="277.9014"/><text fill="#000000" font-family="sans-serif" font-size="12" lengthAdjust="spacing" textLength="219.2168" x="39.8887" y="299.04">Ch&#7885;n t&#7841;o/ch&#7881;nh s&#7917;a/xu&#7845;t b&#7843;n/thu h&#7891;i</text><rect fill="#F1F1F1" height="33.9688" rx="12.5" ry="12.5" style="stroke:#181818;stroke-width:0.5;" width="205.707" x="46.6436" y="532.21"/><text fill="#000000" font-family="sans-serif" font-size="12" lengthAdjust="spacing" textLength="185.707" x="56.6436" y="553.3486">Nh&#7853;n k&#7871;t qu&#7843; c&#7853;p nh&#7853;t b&#224;i vi&#7871;t</text><ellipse cx="149.4971" cy="597.1787" fill="none" rx="11" ry="11" style="stroke:#222222;stroke-width:1;"/><ellipse cx="149.4971" cy="597.1787" fill="#222222" rx="6" ry="6" style="stroke:#222222;stroke-width:1;"/><line style="stroke:#000000;stroke-width:1.5;" x1="15" x2="15" y1="50.042" y2="608.1787"/><rect fill="#F1F1F1" height="33.9688" rx="12.5" ry="12.5" style="stroke:#181818;stroke-width:0.5;" width="139.0859" x="294.8525" y="169.9639"/><text fill="#000000" font-family="sans-serif" font-size="12" lengthAdjust="spacing" textLength="119.0859" x="304.8525" y="191.1025">Ki&#7875;m tra &#273;&#259;ng nh&#7853;p</text><rect fill="#F1F1F1" height="33.9688" rx="12.5" ry="12.5" style="stroke:#181818;stroke-width:0.5;" width="152.0938" x="288.3486" y="223.9326"/><text fill="#000000" font-family="sans-serif" font-size="12" lengthAdjust="spacing" textLength="132.0938" x="298.3486" y="245.0713">T&#7843;i danh s&#225;ch b&#224;i vi&#7871;t</text><rect fill="#F1F1F1" height="33.9688" rx="12.5" ry="12.5" style="stroke:#181818;stroke-width:0.5;" width="152.8027" x="287.9941" y="380.2725"/><text fill="#000000" font-family="sans-serif" font-size="12" lengthAdjust="spacing" textLength="132.8027" x="297.9941" y="401.4111">T&#7843;i t&#7879;p l&#234;n kho l&#432;u tr&#7919;</text><polygon fill="#F1F1F1" points="316.0771,331.8701,412.7139,331.8701,424.7139,343.8701,412.7139,355.8701,316.0771,355.8701,304.0771,343.8701,316.0771,331.8701" style="stroke:#181818;stroke-width:0.5;"/><text fill="#000000" font-family="sans-serif" font-size="11" lengthAdjust="spacing" textLength="14.4106" x="368.3955" y="366.0806">C&#243;</text><text fill="#000000" font-family="sans-serif" font-size="11" lengthAdjust="spacing" textLength="96.6367" x="316.0771" y="347.6782">C&#243; t&#7879;p &#273;&#237;nh k&#232;m?</text><polygon fill="#F1F1F1" points="364.3955,434.2412,376.3955,446.2412,364.3955,458.2412,352.3955,446.2412,364.3955,434.2412" style="stroke:#181818;stroke-width:0.5;"/><rect fill="#F1F1F1" height="33.9688" rx="12.5" ry="12.5" style="stroke:#181818;stroke-width:0.5;" width="143.041" x="292.875" y="478.2412"/><text fill="#000000" font-family="sans-serif" font-size="12" lengthAdjust="spacing" textLength="123.041" x="302.875" y="499.3799">L&#432;u thay &#273;&#7893;i b&#224;i vi&#7871;t</text><line style="stroke:#000000;stroke-width:1.5;" x1="281.9941" x2="281.9941" y1="50.042" y2="608.1787"/><line style="stroke:#000000;stroke-width:1.5;" x1="469.7969" x2="469.7969" y1="50.042" y2="608.1787"/><line style="stroke:#181818;stroke-width:1;" x1="149.4971" x2="149.4971" y1="95.9951" y2="115.9951"/><polygon fill="#181818" points="145.4971,105.9951,149.4971,115.9951,153.4971,105.9951,149.4971,109.9951" style="stroke:#181818;stroke-width:1;"/><line style="stroke:#181818;stroke-width:1;" x1="149.4971" x2="149.4971" y1="566.1787" y2="586.1787"/><polygon fill="#181818" points="145.4971,576.1787,149.4971,586.1787,153.4971,576.1787,149.4971,580.1787" style="stroke:#181818;stroke-width:1;"/><line style="stroke:#181818;stroke-width:1;" x1="364.3955" x2="364.3955" y1="203.9326" y2="223.9326"/><polygon fill="#181818" points="360.3955,213.9326,364.3955,223.9326,368.3955,213.9326,364.3955,217.9326" style="stroke:#181818;stroke-width:1;"/><line style="stroke:#181818;stroke-width:1;" x1="364.3955" x2="364.3955" y1="355.8701" y2="380.2725"/><polygon fill="#181818" points="360.3955,370.2725,364.3955,380.2725,368.3955,370.2725,364.3955,374.2725" style="stroke:#181818;stroke-width:1;"/><line style="stroke:#181818;stroke-width:1;" x1="424.7139" x2="450.7969" y1="343.8701" y2="343.8701"/><polygon fill="#181818" points="446.7969,387.2568,450.7969,397.2568,454.7969,387.2568,450.7969,391.2568" style="stroke:#181818;stroke-width:1;"/><line style="stroke:#181818;stroke-width:1;" x1="450.7969" x2="450.7969" y1="343.8701" y2="446.2412"/><line style="stroke:#181818;stroke-width:1;" x1="450.7969" x2="376.3955" y1="446.2412" y2="446.2412"/><polygon fill="#181818" points="386.3955,442.2412,376.3955,446.2412,386.3955,450.2412,382.3955,446.2412" style="stroke:#181818;stroke-width:1;"/><line style="stroke:#181818;stroke-width:1;" x1="364.3955" x2="364.3955" y1="414.2412" y2="434.2412"/><polygon fill="#181818" points="360.3955,424.2412,364.3955,434.2412,368.3955,424.2412,364.3955,428.2412" style="stroke:#181818;stroke-width:1;"/><line style="stroke:#181818;stroke-width:1;" x1="364.3955" x2="364.3955" y1="458.2412" y2="478.2412"/><polygon fill="#181818" points="360.3955,468.2412,364.3955,478.2412,368.3955,468.2412,364.3955,472.2412" style="stroke:#181818;stroke-width:1;"/><line style="stroke:#181818;stroke-width:1;" x1="149.4971" x2="149.4971" y1="149.9639" y2="154.9639"/><line style="stroke:#181818;stroke-width:1;" x1="149.4971" x2="364.3955" y1="154.9639" y2="154.9639"/><line style="stroke:#181818;stroke-width:1;" x1="364.3955" x2="364.3955" y1="154.9639" y2="169.9639"/><polygon fill="#181818" points="360.3955,159.9639,364.3955,169.9639,368.3955,159.9639,364.3955,163.9639" style="stroke:#181818;stroke-width:1;"/><line style="stroke:#181818;stroke-width:1;" x1="364.3955" x2="364.3955" y1="257.9014" y2="262.9014"/><line style="stroke:#181818;stroke-width:1;" x1="364.3955" x2="149.4971" y1="262.9014" y2="262.9014"/><line style="stroke:#181818;stroke-width:1;" x1="149.4971" x2="149.4971" y1="262.9014" y2="277.9014"/><polygon fill="#181818" points="145.4971,267.9014,149.4971,277.9014,153.4971,267.9014,149.4971,271.9014" style="stroke:#181818;stroke-width:1;"/><line style="stroke:#181818;stroke-width:1;" x1="149.4971" x2="149.4971" y1="311.8701" y2="316.8701"/><line style="stroke:#181818;stroke-width:1;" x1="149.4971" x2="364.3955" y1="316.8701" y2="316.8701"/><line style="stroke:#181818;stroke-width:1;" x1="364.3955" x2="364.3955" y1="316.8701" y2="331.8701"/><polygon fill="#181818" points="360.3955,321.8701,364.3955,331.8701,368.3955,321.8701,364.3955,325.8701" style="stroke:#181818;stroke-width:1;"/><line style="stroke:#181818;stroke-width:1;" x1="364.3955" x2="364.3955" y1="512.21" y2="517.21"/><line style="stroke:#181818;stroke-width:1;" x1="364.3955" x2="149.4971" y1="517.21" y2="517.21"/><line style="stroke:#181818;stroke-width:1;" x1="149.4971" x2="149.4971" y1="517.21" y2="532.21"/><polygon fill="#181818" points="145.4971,522.21,149.4971,532.21,153.4971,522.21,149.4971,526.21" style="stroke:#181818;stroke-width:1;"/><text fill="#000000" font-family="sans-serif" font-size="18" lengthAdjust="spacing" textLength="144.6152" x="76.1895" y="66.75">Nh&#224; tuy&#7875;n d&#7909;ng</text><text fill="#000000" font-family="sans-serif" font-size="18" lengthAdjust="spacing" textLength="82.6436" x="334.5737" y="66.75">H&#7879; th&#7889;ng</text><?plantuml-src ZP2nIWD148RxVOefJI41iReK5ca4DI3e0snob-nobxqpDwS6qgKG2uiWLXOcI424OC3k5h7OaFUODt7sOg68a6hPcV__-EVFOsqoEP1zo9KCqojjUj2LIHu9r9X4SDxSsuTTE2seV3QGk0zekwc6Iqtb9u9QBya-iiNqb2PxaubHIxafO34aEpOGafsRtaZaA0SeWXEoJu03oOQBBO4DCJha5r2HdNXKSCJpSTzZO3LPZRrMKRbWPN36J0sXD0foD-ked-Z6Fz629fFl322LixJUuS-jjvDToFerXvmZj7tKEge2U7kl_qJINTXfkdT6S60EvHPCYDrB_w36eiXKsve0-0wuqINkrK2iKaZMouBF8VlM4949TLS4nzL8oI7Jo3xehGvf-HeOMHLPzGiTNyoc7_pDo37DlW00?></g></svg>