<?plantuml 1.2026.1?><svg xmlns="http://www.w3.org/2000/svg" xmlns:xlink="http://www.w3.org/1999/xlink" contentStyleType="text/css" data-diagram-type="ACTIVITY" height="620px" preserveAspectRatio="none" style="width:486px;height:620px;background:#FFFFFF;" version="1.1" viewBox="0 0 486 620" width="486px" zoomAndPan="magnify"><title>UC25 - Qu&#7843;n l&#253; h&#7891; s&#417; nh&#224; tuy&#7875;n d&#7909;ng</title><defs/><g><g class="title" data-source-line="2"><text fill="#000000" font-family="sans-serif" font-size="14" font-weight="bold" lengthAdjust="spacing" textLength="293.2754" x="95.1721" y="32.9951">UC25 - Qu&#7843;n l&#253; h&#7891; s&#417; nh&#224; tuy&#7875;n d&#7909;ng</text></g><rect fill="none" height="20.9531" style="stroke:none;stroke-width:1;" width="453.6196" x="15" y="50.042"/><ellipse cx="143.2451" cy="85.9951" fill="#222222" rx="10" ry="10" style="stroke:#222222;stroke-width:1;"/><rect fill="#F1F1F1" height="33.9688" rx="12.5" ry="12.5" style="stroke:#181818;stroke-width:0.5;" width="208.748" x="38.8711" y="115.9951"/><text fill="#000000" font-family="sans-serif" font-size="12" lengthAdjust="spacing" textLength="188.748" x="48.8711" y="137.1338">M&#7903; trang h&#7891; s&#417; nh&#224; tuy&#7875;n d&#7909;ng</text><rect fill="#F1F1F1" height="33.9688" rx="12.5" ry="12.5" style="stroke:#181818;stroke-width:0.5;" width="181.1797" x="52.6553" y="277.9014"/><text fill="#000000" font-family="sans-serif" font-size="12" lengthAdjust="spacing" textLength="161.1797" x="62.6553" y="299.04">C&#7853;p nh&#7853;t th&#244;ng tin c&#244;ng ty</text><rect fill="#F1F1F1" height="33.9688" rx="12.5" ry="12.5" style="stroke:#181818;stroke-width:0.5;" width="244.4902" x="21" y="532.21"/><text fill="#000000" font-family="sans-serif" font-size="12" lengthAdjust="spacing" textLength="224.4902" x="31" y="553.3486">Nh&#7853;n th&#244;ng b&#225;o c&#7853;p nh&#7853;t th&#224;nh c&#244;ng</text><ellipse cx="143.2451" cy="597.1787" fill="none" rx="11" ry="11" style="stroke:#222222;stroke-width:1;"/><ellipse cx="143.2451" cy="597.1787" fill="#222222" rx="6" ry="6" style="stroke:#222222;stroke-width:1;"/><line style="stroke:#000000;stroke-width:1.5;" x1="15" x2="15" y1="50.042" y2="608.1787"/><rect fill="#F1F1F1" height="33.9688" rx="12.5" ry="12.5" style="stroke:#181818;stroke-width:0.5;" width="139.0859" x="291.8145" y="169.9639"/><text fill="#000000" font-family="sans-serif" font-size="12" lengthAdjust="spacing" textLength="119.0859" x="301.8145" y="191.1025">Ki&#7875;m tra &#273;&#259;ng nh&#7853;p</text><rect fill="#F1F1F1" height="33.9688" rx="12.5" ry="12.5" style="stroke:#181818;stroke-width:0.5;" width="171.7344" x="275.4902" y="223.9326"/><text fill="#000000" font-family="sans-serif" font-size="12" lengthAdjust="spacing" textLength="151.7344" x="285.4902" y="245.0713">T&#7843;i h&#7891; s&#417; c&#244;ng ty hi&#7879;n t&#7841;i</text><rect fill="#F1F1F1" height="33.9688" rx="12.5" ry="12.5" style="stroke:#181818;stroke-width:0.5;" width="152.8027" x="284.9561" y="380.2725"/><text fill="#000000" font-family="sans-serif" font-size="12" lengthAdjust="spacing" textLength="132.8027" x="294.9561" y="401.4111">T&#7843;i t&#7879;p l&#234;n kho l&#432;u tr&#7919;</text><polygon fill="#F1F1F1" points="314.8518,331.8701,407.863,331.8701,419.863,343.8701,407.863,355.8701,314.8518,355.8701,302.8518,343.8701,314.8518,331.8701" style="stroke:#181818;stroke-width:0.5;"/><text fill="#000000" font-family="sans-serif" font-size="11" lengthAdjust="spacing" textLength="14.4106" x="365.3574" y="366.0806">C&#243;</text><text fill="#000000" font-family="sans-serif" font-size="11" lengthAdjust="spacing" textLength="93.0112" x="314.8518" y="347.6782">C&#243; t&#7879;p/logo m&#7899;i?</text><polygon fill="#F1F1F1" points="361.3574,434.2412,373.3574,446.2412,361.3574,458.2412,349.3574,446.2412,361.3574,434.2412" style="stroke:#181818;stroke-width:0.5;"/><rect fill="#F1F1F1" height="33.9688" rx="12.5" ry="12.5" style="stroke:#181818;stroke-width:0.5;" width="126.6641" x="298.0254" y="478.2412"/><text fill="#000000" font-family="sans-serif" font-size="12" lengthAdjust="spacing" textLength="106.6641" x="308.0254" y="499.3799">L&#432;u h&#7891; s&#417; c&#244;ng ty</text><line style="stroke:#000000;stroke-width:1.5;" x1="269.4902" x2="269.4902" y1="50.042" y2="608.1787"/><line style="stroke:#000000;stroke-width:1.5;" x1="466.7588" x2="466.7588" y1="50.042" y2="608.1787"/><line style="stroke:#181818;stroke-width:1;" x1="143.2451" x2="143.2451" y1="95.9951" y2="115.9951"/><polygon fill="#181818" points="139.2451,105.9951,143.2451,115.9951,147.2451,105.9951,143.2451,109.9951" style="stroke:#181818;stroke-width:1;"/><line style="stroke:#181818;stroke-width:1;" x1="143.2451" x2="143.2451" y1="566.1787" y2="586.1787"/><polygon fill="#181818" points="139.2451,576.1787,143.2451,586.1787,147.2451,576.1787,143.2451,580.1787" style="stroke:#181818;stroke-width:1;"/><line style="stroke:#181818;stroke-width:1;" x1="361.3574" x2="361.3574" y1="203.9326" y2="223.9326"/><polygon fill="#181818" points="357.3574,213.9326,361.3574,223.9326,365.3574,213.9326,361.3574,217.9326" style="stroke:#181818;stroke-width:1;"/><line style="stroke:#181818;stroke-width:1;" x1="361.3574" x2="361.3574" y1="355.8701" y2="380.2725"/><polygon fill="#181818" points="357.3574,370.2725,361.3574,380.2725,365.3574,370.2725,361.3574,374.2725" style="stroke:#181818;stroke-width:1;"/><line style="stroke:#181818;stroke-width:1;" x1="419.863" x2="447.7588" y1="343.8701" y2="343.8701"/><polygon fill="#181818" points="443.7588,387.2568,447.7588,397.2568,451.7588,387.2568,447.7588,391.2568" style="stroke:#181818;stroke-width:1;"/><line style="stroke:#181818;stroke-width:1;" x1="447.7588" x2="447.7588" y1="343.8701" y2="446.2412"/><line style="stroke:#181818;stroke-width:1;" x1="447.7588" x2="373.3574" y1="446.2412" y2="446.2412"/><polygon fill="#181818" points="383.3574,442.2412,373.3574,446.2412,383.3574,450.2412,379.3574,446.2412" style="stroke:#181818;stroke-width:1;"/><line style="stroke:#181818;stroke-width:1;" x1="361.3574" x2="361.3574" y1="414.2412" y2="434.2412"/><polygon fill="#181818" points="357.3574,424.2412,361.3574,434.2412,365.3574,424.2412,361.3574,428.2412" style="stroke:#181818;stroke-width:1;"/><line style="stroke:#181818;stroke-width:1;" x1="361.3574" x2="361.3574" y1="458.2412" y2="478.2412"/><polygon fill="#181818" points="357.3574,468.2412,361.3574,478.2412,365.3574,468.2412,361.3574,472.2412" style="stroke:#181818;stroke-width:1;"/><line style="stroke:#181818;stroke-width:1;" x1="143.2451" x2="143.2451" y1="149.9639" y2="154.9639"/><line style="stroke:#181818;stroke-width:1;" x1="143.2451" x2="361.3574" y1="154.9639" y2="154.9639"/><line style="stroke:#181818;stroke-width:1;" x1="361.3574" x2="361.3574" y1="154.9639" y2="169.9639"/><polygon fill="#181818" points="357.3574,159.9639,361.3574,169.9639,365.3574,159.9639,361.3574,163.9639" style="stroke:#181818;stroke-width:1;"/><line style="stroke:#181818;stroke-width:1;" x1="361.3574" x2="361.3574" y1="257.9014" y2="262.9014"/><line style="stroke:#181818;stroke-width:1;" x1="361.3574" x2="143.2451" y1="262.9014" y2="262.9014"/><line style="stroke:#181818;stroke-width:1;" x1="143.2451" x2="143.2451" y1="262.9014" y2="277.9014"/><polygon fill="#181818" points="139.2451,267.9014,143.2451,277.9014,147.2451,267.9014,143.2451,271.9014" style="stroke:#181818;stroke-width:1;"/><line style="stroke:#181818;stroke-width:1;" x1="143.2451" x2="143.2451" y1="311.8701" y2="316.8701"/><line style="stroke:#181818;stroke-width:1;" x1="143.2451" x2="361.3574" y1="316.8701" y2="316.8701"/><line style="stroke:#181818;stroke-width:1;" x1="361.3574" x2="361.3574" y1="316.8701" y2="331.8701"/><polygon fill="#181818" points="357.3574,321.8701,361.3574,331.8701,365.3574,321.8701,361.3574,325.8701" style="stroke:#181818;stroke-width:1;"/><line style="stroke:#181818;stroke-width:1;" x1="361.3574" x2="361.3574" y1="512.21" y2="517.21"/><line style="stroke:#181818;stroke-width:1;" x1="361.3574" x2="143.2451" y1="517.21" y2="517.21"/><line style="stroke:#181818;stroke-width:1;" x1="143.2451" x2="143.2451" y1="517.21" y2="532.21"/><polygon fill="#181818" points="139.2451,522.21,143.2451,532.21,147.2451,522.21,143.2451,526.21" style="stroke:#181818;stroke-width:1;"/><text fill="#000000" font-family="sans-serif" font-size="18" lengthAdjust="spacing" textLength="144.6152" x="69.9375" y="66.75">Nh&#224; tuy&#7875;n d&#7909;ng</text><text fill="#000000" font-family="sans-serif" font-size="18" lengthAdjust="spacing" textLength="82.6436" x="326.8027" y="66.75">H&#7879; th&#7889;ng</text><?plantuml-src VP2_IiH048VxVOeflK84mIOfBD88we6W3x1U_knooMn8DiX1kYjI7vOMNX0RGHIqocALuzvZtyJ9HK-uSBOpy_lccycd4bEUyGHomNrr9p62aCTvmBJKSG0ttl497C9LOPidXBZz0c7DFUJh6b2qIz35p9evWc_DCqQi70-B9SirppHpBgrv19rnMl4Vn6NbcJKLQ1fQT77dN58xwQAmMgpcb4TXczVKPSurUSa_tAJzfAwUWQ18XQ1jKqjtZvRZTP2UfMbTdvMufGnCP0W7Nlj1M5EbHx6A52JMFCZJ4Sq4k6cE6C2FrcQCdlQ2C1KAulLxGKTOy-Qo07qPCkUYAmtizmgFErNyLRrjQmMJdHkMA7gEIszNwJS0?></g></svg>