<?plantuml 1.2026.1?><svg xmlns="http://www.w3.org/2000/svg" xmlns:xlink="http://www.w3.org/1999/xlink" contentStyleType="text/css" data-diagram-type="ACTIVITY" height="587px" preserveAspectRatio="none" style="width:684px;height:587px;background:#FFFFFF;" version="1.1" viewBox="0 0 684 587" width="684px" zoomAndPan="magnify"><title>UC26 - Qu&#7843;n l&#253; ng&#432;&#7901;i d&#249;ng</title><defs/><g><g class="title" data-source-line="2"><text fill="#000000" font-family="sans-serif" font-size="14" font-weight="bold" lengthAdjust="spacing" textLength="210.8613" x="235.5447" y="32.9951">UC26 - Qu&#7843;n l&#253; ng&#432;&#7901;i d&#249;ng</text></g><rect fill="none" height="20.9531" style="stroke:none;stroke-width:1;" width="651.9507" x="15" y="50.042"/><ellipse cx="193.9189" cy="85.9951" fill="#222222" rx="10" ry="10" style="stroke:#222222;stroke-width:1;"/><rect fill="#F1F1F1" height="33.9688" rx="12.5" ry="12.5" style="stroke:#181818;stroke-width:0.5;" width="217.9473" x="84.9453" y="115.9951"/><text fill="#000000" font-family="sans-serif" font-size="12" lengthAdjust="spacing" textLength="197.9473" x="94.9453" y="137.1338">M&#7903; m&#224;n h&#236;nh qu&#7843;n l&#253; ng&#432;&#7901;i d&#249;ng</text><rect fill="#F1F1F1" height="33.9688" rx="12.5" ry="12.5" style="stroke:#181818;stroke-width:0.5;" width="320.5918" x="33.623" y="277.9014"/><text fill="#000000" font-family="sans-serif" font-size="12" lengthAdjust="spacing" textLength="300.5918" x="43.623" y="299.04">Ch&#7885;n t&#7841;o m&#7899;i/ch&#7881;nh s&#7917;a/kh&#243;a/m&#7903; kh&#243;a/g&#225;n vai tr&#242;</text><rect fill="#F1F1F1" height="33.9688" rx="12.5" ry="12.5" style="stroke:#181818;stroke-width:0.5;" width="157.25" x="21" y="483.8076"/><text fill="#000000" font-family="sans-serif" font-size="12" lengthAdjust="spacing" textLength="137.25" x="31" y="504.9463">Nh&#7853;n k&#7871;t qu&#7843; c&#7853;p nh&#7853;t</text><ellipse cx="99.625" cy="548.7764" fill="none" rx="11" ry="11" style="stroke:#222222;stroke-width:1;"/><ellipse cx="99.625" cy="548.7764" fill="#222222" rx="6" ry="6" style="stroke:#222222;stroke-width:1;"/><rect fill="#F1F1F1" height="33.9688" rx="12.5" ry="12.5" style="stroke:#181818;stroke-width:0.5;" width="130.4961" x="222.9648" y="429.8389"/><text fill="#000000" font-family="sans-serif" font-size="12" lengthAdjust="spacing" textLength="110.4961" x="232.9648" y="450.9775">Nh&#7853;n l&#7895;i v&#224; s&#7917;a l&#7841;i</text><ellipse cx="288.2129" cy="494.8076" fill="none" rx="11" ry="11" style="stroke:#222222;stroke-width:1;"/><ellipse cx="288.2129" cy="494.8076" fill="#222222" rx="6" ry="6" style="stroke:#222222;stroke-width:1;"/><line style="stroke:#000000;stroke-width:1.5;" x1="15" x2="15" y1="50.042" y2="575.7764"/><rect fill="#F1F1F1" height="33.9688" rx="12.5" ry="12.5" style="stroke:#181818;stroke-width:0.5;" width="198.4824" x="462.6074" y="169.9639"/><text fill="#000000" font-family="sans-serif" font-size="12" lengthAdjust="spacing" textLength="178.4824" x="472.6074" y="191.1025">Ki&#7875;m tra &#273;&#259;ng nh&#7853;p v&#224; quy&#7873;n</text><rect fill="#F1F1F1" height="33.9688" rx="12.5" ry="12.5" style="stroke:#181818;stroke-width:0.5;" width="175.2148" x="474.2412" y="223.9326"/><text fill="#000000" font-family="sans-serif" font-size="12" lengthAdjust="spacing" textLength="155.2148" x="484.2412" y="245.0713">T&#7843;i danh s&#225;ch ng&#432;&#7901;i d&#249;ng</text><rect fill="#F1F1F1" height="33.9688" rx="12.5" ry="12.5" style="stroke:#181818;stroke-width:0.5;" width="115.5898" x="504.0537" y="331.8701"/><text fill="#000000" font-family="sans-serif" font-size="12" lengthAdjust="spacing" textLength="95.5898" x="514.0537" y="353.0088">Ki&#7875;m tra d&#7919; li&#7879;u</text><polygon fill="#F1F1F1" points="541.2773,385.8389,582.4199,385.8389,594.4199,397.8389,582.4199,409.8389,541.2773,409.8389,529.2773,397.8389,541.2773,385.8389" style="stroke:#181818;stroke-width:0.5;"/><text fill="#000000" font-family="sans-serif" font-size="11" lengthAdjust="spacing" textLength="41.1426" x="541.2773" y="401.647">H&#7907;p l&#7879;?</text><text fill="#000000" font-family="sans-serif" font-size="11" lengthAdjust="spacing" textLength="14.4106" x="514.8667" y="395.2446">C&#243;</text><text fill="#000000" font-family="sans-serif" font-size="11" lengthAdjust="spacing" textLength="34.8691" x="594.4199" y="395.2446">Kh&#244;ng</text><rect fill="#F1F1F1" height="33.9688" rx="12.5" ry="12.5" style="stroke:#181818;stroke-width:0.5;" width="206.6797" x="364.2148" y="429.8389"/><text fill="#000000" font-family="sans-serif" font-size="12" lengthAdjust="spacing" textLength="186.6797" x="374.2148" y="450.9775">C&#7853;p nh&#7853;t ng&#432;&#7901;i d&#249;ng v&#224; vai tr&#242;</text><line style="stroke:#000000;stroke-width:1.5;" x1="358.2148" x2="358.2148" y1="50.042" y2="575.7764"/><line style="stroke:#000000;stroke-width:1.5;" x1="665.0898" x2="665.0898" y1="50.042" y2="575.7764"/><line style="stroke:#181818;stroke-width:1;" x1="193.9189" x2="193.9189" y1="95.9951" y2="115.9951"/><polygon fill="#181818" points="189.9189,105.9951,193.9189,115.9951,197.9189,105.9951,193.9189,109.9951" style="stroke:#181818;stroke-width:1;"/><line style="stroke:#181818;stroke-width:1;" x1="99.625" x2="99.625" y1="517.7764" y2="537.7764"/><polygon fill="#181818" points="95.625,527.7764,99.625,537.7764,103.625,527.7764,99.625,531.7764" style="stroke:#181818;stroke-width:1;"/><line style="stroke:#181818;stroke-width:1;" x1="288.2129" x2="288.2129" y1="463.8076" y2="483.8076"/><polygon fill="#181818" points="284.2129,473.8076,288.2129,483.8076,292.2129,473.8076,288.2129,477.8076" style="stroke:#181818;stroke-width:1;"/><line style="stroke:#181818;stroke-width:1;" x1="561.8486" x2="561.8486" y1="203.9326" y2="223.9326"/><polygon fill="#181818" points="557.8486,213.9326,561.8486,223.9326,565.8486,213.9326,561.8486,217.9326" style="stroke:#181818;stroke-width:1;"/><line style="stroke:#181818;stroke-width:1;" x1="529.2773" x2="467.5547" y1="397.8389" y2="397.8389"/><line style="stroke:#181818;stroke-width:1;" x1="467.5547" x2="467.5547" y1="397.8389" y2="429.8389"/><polygon fill="#181818" points="463.5547,419.8389,467.5547,429.8389,471.5547,419.8389,467.5547,423.8389" style="stroke:#181818;stroke-width:1;"/><line style="stroke:#181818;stroke-width:1;" x1="561.8486" x2="561.8486" y1="365.8389" y2="385.8389"/><polygon fill="#181818" points="557.8486,375.8389,561.8486,385.8389,565.8486,375.8389,561.8486,379.8389" style="stroke:#181818;stroke-width:1;"/><line style="stroke:#181818;stroke-width:1;" x1="193.9189" x2="193.9189" y1="149.9639" y2="154.9639"/><line style="stroke:#181818;stroke-width:1;" x1="193.9189" x2="561.8486" y1="154.9639" y2="154.9639"/><line style="stroke:#181818;stroke-width:1;" x1="561.8486" x2="561.8486" y1="154.9639" y2="169.9639"/><polygon fill="#181818" points="557.8486,159.9639,561.8486,169.9639,565.8486,159.9639,561.8486,163.9639" style="stroke:#181818;stroke-width:1;"/><line style="stroke:#181818;stroke-width:1;" x1="561.8486" x2="561.8486" y1="257.9014" y2="262.9014"/><line style="stroke:#181818;stroke-width:1;" x1="561.8486" x2="193.9189" y1="262.9014" y2="262.9014"/><line style="stroke:#181818;stroke-width:1;" x1="193.9189" x2="193.9189" y1="262.9014" y2="277.9014"/><polygon fill="#181818" points="189.9189,267.9014,193.9189,277.9014,197.9189,267.9014,193.9189,271.9014" style="stroke:#181818;stroke-width:1;"/><line style="stroke:#181818;stroke-width:1;" x1="193.9189" x2="193.9189" y1="311.8701" y2="316.8701"/><line style="stroke:#181818;stroke-width:1;" x1="193.9189" x2="561.8486" y1="316.8701" y2="316.8701"/><line style="stroke:#181818;stroke-width:1;" x1="561.8486" x2="561.8486" y1="316.8701" y2="331.8701"/><polygon fill="#181818" points="557.8486,321.8701,561.8486,331.8701,565.8486,321.8701,561.8486,325.8701" style="stroke:#181818;stroke-width:1;"/><line style="stroke:#181818;stroke-width:1;" x1="467.5547" x2="467.5547" y1="463.8076" y2="468.8076"/><line style="stroke:#181818;stroke-width:1;" x1="467.5547" x2="99.625" y1="468.8076" y2="468.8076"/><line style="stroke:#181818;stroke-width:1;" x1="99.625" x2="99.625" y1="468.8076" y2="483.8076"/><polygon fill="#181818" points="95.625,473.8076,99.625,483.8076,103.625,473.8076,99.625,477.8076" style="stroke:#181818;stroke-width:1;"/><line style="stroke:#181818;stroke-width:1;" x1="594.4199" x2="606.4199" y1="397.8389" y2="397.8389"/><line style="stroke:#181818;stroke-width:1;" x1="606.4199" x2="606.4199" y1="397.8389" y2="415.8389"/><line style="stroke:#181818;stroke-width:1;" x1="606.4199" x2="288.2129" y1="415.8389" y2="415.8389"/><line style="stroke:#181818;stroke-width:1;" x1="288.2129" x2="288.2129" y1="415.8389" y2="429.8389"/><polygon fill="#181818" points="284.2129,419.8389,288.2129,429.8389,292.2129,419.8389,288.2129,423.8389" style="stroke:#181818;stroke-width:1;"/><text fill="#000000" font-family="sans-serif" font-size="18" lengthAdjust="spacing" textLength="117.0527" x="128.0811" y="66.75">Qu&#7843;n tr&#7883; vi&#234;n</text><text fill="#000000" font-family="sans-serif" font-size="18" lengthAdjust="spacing" textLength="82.6436" x="470.3306" y="66.75">H&#7879; th&#7889;ng</text><?plantuml-src XP6nIWD148RxVOefaq825XQNmk8Q8IW8-W1BxdAxv6xkp6qYmZMI8eXOfB8GCKSwCIWcZRU8nGRVOz_4kOiGqQZTphyxt_p_RDgLcF0UZo0Lt8jF9GRGuM7gCoLLwCEnkxq3Mt3OjyKK8JIlWC7xazMt4ZppWW7BFgzKp-fB64XpZnbB5UyfvknRVGUHcI08yu02JdwZD5csP_K8bB1wZ476d9QqUXWHbSDol1oIAnIsc2KmC1FYd5bzZatc716G69pWgSdRuYTtapt7fJbN9DeYZo6o-aOssYHTb1YhPxpH5MRE6r7fVtKCJ8umu990vlbFkvxLZn1IFUetcUn0ZPvE4mX9sArJYuzGSysypW0SjufK9LFVh5T1rmC1DYOXna7PZT2rnPjQRHZQNx1bQwhYXFdqgL1h2RF0eFu_Z_nUoyf4jH6gYrokOUZ9pWS0?></g></svg>