<?plantuml 1.2026.1?><svg xmlns="http://www.w3.org/2000/svg" xmlns:xlink="http://www.w3.org/1999/xlink" contentStyleType="text/css" data-diagram-type="ACTIVITY" height="473px" preserveAspectRatio="none" style="width:455px;height:473px;background:#FFFFFF;" version="1.1" viewBox="0 0 455 473" width="455px" zoomAndPan="magnify"><title>UC27 - Qu&#7843;n l&#253; b&#224;i &#273;&#259;ng</title><defs/><g><g class="title" data-source-line="2"><text fill="#000000" font-family="sans-serif" font-size="14" font-weight="bold" lengthAdjust="spacing" textLength="190.2373" x="131.301" y="32.9951">UC27 - Qu&#7843;n l&#253; b&#224;i &#273;&#259;ng</text></g><rect fill="none" height="20.9531" style="stroke:none;stroke-width:1;" width="422.8394" x="15" y="50.042"/><ellipse cx="122.248" cy="85.9951" fill="#222222" rx="10" ry="10" style="stroke:#222222;stroke-width:1;"/><rect fill="#F1F1F1" height="33.9688" rx="12.5" ry="12.5" style="stroke:#181818;stroke-width:0.5;" width="202.4961" x="21" y="115.9951"/><text fill="#000000" font-family="sans-serif" font-size="12" lengthAdjust="spacing" textLength="182.4961" x="31" y="137.1338">M&#7903; m&#224;n h&#236;nh qu&#7843;n l&#253; b&#224;i &#273;&#259;ng</text><rect fill="#F1F1F1" height="33.9688" rx="12.5" ry="12.5" style="stroke:#181818;stroke-width:0.5;" width="196.5137" x="23.9912" y="277.9014"/><text fill="#000000" font-family="sans-serif" font-size="12" lengthAdjust="spacing" textLength="176.5137" x="33.9912" y="299.04">Ch&#7885;n duy&#7879;t/&#7849;n/x&#243;a/kh&#244;i ph&#7909;c</text><rect fill="#F1F1F1" height="33.9688" rx="12.5" ry="12.5" style="stroke:#181818;stroke-width:0.5;" width="167.9316" x="38.2822" y="385.8389"/><text fill="#000000" font-family="sans-serif" font-size="12" lengthAdjust="spacing" textLength="147.9316" x="48.2822" y="406.9775">Xem k&#7871;t qu&#7843; ki&#7875;m duy&#7879;t</text><ellipse cx="122.248" cy="450.8076" fill="none" rx="11" ry="11" style="stroke:#222222;stroke-width:1;"/><ellipse cx="122.248" cy="450.8076" fill="#222222" rx="6" ry="6" style="stroke:#222222;stroke-width:1;"/><line style="stroke:#000000;stroke-width:1.5;" x1="15" x2="15" y1="50.042" y2="461.8076"/><rect fill="#F1F1F1" height="33.9688" rx="12.5" ry="12.5" style="stroke:#181818;stroke-width:0.5;" width="198.4824" x="233.4961" y="169.9639"/><text fill="#000000" font-family="sans-serif" font-size="12" lengthAdjust="spacing" textLength="178.4824" x="243.4961" y="191.1025">Ki&#7875;m tra &#273;&#259;ng nh&#7853;p v&#224; quy&#7873;n</text><rect fill="#F1F1F1" height="33.9688" rx="12.5" ry="12.5" style="stroke:#181818;stroke-width:0.5;" width="159.7637" x="252.8555" y="223.9326"/><text fill="#000000" font-family="sans-serif" font-size="12" lengthAdjust="spacing" textLength="139.7637" x="262.8555" y="245.0713">T&#7843;i danh s&#225;ch b&#224;i &#273;&#259;ng</text><rect fill="#F1F1F1" height="33.9688" rx="12.5" ry="12.5" style="stroke:#181818;stroke-width:0.5;" width="193.4023" x="236.0361" y="331.8701"/><text fill="#000000" font-family="sans-serif" font-size="12" lengthAdjust="spacing" textLength="173.4023" x="246.0361" y="353.0088">C&#7853;p nh&#7853;t tr&#7841;ng th&#225;i b&#224;i &#273;&#259;ng</text><line style="stroke:#000000;stroke-width:1.5;" x1="227.4961" x2="227.4961" y1="50.042" y2="461.8076"/><line style="stroke:#000000;stroke-width:1.5;" x1="435.9785" x2="435.9785" y1="50.042" y2="461.8076"/><line style="stroke:#181818;stroke-width:1;" x1="122.248" x2="122.248" y1="95.9951" y2="115.9951"/><polygon fill="#181818" points="118.248,105.9951,122.248,115.9951,126.248,105.9951,122.248,109.9951" style="stroke:#181818;stroke-width:1;"/><line style="stroke:#181818;stroke-width:1;" x1="122.248" x2="122.248" y1="419.8076" y2="439.8076"/><polygon fill="#181818" points="118.248,429.8076,122.248,439.8076,126.248,429.8076,122.248,433.8076" style="stroke:#181818;stroke-width:1;"/><line style="stroke:#181818;stroke-width:1;" x1="332.7373" x2="332.7373" y1="203.9326" y2="223.9326"/><polygon fill="#181818" points="328.7373,213.9326,332.7373,223.9326,336.7373,213.9326,332.7373,217.9326" style="stroke:#181818;stroke-width:1;"/><line style="stroke:#181818;stroke-width:1;" x1="122.248" x2="122.248" y1="149.9639" y2="154.9639"/><line style="stroke:#181818;stroke-width:1;" x1="122.248" x2="332.7373" y1="154.9639" y2="154.9639"/><line style="stroke:#181818;stroke-width:1;" x1="332.7373" x2="332.7373" y1="154.9639" y2="169.9639"/><polygon fill="#181818" points="328.7373,159.9639,332.7373,169.9639,336.7373,159.9639,332.7373,163.9639" style="stroke:#181818;stroke-width:1;"/><line style="stroke:#181818;stroke-width:1;" x1="332.7373" x2="332.7373" y1="257.9014" y2="262.9014"/><line style="stroke:#181818;stroke-width:1;" x1="332.7373" x2="122.248" y1="262.9014" y2="262.9014"/><line style="stroke:#181818;stroke-width:1;" x1="122.248" x2="122.248" y1="262.9014" y2="277.9014"/><polygon fill="#181818" points="118.248,267.9014,122.248,277.9014,126.248,267.9014,122.248,271.9014" style="stroke:#181818;stroke-width:1;"/><line style="stroke:#181818;stroke-width:1;" x1="122.248" x2="122.248" y1="311.8701" y2="316.8701"/><line style="stroke:#181818;stroke-width:1;" x1="122.248" x2="332.7373" y1="316.8701" y2="316.8701"/><line style="stroke:#181818;stroke-width:1;" x1="332.7373" x2="332.7373" y1="316.8701" y2="331.8701"/><polygon fill="#181818" points="328.7373,321.8701,332.7373,331.8701,336.7373,321.8701,332.7373,325.8701" style="stroke:#181818;stroke-width:1;"/><line style="stroke:#181818;stroke-width:1;" x1="332.7373" x2="332.7373" y1="365.8389" y2="370.8389"/><line style="stroke:#181818;stroke-width:1;" x1="332.7373" x2="122.248" y1="370.8389" y2="370.8389"/><line style="stroke:#181818;stroke-width:1;" x1="122.248" x2="122.248" y1="370.8389" y2="385.8389"/><polygon fill="#181818" points="118.248,375.8389,122.248,385.8389,126.248,375.8389,122.248,379.8389" style="stroke:#181818;stroke-width:1;"/><text fill="#000000" font-family="sans-serif" font-size="18" lengthAdjust="spacing" textLength="117.0527" x="62.7217" y="66.75">Qu&#7843;n tr&#7883; vi&#234;n</text><text fill="#000000" font-family="sans-serif" font-size="18" lengthAdjust="spacing" textLength="82.6436" x="290.4155" y="66.75">H&#7879; th&#7889;ng</text><?plantuml-src ZP0nJiD044NxFSLS05cYGR9BDqY80Waasaril2lR4ySU4f3Se1Gf44LEW2r40O8AgbqXYir5vYPi4bUGWdPczFwRt-GQArdB4XebaybSOmPNicXIGPgA52xYmoCuWBDhDay8XVk2aUiqh5Vh1MQY7UPKixs7cNQls8g6P4qYF6Nx2ANh49HxGmNJlOX8jCTibq2AxGgpLeGdcksYz4Wvd00gDkyLp5pd8RTixp0IuRcdQKYa9pUk7wjVq7rYOUn37X2I3MH90PiN36xSXmnovJurL7xzFFvh56_ZjnQq8PhUIv5olVvFw6LQGixcctODGBxxRv28V5sJwWS0?></g></svg>