<?plantuml 1.2026.1?><svg xmlns="http://www.w3.org/2000/svg" xmlns:xlink="http://www.w3.org/1999/xlink" contentStyleType="text/css" data-diagram-type="ACTIVITY" height="473px" preserveAspectRatio="none" style="width:504px;height:473px;background:#FFFFFF;" version="1.1" viewBox="0 0 504 473" width="504px" zoomAndPan="magnify"><title>UC28 - Qu&#7843;n l&#253; &#273;&#225;nh gi&#225; c&#244;ng ty</title><defs/><g><g class="title" data-source-line="2"><text fill="#000000" font-family="sans-serif" font-size="14" font-weight="bold" lengthAdjust="spacing" textLength="253.6543" x="123.8855" y="32.9951">UC28 - Qu&#7843;n l&#253; &#273;&#225;nh gi&#225; c&#244;ng ty</text></g><rect fill="none" height="20.9531" style="stroke:none;stroke-width:1;" width="471.4253" x="15" y="50.042"/><ellipse cx="146.541" cy="85.9951" fill="#222222" rx="10" ry="10" style="stroke:#222222;stroke-width:1;"/><rect fill="#F1F1F1" height="33.9688" rx="12.5" ry="12.5" style="stroke:#181818;stroke-width:0.5;" width="251.082" x="21" y="115.9951"/><text fill="#000000" font-family="sans-serif" font-size="12" lengthAdjust="spacing" textLength="231.082" x="31" y="137.1338">M&#7903; m&#224;n h&#236;nh qu&#7843;n l&#253; &#273;&#225;nh gi&#225; c&#244;ng ty</text><rect fill="#F1F1F1" height="33.9688" rx="12.5" ry="12.5" style="stroke:#181818;stroke-width:0.5;" width="190.1152" x="51.4834" y="277.9014"/><text fill="#000000" font-family="sans-serif" font-size="12" lengthAdjust="spacing" textLength="170.1152" x="61.4834" y="299.04">Ch&#7885;n duy&#7879;t/&#7849;n/x&#243;a &#273;&#225;nh gi&#225;</text><rect fill="#F1F1F1" height="33.9688" rx="12.5" ry="12.5" style="stroke:#181818;stroke-width:0.5;" width="129.3066" x="81.8877" y="385.8389"/><text fill="#000000" font-family="sans-serif" font-size="12" lengthAdjust="spacing" textLength="109.3066" x="91.8877" y="406.9775">Xem k&#7871;t qu&#7843; x&#7917; l&#253;</text><ellipse cx="146.541" cy="450.8076" fill="none" rx="11" ry="11" style="stroke:#222222;stroke-width:1;"/><ellipse cx="146.541" cy="450.8076" fill="#222222" rx="6" ry="6" style="stroke:#222222;stroke-width:1;"/><line style="stroke:#000000;stroke-width:1.5;" x1="15" x2="15" y1="50.042" y2="461.8076"/><rect fill="#F1F1F1" height="33.9688" rx="12.5" ry="12.5" style="stroke:#181818;stroke-width:0.5;" width="198.4824" x="282.082" y="169.9639"/><text fill="#000000" font-family="sans-serif" font-size="12" lengthAdjust="spacing" textLength="178.4824" x="292.082" y="191.1025">Ki&#7875;m tra &#273;&#259;ng nh&#7853;p v&#224; quy&#7873;n</text><rect fill="#F1F1F1" height="33.9688" rx="12.5" ry="12.5" style="stroke:#181818;stroke-width:0.5;" width="159.752" x="301.4473" y="223.9326"/><text fill="#000000" font-family="sans-serif" font-size="12" lengthAdjust="spacing" textLength="139.752" x="311.4473" y="245.0713">T&#7843;i danh s&#225;ch &#273;&#225;nh gi&#225;</text><rect fill="#F1F1F1" height="33.9688" rx="12.5" ry="12.5" style="stroke:#181818;stroke-width:0.5;" width="193.3906" x="284.6279" y="331.8701"/><text fill="#000000" font-family="sans-serif" font-size="12" lengthAdjust="spacing" textLength="173.3906" x="294.6279" y="353.0088">C&#7853;p nh&#7853;t tr&#7841;ng th&#225;i &#273;&#225;nh gi&#225;</text><line style="stroke:#000000;stroke-width:1.5;" x1="276.082" x2="276.082" y1="50.042" y2="461.8076"/><line style="stroke:#000000;stroke-width:1.5;" x1="484.5645" x2="484.5645" y1="50.042" y2="461.8076"/><line style="stroke:#181818;stroke-width:1;" x1="146.541" x2="146.541" y1="95.9951" y2="115.9951"/><polygon fill="#181818" points="142.541,105.9951,146.541,115.9951,150.541,105.9951,146.541,109.9951" style="stroke:#181818;stroke-width:1;"/><line style="stroke:#181818;stroke-width:1;" x1="146.541" x2="146.541" y1="419.8076" y2="439.8076"/><polygon fill="#181818" points="142.541,429.8076,146.541,439.8076,150.541,429.8076,146.541,433.8076" style="stroke:#181818;stroke-width:1;"/><line style="stroke:#181818;stroke-width:1;" x1="381.3232" x2="381.3232" y1="203.9326" y2="223.9326"/><polygon fill="#181818" points="377.3232,213.9326,381.3232,223.9326,385.3232,213.9326,381.3232,217.9326" style="stroke:#181818;stroke-width:1;"/><line style="stroke:#181818;stroke-width:1;" x1="146.541" x2="146.541" y1="149.9639" y2="154.9639"/><line style="stroke:#181818;stroke-width:1;" x1="146.541" x2="381.3232" y1="154.9639" y2="154.9639"/><line style="stroke:#181818;stroke-width:1;" x1="381.3232" x2="381.3232" y1="154.9639" y2="169.9639"/><polygon fill="#181818" points="377.3232,159.9639,381.3232,169.9639,385.3232,159.9639,381.3232,163.9639" style="stroke:#181818;stroke-width:1;"/><line style="stroke:#181818;stroke-width:1;" x1="381.3232" x2="381.3232" y1="257.9014" y2="262.9014"/><line style="stroke:#181818;stroke-width:1;" x1="381.3232" x2="146.541" y1="262.9014" y2="262.9014"/><line style="stroke:#181818;stroke-width:1;" x1="146.541" x2="146.541" y1="262.9014" y2="277.9014"/><polygon fill="#181818" points="142.541,267.9014,146.541,277.9014,150.541,267.9014,146.541,271.9014" style="stroke:#181818;stroke-width:1;"/><line style="stroke:#181818;stroke-width:1;" x1="146.541" x2="146.541" y1="311.8701" y2="316.8701"/><line style="stroke:#181818;stroke-width:1;" x1="146.541" x2="381.3232" y1="316.8701" y2="316.8701"/><line style="stroke:#181818;stroke-width:1;" x1="381.3232" x2="381.3232" y1="316.8701" y2="331.8701"/><polygon fill="#181818" points="377.3232,321.8701,381.3232,331.8701,385.3232,321.8701,381.3232,325.8701" style="stroke:#181818;stroke-width:1;"/><line style="stroke:#181818;stroke-width:1;" x1="381.3232" x2="381.3232" y1="365.8389" y2="370.8389"/><line style="stroke:#181818;stroke-width:1;" x1="381.3232" x2="146.541" y1="370.8389" y2="370.8389"/><line style="stroke:#181818;stroke-width:1;" x1="146.541" x2="146.541" y1="370.8389" y2="385.8389"/><polygon fill="#181818" points="142.541,375.8389,146.541,385.8389,150.541,375.8389,146.541,379.8389" style="stroke:#181818;stroke-width:1;"/><text fill="#000000" font-family="sans-serif" font-size="18" lengthAdjust="spacing" textLength="117.0527" x="87.0146" y="66.75">Qu&#7843;n tr&#7883; vi&#234;n</text><text fill="#000000" font-family="sans-serif" font-size="18" lengthAdjust="spacing" textLength="82.6436" x="339.0015" y="66.75">H&#7879; th&#7889;ng</text><?plantuml-src ZP2nIWD154Nx-Oht0nAmajro6q4i10NR8Rlk3DbzMNV6cC0saYA5MEGBp62bc4gh6SJYvKVUdsGsMaWGiR_ttCCr8usDR6KDHibyVAknX2jPcK9ORQi2BhB38pY0inlsJmWLVS1cIGuLb9eS3EazvkrCTDy1stAuXucc5-o4iRAr8Zdby0WrhH0KlSRczT-iL7J771PW5OSbbfr8JZI7UHtPCXOsyvX2nNxTm8HMaJRZS8UfICuZLaCk8z2G6wgVzFHtmoIB8my8UGzPs07xPnnCwKtkTVU4ijtwJiBsGEzwSqLE_sVpigXXnFxJVZq1Kmxh_eqq7ZPkjW00?></g></svg>