<?plantuml 1.2026.1?><svg xmlns="http://www.w3.org/2000/svg" xmlns:xlink="http://www.w3.org/1999/xlink" contentStyleType="text/css" data-diagram-type="ACTIVITY" height="620px" preserveAspectRatio="none" style="width:532px;height:620px;background:#FFFFFF;" version="1.1" viewBox="0 0 532 620" width="532px" zoomAndPan="magnify"><title>UC29 - Qu&#7843;n l&#253; template</title><defs/><g><g class="title" data-source-line="2"><text fill="#000000" font-family="sans-serif" font-size="14" font-weight="bold" lengthAdjust="spacing" textLength="192.8691" x="168.3103" y="32.9951">UC29 - Qu&#7843;n l&#253; template</text></g><rect fill="none" height="20.9531" style="stroke:none;stroke-width:1;" width="499.4897" x="15" y="50.042"/><ellipse cx="159.4932" cy="85.9951" fill="#222222" rx="10" ry="10" style="stroke:#222222;stroke-width:1;"/><rect fill="#F1F1F1" height="33.9688" rx="12.5" ry="12.5" style="stroke:#181818;stroke-width:0.5;" width="204.3535" x="57.3164" y="115.9951"/><text fill="#000000" font-family="sans-serif" font-size="12" lengthAdjust="spacing" textLength="184.3535" x="67.3164" y="137.1338">M&#7903; m&#224;n h&#236;nh qu&#7843;n l&#253; template</text><rect fill="#F1F1F1" height="33.9688" rx="12.5" ry="12.5" style="stroke:#181818;stroke-width:0.5;" width="276.9863" x="21" y="277.9014"/><text fill="#000000" font-family="sans-serif" font-size="12" lengthAdjust="spacing" textLength="256.9863" x="31" y="299.04">Ch&#7885;n t&#7841;o/ch&#7881;nh s&#7917;a/x&#243;a/xu&#7845;t b&#7843;n template</text><rect fill="#F1F1F1" height="33.9688" rx="12.5" ry="12.5" style="stroke:#181818;stroke-width:0.5;" width="157.25" x="80.8682" y="532.21"/><text fill="#000000" font-family="sans-serif" font-size="12" lengthAdjust="spacing" textLength="137.25" x="90.8682" y="553.3486">Nh&#7853;n k&#7871;t qu&#7843; c&#7853;p nh&#7853;t</text><ellipse cx="159.4932" cy="597.1787" fill="none" rx="11" ry="11" style="stroke:#222222;stroke-width:1;"/><ellipse cx="159.4932" cy="597.1787" fill="#222222" rx="6" ry="6" style="stroke:#222222;stroke-width:1;"/><line style="stroke:#000000;stroke-width:1.5;" x1="15" x2="15" y1="50.042" y2="608.1787"/><rect fill="#F1F1F1" height="33.9688" rx="12.5" ry="12.5" style="stroke:#181818;stroke-width:0.5;" width="198.4824" x="307.9863" y="169.9639"/><text fill="#000000" font-family="sans-serif" font-size="12" lengthAdjust="spacing" textLength="178.4824" x="317.9863" y="191.1025">Ki&#7875;m tra &#273;&#259;ng nh&#7853;p v&#224; quy&#7873;n</text><rect fill="#F1F1F1" height="33.9688" rx="12.5" ry="12.5" style="stroke:#181818;stroke-width:0.5;" width="161.6211" x="326.417" y="223.9326"/><text fill="#000000" font-family="sans-serif" font-size="12" lengthAdjust="spacing" textLength="141.6211" x="336.417" y="245.0713">T&#7843;i danh s&#225;ch template</text><rect fill="#F1F1F1" height="33.9688" rx="12.5" ry="12.5" style="stroke:#181818;stroke-width:0.5;" width="152.8027" x="330.8262" y="380.2725"/><text fill="#000000" font-family="sans-serif" font-size="12" lengthAdjust="spacing" textLength="132.8027" x="340.8262" y="401.4111">T&#7843;i t&#7879;p l&#234;n kho l&#432;u tr&#7919;</text><polygon fill="#F1F1F1" points="347.748,331.8701,466.707,331.8701,478.707,343.8701,466.707,355.8701,347.748,355.8701,335.748,343.8701,347.748,331.8701" style="stroke:#181818;stroke-width:0.5;"/><text fill="#000000" font-family="sans-serif" font-size="11" lengthAdjust="spacing" textLength="14.4106" x="411.2275" y="366.0806">C&#243;</text><text fill="#000000" font-family="sans-serif" font-size="11" lengthAdjust="spacing" textLength="118.959" x="347.748" y="347.6782">C&#243; t&#7879;p template m&#7899;i?</text><polygon fill="#F1F1F1" points="407.2275,434.2412,419.2275,446.2412,407.2275,458.2412,395.2275,446.2412,407.2275,434.2412" style="stroke:#181818;stroke-width:0.5;"/><rect fill="#F1F1F1" height="33.9688" rx="12.5" ry="12.5" style="stroke:#181818;stroke-width:0.5;" width="132.418" x="341.0186" y="478.2412"/><text fill="#000000" font-family="sans-serif" font-size="12" lengthAdjust="spacing" textLength="112.418" x="351.0186" y="499.3799">C&#7853;p nh&#7853;t template</text><line style="stroke:#000000;stroke-width:1.5;" x1="301.9863" x2="301.9863" y1="50.042" y2="608.1787"/><line style="stroke:#000000;stroke-width:1.5;" x1="512.6289" x2="512.6289" y1="50.042" y2="608.1787"/><line style="stroke:#181818;stroke-width:1;" x1="159.4932" x2="159.4932" y1="95.9951" y2="115.9951"/><polygon fill="#181818" points="155.4932,105.9951,159.4932,115.9951,163.4932,105.9951,159.4932,109.9951" style="stroke:#181818;stroke-width:1;"/><line style="stroke:#181818;stroke-width:1;" x1="159.4932" x2="159.4932" y1="566.1787" y2="586.1787"/><polygon fill="#181818" points="155.4932,576.1787,159.4932,586.1787,163.4932,576.1787,159.4932,580.1787" style="stroke:#181818;stroke-width:1;"/><line style="stroke:#181818;stroke-width:1;" x1="407.2275" x2="407.2275" y1="203.9326" y2="223.9326"/><polygon fill="#181818" points="403.2275,213.9326,407.2275,223.9326,411.2275,213.9326,407.2275,217.9326" style="stroke:#181818;stroke-width:1;"/><line style="stroke:#181818;stroke-width:1;" x1="407.2275" x2="407.2275" y1="355.8701" y2="380.2725"/><polygon fill="#181818" points="403.2275,370.2725,407.2275,380.2725,411.2275,370.2725,407.2275,374.2725" style="stroke:#181818;stroke-width:1;"/><line style="stroke:#181818;stroke-width:1;" x1="478.707" x2="493.6289" y1="343.8701" y2="343.8701"/><polygon fill="#181818" points="489.6289,387.2568,493.6289,397.2568,497.6289,387.2568,493.6289,391.2568" style="stroke:#181818;stroke-width:1;"/><line style="stroke:#181818;stroke-width:1;" x1="493.6289" x2="493.6289" y1="343.8701" y2="446.2412"/><line style="stroke:#181818;stroke-width:1;" x1="493.6289" x2="419.2275" y1="446.2412" y2="446.2412"/><polygon fill="#181818" points="429.2275,442.2412,419.2275,446.2412,429.2275,450.2412,425.2275,446.2412" style="stroke:#181818;stroke-width:1;"/><line style="stroke:#181818;stroke-width:1;" x1="407.2275" x2="407.2275" y1="414.2412" y2="434.2412"/><polygon fill="#181818" points="403.2275,424.2412,407.2275,434.2412,411.2275,424.2412,407.2275,428.2412" style="stroke:#181818;stroke-width:1;"/><line style="stroke:#181818;stroke-width:1;" x1="407.2275" x2="407.2275" y1="458.2412" y2="478.2412"/><polygon fill="#181818" points="403.2275,468.2412,407.2275,478.2412,411.2275,468.2412,407.2275,472.2412" style="stroke:#181818;stroke-width:1;"/><line style="stroke:#181818;stroke-width:1;" x1="159.4932" x2="159.4932" y1="149.9639" y2="154.9639"/><line style="stroke:#181818;stroke-width:1;" x1="159.4932" x2="407.2275" y1="154.9639" y2="154.9639"/><line style="stroke:#181818;stroke-width:1;" x1="407.2275" x2="407.2275" y1="154.9639" y2="169.9639"/><polygon fill="#181818" points="403.2275,159.9639,407.2275,169.9639,411.2275,159.9639,407.2275,163.9639" style="stroke:#181818;stroke-width:1;"/><line style="stroke:#181818;stroke-width:1;" x1="407.2275" x2="407.2275" y1="257.9014" y2="262.9014"/><line style="stroke:#181818;stroke-width:1;" x1="407.2275" x2="159.4932" y1="262.9014" y2="262.9014"/><line style="stroke:#181818;stroke-width:1;" x1="159.4932" x2="159.4932" y1="262.9014" y2="277.9014"/><polygon fill="#181818" points="155.4932,267.9014,159.4932,277.9014,163.4932,267.9014,159.4932,271.9014" style="stroke:#181818;stroke-width:1;"/><line style="stroke:#181818;stroke-width:1;" x1="159.4932" x2="159.4932" y1="311.8701" y2="316.8701"/><line style="stroke:#181818;stroke-width:1;" x1="159.4932" x2="407.2275" y1="316.8701" y2="316.8701"/><line style="stroke:#181818;stroke-width:1;" x1="407.2275" x2="407.2275" y1="316.8701" y2="331.8701"/><polygon fill="#181818" points="403.2275,321.8701,407.2275,331.8701,411.2275,321.8701,407.2275,325.8701" style="stroke:#181818;stroke-width:1;"/><line style="stroke:#181818;stroke-width:1;" x1="407.2275" x2="407.2275" y1="512.21" y2="517.21"/><line style="stroke:#181818;stroke-width:1;" x1="407.2275" x2="159.4932" y1="517.21" y2="517.21"/><line style="stroke:#181818;stroke-width:1;" x1="159.4932" x2="159.4932" y1="517.21" y2="532.21"/><polygon fill="#181818" points="155.4932,522.21,159.4932,532.21,163.4932,522.21,159.4932,526.21" style="stroke:#181818;stroke-width:1;"/><text fill="#000000" font-family="sans-serif" font-size="18" lengthAdjust="spacing" textLength="117.0527" x="99.9668" y="66.75">Qu&#7843;n tr&#7883; vi&#234;n</text><text fill="#000000" font-family="sans-serif" font-size="18" lengthAdjust="spacing" textLength="82.6436" x="365.9858" y="66.75">H&#7879; th&#7889;ng</text><?plantuml-src XP0nIyD05CVt-nHlj8CKt4m6Xoo2A0Zw0SxaqZkQN69ohGfPf4CHSUZiO8kuY4MXMmvnkEBtUD_4rwH8GSNbu8x__tU_zyg-qZalU0gbv55seNGFOfwKWXbb4W6dmSukRCFn0Ej73Obx1oFIFE56i6hzQ0gqjp1KxbbNh3IyCCmxHFi0gPjgaEv5IpZ_sVTPjOzs34QYdUXUnRm3XNQK4e_3Sh8SaOcMMCzp6Bef4QxGNckVUIU4KX1nmfPk5ifDuczANa0_tD4ZrhEi6zBbPbL5E-VTIxUWWqfF1ixQwbzwAeQjm2q8OyVvTmnIjFTghqCvePj0Xm6i7TjeGXRGbnaads-3HktLPq97AYQrPhvcJFFl74Uh6A6m_Z3jHY7SwFkq_2p_0W00?></g></svg>