<?plantuml 1.2026.1?><svg xmlns="http://www.w3.org/2000/svg" xmlns:xlink="http://www.w3.org/1999/xlink" contentStyleType="text/css" data-diagram-type="ACTIVITY" height="473px" preserveAspectRatio="none" style="width:600px;height:473px;background:#FFFFFF;" version="1.1" viewBox="0 0 600 473" width="600px" zoomAndPan="magnify"><title>UC30 - Qu&#7843;n l&#253; c&#7849;m nang ngh&#7873; nghi&#7879;p</title><defs/><g><g class="title" data-source-line="2"><text fill="#000000" font-family="sans-serif" font-size="14" font-weight="bold" lengthAdjust="spacing" textLength="301.7178" x="147.9475" y="32.9951">UC30 - Qu&#7843;n l&#253; c&#7849;m nang ngh&#7873; nghi&#7879;p</text></g><rect fill="none" height="20.9531" style="stroke:none;stroke-width:1;" width="567.6128" x="15" y="50.042"/><ellipse cx="173.9775" cy="85.9951" fill="#222222" rx="10" ry="10" style="stroke:#222222;stroke-width:1;"/><rect fill="#F1F1F1" height="33.9688" rx="12.5" ry="12.5" style="stroke:#181818;stroke-width:0.5;" width="288.8223" x="29.5664" y="115.9951"/><text fill="#000000" font-family="sans-serif" font-size="12" lengthAdjust="spacing" textLength="268.8223" x="39.5664" y="137.1338">M&#7903; m&#224;n h&#236;nh qu&#7843;n l&#253; c&#7849;m nang ngh&#7873; nghi&#7879;p</text><rect fill="#F1F1F1" height="33.9688" rx="12.5" ry="12.5" style="stroke:#181818;stroke-width:0.5;" width="305.9551" x="21" y="277.9014"/><text fill="#000000" font-family="sans-serif" font-size="12" lengthAdjust="spacing" textLength="285.9551" x="31" y="299.04">Ch&#7885;n t&#7841;o danh m&#7909;c/th&#234;m b&#224;i/ch&#7881;nh s&#7917;a/&#7849;n hi&#7879;n</text><rect fill="#F1F1F1" height="33.9688" rx="12.5" ry="12.5" style="stroke:#181818;stroke-width:0.5;" width="157.25" x="95.3525" y="385.8389"/><text fill="#000000" font-family="sans-serif" font-size="12" lengthAdjust="spacing" textLength="137.25" x="105.3525" y="406.9775">Nh&#7853;n k&#7871;t qu&#7843; c&#7853;p nh&#7853;t</text><ellipse cx="173.9775" cy="450.8076" fill="none" rx="11" ry="11" style="stroke:#222222;stroke-width:1;"/><ellipse cx="173.9775" cy="450.8076" fill="#222222" rx="6" ry="6" style="stroke:#222222;stroke-width:1;"/><line style="stroke:#000000;stroke-width:1.5;" x1="15" x2="15" y1="50.042" y2="461.8076"/><rect fill="#F1F1F1" height="33.9688" rx="12.5" ry="12.5" style="stroke:#181818;stroke-width:0.5;" width="198.4824" x="357.6123" y="169.9639"/><text fill="#000000" font-family="sans-serif" font-size="12" lengthAdjust="spacing" textLength="178.4824" x="367.6123" y="191.1025">Ki&#7875;m tra &#273;&#259;ng nh&#7853;p v&#224; quy&#7873;n</text><rect fill="#F1F1F1" height="33.9688" rx="12.5" ry="12.5" style="stroke:#181818;stroke-width:0.5;" width="239.7969" x="336.9551" y="223.9326"/><text fill="#000000" font-family="sans-serif" font-size="12" lengthAdjust="spacing" textLength="219.7969" x="346.9551" y="245.0713">T&#7843;i danh m&#7909;c v&#224; n&#7897;i dung c&#7849;m nang</text><rect fill="#F1F1F1" height="33.9688" rx="12.5" ry="12.5" style="stroke:#181818;stroke-width:0.5;" width="216.8867" x="348.4102" y="331.8701"/><text fill="#000000" font-family="sans-serif" font-size="12" lengthAdjust="spacing" textLength="196.8867" x="358.4102" y="353.0088">C&#7853;p nh&#7853;t c&#7849;m nang ngh&#7873; nghi&#7879;p</text><line style="stroke:#000000;stroke-width:1.5;" x1="330.9551" x2="330.9551" y1="50.042" y2="461.8076"/><line style="stroke:#000000;stroke-width:1.5;" x1="580.752" x2="580.752" y1="50.042" y2="461.8076"/><line style="stroke:#181818;stroke-width:1;" x1="173.9775" x2="173.9775" y1="95.9951" y2="115.9951"/><polygon fill="#181818" points="169.9775,105.9951,173.9775,115.9951,177.9775,105.9951,173.9775,109.9951" style="stroke:#181818;stroke-width:1;"/><line style="stroke:#181818;stroke-width:1;" x1="173.9775" x2="173.9775" y1="419.8076" y2="439.8076"/><polygon fill="#181818" points="169.9775,429.8076,173.9775,439.8076,177.9775,429.8076,173.9775,433.8076" style="stroke:#181818;stroke-width:1;"/><line style="stroke:#181818;stroke-width:1;" x1="456.8535" x2="456.8535" y1="203.9326" y2="223.9326"/><polygon fill="#181818" points="452.8535,213.9326,456.8535,223.9326,460.8535,213.9326,456.8535,217.9326" style="stroke:#181818;stroke-width:1;"/><line style="stroke:#181818;stroke-width:1;" x1="173.9775" x2="173.9775" y1="149.9639" y2="154.9639"/><line style="stroke:#181818;stroke-width:1;" x1="173.9775" x2="456.8535" y1="154.9639" y2="154.9639"/><line style="stroke:#181818;stroke-width:1;" x1="456.8535" x2="456.8535" y1="154.9639" y2="169.9639"/><polygon fill="#181818" points="452.8535,159.9639,456.8535,169.9639,460.8535,159.9639,456.8535,163.9639" style="stroke:#181818;stroke-width:1;"/><line style="stroke:#181818;stroke-width:1;" x1="456.8535" x2="456.8535" y1="257.9014" y2="262.9014"/><line style="stroke:#181818;stroke-width:1;" x1="456.8535" x2="173.9775" y1="262.9014" y2="262.9014"/><line style="stroke:#181818;stroke-width:1;" x1="173.9775" x2="173.9775" y1="262.9014" y2="277.9014"/><polygon fill="#181818" points="169.9775,267.9014,173.9775,277.9014,177.9775,267.9014,173.9775,271.9014" style="stroke:#181818;stroke-width:1;"/><line style="stroke:#181818;stroke-width:1;" x1="173.9775" x2="173.9775" y1="311.8701" y2="316.8701"/><line style="stroke:#181818;stroke-width:1;" x1="173.9775" x2="456.8535" y1="316.8701" y2="316.8701"/><line style="stroke:#181818;stroke-width:1;" x1="456.8535" x2="456.8535" y1="316.8701" y2="331.8701"/><polygon fill="#181818" points="452.8535,321.8701,456.8535,331.8701,460.8535,321.8701,456.8535,325.8701" style="stroke:#181818;stroke-width:1;"/><line style="stroke:#181818;stroke-width:1;" x1="456.8535" x2="456.8535" y1="365.8389" y2="370.8389"/><line style="stroke:#181818;stroke-width:1;" x1="456.8535" x2="173.9775" y1="370.8389" y2="370.8389"/><line style="stroke:#181818;stroke-width:1;" x1="173.9775" x2="173.9775" y1="370.8389" y2="385.8389"/><polygon fill="#181818" points="169.9775,375.8389,173.9775,385.8389,177.9775,375.8389,173.9775,379.8389" style="stroke:#181818;stroke-width:1;"/><text fill="#000000" font-family="sans-serif" font-size="18" lengthAdjust="spacing" textLength="117.0527" x="114.4512" y="66.75">Qu&#7843;n tr&#7883; vi&#234;n</text><text fill="#000000" font-family="sans-serif" font-size="18" lengthAdjust="spacing" textLength="82.6436" x="414.5317" y="66.75">H&#7879; th&#7889;ng</text><?plantuml-src ZL2zIiH04ExtAUO5989TKgOHH47G1rXpPtQvx2GcUoT26hb2H2okj38Y5XxU2sGHYxqNcJTnDeeA7c8ryCttDzDCD5QobWOQ9KVbkSOSJcNHZ8NLjXZ3SRgp3LjmEAN-4Q7mhv1H_sm09HCnL-Gkmz3ahYhHVj9iJUu6PjeliHMDbRKLyJwvUp2-Gr3-1HMS_SSn4UqkJx2CBZ1lHRp7-DnmWeJrOZqF4aNzgeAPxzZpWjMOYFY8pJMC90SPSa_Pi4PoTmnEMVGTcMnk7QSSUSiWzG_b3wF8AhyqSE8x7MLCkUP5Gsub8tRasq9j_5qx7JeELUtVzsuiSn2421Fgt-p7vuB9bsF2JowhTm00?></g></svg>