<?plantuml 1.2026.1?><svg xmlns="http://www.w3.org/2000/svg" xmlns:xlink="http://www.w3.org/1999/xlink" contentStyleType="text/css" data-diagram-type="DESCRIPTION" height="335px" preserveAspectRatio="none" style="width:641px;height:335px;background:#FFFFFF;" version="1.1" viewBox="0 0 641 335" width="641px" zoomAndPan="magnify"><title>UC17 - B&#225;o c&#225;o (tin/ng&#432;&#7901;i d&#249;ng/c&#244;ng ty)</title><defs/><g><g class="title" data-source-line="3"><text fill="#000000" font-family="sans-serif" font-size="14" font-weight="bold" lengthAdjust="spacing" textLength="315.834" x="156.0089" y="22.9951">UC17 - B&#225;o c&#225;o (tin/ng&#432;&#7901;i d&#249;ng/c&#244;ng ty)</text></g><!--entity ACTOR_1--><g class="entity" data-qualified-name="ACTOR_1" data-source-line="4" id="ent0002"><ellipse cx="96.9556" cy="51.2969" fill="#F1F1F1" rx="8" ry="8" style="stroke:#181818;stroke-width:0.5;"/><path d="M96.9556,59.2969 L96.9556,86.2969 M83.9556,67.2969 L109.9556,67.2969 M96.9556,86.2969 L83.9556,101.2969 M96.9556,86.2969 L109.9556,101.2969" fill="none" style="stroke:#181818;stroke-width:0.5;"/><text fill="#000000" font-family="sans-serif" font-size="14" lengthAdjust="spacing" textLength="181.9111" x="6" y="115.792">Ng&#432;&#7901;i d&#249;ng &#273;&#227; &#273;&#259;ng nh&#7853;p</text></g><!--entity UC_MAIN--><g class="entity" data-qualified-name="UC_MAIN" data-source-line="5" id="ent0003"><ellipse cx="353.537" cy="203.9505" fill="#F1F1F1" rx="42.627" ry="14.5236" style="stroke:#181818;stroke-width:0.5;"/><text fill="#000000" font-family="sans-serif" font-size="14" lengthAdjust="spacing" textLength="56.041" x="325.5165" y="208.5989">B&#225;o c&#225;o</text></g><!--entity UC_LOGIN--><g class="entity" data-qualified-name="UC_LOGIN" data-source-line="7" id="ent0005"><ellipse cx="578.5109" cy="203.9505" fill="#F1F1F1" rx="57.3409" ry="14.5236" style="stroke:#181818;stroke-width:0.5;"/><text fill="#000000" font-family="sans-serif" font-size="14" lengthAdjust="spacing" textLength="76.8496" x="540.0861" y="208.5989">&#272;&#259;ng nh&#7853;p</text></g><!--entity UC_EXT_1--><g class="entity" data-qualified-name="UC_EXT_1" data-source-line="9" id="ent0007"><ellipse cx="96.956" cy="168.9481" fill="#F1F1F1" rx="63.056" ry="15.0112" style="stroke:#181818;stroke-width:0.5;"/><text fill="#000000" font-family="sans-serif" font-size="14" lengthAdjust="spacing" textLength="88.2451" x="52.8335" y="173.5965">B&#225;o c&#225;o - tin</text></g><!--entity UC_EXT_2--><g class="entity" data-qualified-name="UC_EXT_2" data-source-line="11" id="ent0009"><ellipse cx="96.955" cy="238.9439" fill="#F1F1F1" rx="87.935" ry="19.987" style="stroke:#181818;stroke-width:0.5;"/><text fill="#000000" font-family="sans-serif" font-size="14" lengthAdjust="spacing" textLength="149.0508" x="22.4296" y="243.5923">B&#225;o c&#225;o - ng&#432;&#7901;i d&#249;ng</text></g><!--entity UC_EXT_3--><g class="entity" data-qualified-name="UC_EXT_3" data-source-line="13" id="ent0011"><ellipse cx="96.9647" cy="311.9478" fill="#F1F1F1" rx="76.4547" ry="17.6909" style="stroke:#181818;stroke-width:0.5;"/><text fill="#000000" font-family="sans-serif" font-size="14" lengthAdjust="spacing" textLength="122.2402" x="35.8446" y="316.5963">B&#225;o c&#225;o - c&#244;ng ty</text></g><!--link ACTOR_1 to UC_MAIN--><g class="link" data-entity-1="ent0002" data-entity-2="ent0003" data-link-type="dependency" data-source-line="6" id="lnk4"><path d="M188.24,118.4969 C218.09,131.5469 251.23,146.7369 280.91,161.9469 C298.49,170.9569 312.6427,179.2142 326.7727,187.8642" fill="none" id="ACTOR_1-to-UC_MAIN" style="stroke:#181818;stroke-width:1;"/><polygon fill="#181818" points="331.89,190.9969,326.3025,182.8864,327.6256,188.3863,322.1257,189.7094,331.89,190.9969" style="stroke:#181818;stroke-width:1;"/></g><!--link UC_MAIN to UC_LOGIN--><g class="link" data-entity-1="ent0003" data-entity-2="ent0005" data-link-type="dependency" data-source-line="8" id="lnk6"><path d="M396.48,203.9469 C431.67,203.9469 476.27,203.9469 515.02,203.9469" fill="none" id="UC_MAIN-to-UC_LOGIN" style="stroke:#181818;stroke-width:1;stroke-dasharray:7,7;"/><polygon fill="#181818" points="521.02,203.9469,512.02,199.9469,516.02,203.9469,512.02,207.9469,521.02,203.9469" style="stroke:#181818;stroke-width:1;"/><text fill="#000000" font-family="sans-serif" font-size="13" lengthAdjust="spacing" textLength="63.0068" x="427.17" y="200.0138">&#171;include&#187;</text></g><!--link UC_EXT_1 to UC_MAIN--><g class="link" data-entity-1="ent0007" data-entity-2="ent0003" data-link-type="dependency" data-source-line="10" id="lnk8"><path d="M152.26,176.4069 C200.74,183.0769 264.6158,191.8604 307.7158,197.7804" fill="none" id="UC_EXT_1-to-UC_MAIN" style="stroke:#181818;stroke-width:1;stroke-dasharray:7,7;"/><polygon fill="#181818" points="313.66,198.5969,305.288,193.4094,308.7065,197.9165,304.1994,201.335,313.66,198.5969" style="stroke:#181818;stroke-width:1;"/><text fill="#000000" font-family="sans-serif" font-size="13" lengthAdjust="spacing" textLength="61.1851" x="218.91" y="183.0138">&#171;extend&#187;</text></g><!--link UC_EXT_2 to UC_MAIN--><g class="link" data-entity-1="ent0009" data-entity-2="ent0003" data-link-type="dependency" data-source-line="12" id="lnk10"><path d="M179.7,231.7269 C211.4,228.4869 247.94,224.1869 280.91,218.9469 C292.83,217.0469 299.9014,215.7457 311.4614,213.2857" fill="none" id="UC_EXT_2-to-UC_MAIN" style="stroke:#181818;stroke-width:1;stroke-dasharray:7,7;"/><polygon fill="#181818" points="317.33,212.0369,307.6945,209.9978,312.4395,213.0776,309.3597,217.8225,317.33,212.0369" style="stroke:#181818;stroke-width:1;"/><text fill="#000000" font-family="sans-serif" font-size="13" lengthAdjust="spacing" textLength="61.1851" x="218.91" y="215.0138">&#171;extend&#187;</text></g><!--link UC_EXT_3 to UC_MAIN--><g class="link" data-entity-1="ent0011" data-entity-2="ent0003" data-link-type="dependency" data-source-line="14" id="lnk12"><path d="M151.17,299.1469 C188.54,289.1269 239.11,273.4469 280.91,252.9469 C300.93,243.1269 316.986,231.9474 330.986,221.1674" fill="none" id="UC_EXT_3-to-UC_MAIN" style="stroke:#181818;stroke-width:1;stroke-dasharray:7,7;"/><polygon fill="#181818" points="335.74,217.5069,326.1687,219.8284,331.7784,220.5573,331.0494,226.167,335.74,217.5069" style="stroke:#181818;stroke-width:1;"/><text fill="#000000" font-family="sans-serif" font-size="13" lengthAdjust="spacing" textLength="61.1851" x="218.91" y="249.0138">&#171;extend&#187;</text></g><?plantuml-src AyxEp2j8B4hCLIZEI4p9By_CIrT8IymfJkNAIKqhKIZ9LoZAJCyeKKZ9B4fDBidCp-CgoIp9ILK8TJOqLz1LS3gyC5yX6KHeb6JcwUUb7zlmSFVSJ8MKmplpqlMJ3sy16bTIgScLc5oINwIWv8SYht1auk75GE98Cv2Tb_5mrze29ON4OWL7vn3_e7X3hjBYrEJ4ubG59RWjOEbGvtXVHqy_BgWo1LrTExWONCkH2UYc0fNu-Bi3rK3LAkZfsS455QmKR6moyv9pIbDIxUoms0pqAz23C8DS8qA0xeCnO2Q1JGKPb5fHafgNWiiSr412Dj88PgGHYKR20XhPC6EOOSOu3GC0?></g></svg>